<svg width="24" height="24" viewBox="0 0 24 24" fill="none" xmlns="http://www.w3.org/2000/svg">
<path d="M10.8257 3.22985L2.62723 6.54792C2.16941 6.73062 2.17544 7.36712 2.63325 7.54393L10.8679 10.7382C11.5907 11.0211 12.3979 11.0211 13.1208 10.7382L21.3554 7.54393C21.8132 7.36712 21.8192 6.73062 21.3614 6.54792L13.163 3.22985C12.41 2.92338 11.5727 2.92338 10.8257 3.22985Z" fill="#FFBF00"/>
<path d="M10.5784 12.8953L7.85564 14.1801L7.57854 14.3098L1.83178 17.0031C1.47035 17.174 1.00049 16.9147 1.00049 16.5198V9.02916C1.00049 8.88771 1.07277 8.76395 1.17518 8.66965C1.21735 8.6284 1.26554 8.59304 1.31373 8.56946C1.45228 8.48695 1.64504 8.46927 1.81371 8.5341L10.5302 11.9111C10.976 12.082 11.0121 12.689 10.5784 12.8953Z" fill="#ED3049"/>
<path d="M1.61568 8.4928C1.50725 8.4928 1.40485 8.52227 1.32654 8.56941C1.27835 8.59888 1.23016 8.62835 1.18799 8.6696L7.8564 14.1801L10.5792 12.8953C10.784 12.7951 10.8864 12.6065 10.8864 12.4179C10.8864 12.2116 10.7659 11.9995 10.537 11.9111L1.82049 8.53405C1.75423 8.50458 1.68194 8.4928 1.61568 8.4928Z" fill="#B22437"/>
<path d="M12.7231 12.4828V20.4626C12.7231 20.8398 13.1147 21.0991 13.4761 20.9636L22.6505 17.4805C22.8613 17.398 22.9998 17.2035 22.9998 16.9795V8.99968C22.9998 8.62249 22.6083 8.36317 22.2469 8.49872L13.0725 11.9818C12.8617 12.0643 12.7231 12.2588 12.7231 12.4828Z" fill="#26B5F8"/>
</svg>
