<?xml version="1.0" encoding="utf-8"?>
<!-- Generator: Adobe Illustrator 23.0.1, SVG Export Plug-In . SVG Version: 6.00 Build 0)  -->
<svg version="1.1" id="Layer_1" xmlns="http://www.w3.org/2000/svg" xmlns:xlink="http://www.w3.org/1999/xlink" x="0px" y="0px"
	 viewBox="0 0 1000 1000" style="enable-background:new 0 0 1000 1000;" xml:space="preserve">
<style type="text/css">
	.st0{fill:#00A7CF;}
</style>
<g>
	<path class="st0" d="M446.1,250.4c-2.8-2.8-5.7-5.7-8.5-5.7s-4.3,1.4-7.1,2.8c-24.1,18.4-56.7,99.3-83.7,205.7h24.1
		c46.8,0,96.4,1.4,144.7,1.4c-12.8-48.2-24.1-90.8-35.5-123.4C463.1,281.6,453.2,260.3,446.1,250.4z"/>
	<path class="st0" d="M500,46.1C249,46.1,46.1,249,46.1,500S249,953.9,500,953.9S953.9,751,953.9,500S751,46.1,500,46.1z
		 M826.2,508.5l-1.4,1.4h-1.4H822c-2.8,1.4-7.1,2.8-11.3,2.8H596.4c1.4,7.1,4.3,15.6,5.7,24.1c11.3,51.1,42.5,185.8,76.6,185.8h1.4
		c25.5,0,39.7-36.9,68.1-119.1v-1.4c4.3-12.8,9.9-28.4,15.6-44l1.4-4.3c1.4-5.7,7.1-8.5,12.8-7.1c5.7,1.4,8.5,7.1,7.1,12.8l-1.4,5.7
		c-2.8,9.9-5.7,22.7-9.9,38.3c-17,72.3-44,180.1-110.6,180.1c-44,0-69.5-69.5-80.8-99.3c-21.3-55.3-36.9-114.9-51.1-171.6H332.6
		l-41.1,131.9c-5.7,9.9-18.4,12.8-28.4,7.1c-5.7-4.3-9.9-9.9-9.9-17v-1.4l2.8-14.2c5.7-34,12.8-69.5,19.9-105h-83.7
		c-15.6-2.8-26.9-15.6-26.9-31.2s11.3-28.4,25.5-31.2h9.9h4.3c26.9,0,53.9,1.4,85.1,1.4c44-177.3,93.6-266.6,150.3-268.1
		c59.6,0,105,137.6,140.4,270.9c73.8,1.4,151.8,4.3,226.9,8.5h2.8h4.3c12.8,2.8,21.3,15.6,18.4,28.4
		C833.3,500,830.5,504.3,826.2,508.5z"/>
</g>
</svg>
