<svg width="24" height="24" viewBox="0 0 24 24" fill="none" xmlns="http://www.w3.org/2000/svg">
<path d="M12 2C6.48438 2 2 6.48438 2 12C2 17.5156 6.48438 22 12 22C17.5156 22 22 17.5156 22 12C22 6.48438 17.5156 2 12 2Z" fill="#050C26"/>
<path d="M15.3825 10.9714C15.9743 11.0805 16.3918 11.3239 16.635 11.7023C16.8782 12.0806 17 12.6766 17 13.4907C17 15.1062 16.5021 16.4282 15.5059 17.457C14.5096 18.4858 13.2362 19 11.6846 19C11.0734 19 10.4797 18.8924 9.90437 18.6777C9.32909 18.4629 8.83421 18.163 8.42022 17.7788C7.94682 17.3557 7.59176 16.9087 7.35506 16.4374C7.11835 15.9666 7 15.4841 7 14.9903C7 14.4392 7.12185 14.0131 7.36504 13.7117C7.60824 13.4103 7.99276 13.2053 8.5191 13.0963C8.42072 12.8718 8.34782 12.6829 8.30237 12.529C8.25643 12.3752 8.23346 12.2564 8.23346 12.1731C8.23346 11.8848 8.38976 11.5898 8.70187 11.2884C9.01398 10.987 9.30812 10.8365 9.58427 10.8365C9.70262 10.8365 9.82747 10.8575 9.9588 10.8989C10.0901 10.9407 10.2414 11.0094 10.4122 11.1058C9.90587 9.70838 9.53783 8.62988 9.30762 7.87031C9.0774 7.11074 8.96255 6.58683 8.96255 6.29809C8.96255 5.90078 9.06742 5.58526 9.27815 5.35106C9.48839 5.11686 9.77453 5 10.1361 5C10.7538 5 11.5363 6.34629 12.4831 9.0384C12.6474 9.49998 12.7723 9.85591 12.8577 10.1057C12.9301 9.90704 13.032 9.62512 13.1633 9.25945C14.1101 6.59267 14.9251 5.25952 15.6092 5.25952C15.9443 5.25952 16.2125 5.37005 16.4127 5.5911C16.6135 5.81216 16.7134 6.10868 16.7134 6.48068C16.7134 6.76309 16.603 7.27872 16.3828 8.02855C16.163 8.77888 15.8295 9.7595 15.3825 10.9714ZM8.32135 14.8944C8.41323 15.0035 8.54157 15.1637 8.70587 15.375C9.13983 15.9583 9.54082 16.25 9.90886 16.25C10.0337 16.25 10.1456 16.2115 10.2439 16.1346C10.3423 16.0576 10.3918 15.9773 10.3918 15.894C10.3918 15.7981 10.3258 15.6379 10.1945 15.4135C10.0627 15.189 9.8824 14.9358 9.65218 14.6539C9.38901 14.3272 9.17029 14.0881 8.9965 13.9376C8.82222 13.7872 8.6824 13.7117 8.57753 13.7117C8.34732 13.7117 8.13508 13.832 7.94132 14.0725C7.74757 14.313 7.65019 14.5964 7.65019 14.9236C7.65019 15.1866 7.7176 15.4797 7.85243 15.8035C7.98727 16.1273 8.18302 16.4525 8.4392 16.7792C8.82722 17.2856 9.30861 17.6751 9.8839 17.9473C10.4592 18.22 11.0954 18.3558 11.792 18.3558C13.0739 18.3558 14.1471 17.8894 15.012 16.9569C15.8764 16.024 16.3089 14.8559 16.3089 13.4522C16.3089 13.0227 16.2759 12.6814 16.21 12.4282C16.1441 12.175 16.0357 11.9905 15.8844 11.8751C15.6147 11.6575 15.0904 11.4617 14.3114 11.2884C13.5323 11.1155 12.7189 11.0289 11.8704 11.0289C11.6337 11.0289 11.4659 11.0673 11.3675 11.1443C11.2692 11.2212 11.2197 11.3527 11.2197 11.5387C11.2197 11.9749 11.4694 12.2904 11.9693 12.4857C12.4687 12.6814 13.2777 12.7788 14.3953 12.7788H14.7998C14.8916 12.7788 14.9655 12.8124 15.0215 12.8796C15.0774 12.9468 15.1154 13.0481 15.1348 13.1825C15.023 13.2852 14.7928 13.402 14.4447 13.5335C14.0961 13.665 13.83 13.7945 13.6457 13.923C13.2512 14.2054 12.9341 14.5399 12.6939 14.928C12.4537 15.3161 12.3338 15.6827 12.3338 16.0289C12.3338 16.2402 12.3848 16.4954 12.4866 16.7933C12.5885 17.0913 12.6395 17.2759 12.6395 17.3465V17.4137L12.62 17.5003C12.3303 17.4813 12.1021 17.3163 11.9348 17.0051C11.767 16.694 11.6831 16.2792 11.6831 15.7601V15.6735C11.6302 15.7183 11.5798 15.7504 11.5303 15.7699C11.4809 15.7889 11.427 15.7986 11.3675 15.7986C11.3081 15.7986 11.2527 15.7937 11.1998 15.784C11.1468 15.7743 11.0879 15.7601 11.0225 15.7407C11.0419 15.8113 11.0569 15.8799 11.0669 15.9476C11.0769 16.0148 11.0819 16.0679 11.0819 16.1063C11.0819 16.3434 10.9865 16.547 10.7958 16.7169C10.605 16.8868 10.3783 16.9716 10.1151 16.9716C9.70112 16.9716 9.28015 16.7744 8.85268 16.3804C8.42522 15.9861 8.21149 15.5999 8.21149 15.2216C8.21149 15.151 8.21948 15.0887 8.23596 15.0342C8.25393 14.9791 8.2819 14.9329 8.32135 14.8944ZM11.2801 15.1252C11.392 15.1252 11.4939 15.0755 11.5858 14.9762C11.6777 14.8769 11.7236 14.7693 11.7236 14.6539C11.7236 14.5322 11.6332 14.2488 11.4524 13.8028C11.2717 13.3572 11.0464 12.9195 10.7768 12.4901C10.5795 12.1697 10.3858 11.9277 10.195 11.7641C10.0042 11.6005 9.82347 11.5187 9.65268 11.5187C9.51486 11.5187 9.36155 11.6039 9.19426 11.7733C9.02647 11.9433 8.94257 12.102 8.94257 12.2495C8.94257 12.4034 9.02497 12.6342 9.18926 12.9419C9.35356 13.2496 9.57378 13.5764 9.84994 13.9225C10.1391 14.3009 10.4122 14.5955 10.6684 14.8073C10.9251 15.0191 11.1288 15.1252 11.2801 15.1252ZM12.2464 10.4806L11.1813 7.48078C10.9051 6.7178 10.6914 6.2197 10.5401 5.9855C10.3888 5.7513 10.2245 5.63444 10.0472 5.63444C9.90936 5.63444 9.797 5.68605 9.71211 5.7883C9.62672 5.89104 9.58377 6.02883 9.58377 6.20168C9.58377 6.49675 9.69863 7.00946 9.92884 7.74031C10.1591 8.47115 10.5041 9.42938 10.9645 10.6155C11.004 10.5449 11.0599 10.4952 11.1323 10.4665C11.2047 10.4378 11.3031 10.4232 11.428 10.4232C11.4674 10.4232 11.5463 10.4266 11.6647 10.4329C11.783 10.4392 11.9768 10.4553 12.2464 10.4806ZM13.3605 13.3943C13.0779 13.3816 12.8097 13.3524 12.5571 13.3076C12.3039 13.2628 12.0622 13.1985 11.8325 13.1153C11.9373 13.3207 12.0312 13.5257 12.1136 13.7307C12.196 13.9362 12.2629 14.1378 12.3159 14.3364C12.4737 14.1441 12.6395 13.9698 12.8137 13.8125C12.9875 13.6557 13.1698 13.516 13.3605 13.3943ZM14.6724 10.8078C15.1129 9.64119 15.4564 8.67809 15.7031 7.91851C15.9498 7.15894 16.0732 6.69248 16.0732 6.51963C16.0732 6.33363 16.0322 6.18951 15.9498 6.08677C15.8674 5.98452 15.7541 5.93291 15.6097 5.93291C15.4255 5.93291 15.2382 6.0819 15.0474 6.37989C14.8567 6.67788 14.6464 7.15748 14.4162 7.81724L13.43 10.596L14.6724 10.8078Z" fill="white"/>
</svg>
