<svg width="24" height="24" viewBox="0 0 24 24" fill="none" xmlns="http://www.w3.org/2000/svg">
<path d="M18.2176 12.5853C15.575 12.5853 13.4309 14.6896 13.4309 17.2884C13.4309 19.8914 15.575 21.9958 18.2176 21.9958C20.8559 21.9958 23 19.8872 23 17.2884C23 14.6939 20.8602 12.5853 18.2176 12.5853ZM5.78242 12.5853C3.14414 12.5853 1 14.6939 1 17.2926C1 19.8956 3.14414 22 5.78242 22C8.425 22 10.5691 19.8914 10.5691 17.2926C10.5734 14.6939 8.4293 12.5853 5.78242 12.5853ZM16.7824 6.70737C16.7824 9.30615 14.6426 11.4105 12 11.4105C9.35742 11.4105 7.21758 9.30615 7.21758 6.70737C7.21758 4.1086 9.35742 2 12 2C14.6426 2 16.7824 4.1086 16.7824 6.70737Z" fill="url(#paint0_radial)"/>
<defs>
<radialGradient id="paint0_radial" cx="0" cy="0" r="1" gradientUnits="userSpaceOnUse" gradientTransform="translate(12.093 14.2727) rotate(-90.4488) scale(12.2733 13.2697)">
<stop stop-color="#FFC01B"/>
<stop offset="0.6" stop-color="#FF75A1"/>
<stop offset="0.9991" stop-color="#FF7878"/>
</radialGradient>
</defs>
</svg>
