<svg width="398" height="309" viewBox="0 0 398 309" fill="none" xmlns="http://www.w3.org/2000/svg">
<path d="M184.107 291.783C235.236 282.751 277.466 275.277 277.951 275.175L278.833 274.988L230.562 217.571C204.013 185.992 182.291 160.032 182.291 159.882C182.291 159.599 232.135 22.3403 232.415 21.852C232.509 21.6887 266.429 80.2509 314.64 163.811C359.776 242.041 396.988 306.542 397.334 307.146L397.963 308.245L244.554 308.225L91.1457 308.205L184.107 291.783ZM0 274.274C0 274.193 22.745 234.71 50.5444 186.533L101.089 98.939L159.992 49.507C192.389 22.3194 218.983 0.0417458 219.09 0.00111677C219.196 -0.0395042 218.77 1.03313 218.143 2.38475C217.515 3.73638 188.733 65.4717 154.182 139.574L91.3616 274.307L45.6808 274.364C20.5564 274.395 0 274.355 0 274.274Z" fill="#0089D6"/>
</svg>
