<svg width="24" height="24" viewBox="0 0 24 24" fill="none" xmlns="http://www.w3.org/2000/svg">
<path d="M21.0734 17.9435C20.5856 17.9435 20.2062 17.5641 20.152 17.0763C19.8268 12.4149 17.2793 5.84287 12.5501 5.84287C8.64757 5.84287 5.7071 8.55298 3.81003 13.9325C3.64742 14.4204 3.1054 14.6914 2.61758 14.4746C2.12976 14.312 1.85875 13.7699 2.07556 13.3363C4.24364 7.14373 7.78034 4 12.5501 4C18.7969 4 21.6696 11.9271 21.9949 16.9679C22.0491 17.4557 21.6696 17.9435 21.1276 17.9435H21.0734Z" fill="#FFF"/>
<path d="M12.3336 21.3718C9.18987 21.3718 6.141 20.0167 4.02711 17.6318C3.7561 17.415 3.7019 17.0356 3.8103 16.7104C4.40653 15.1385 5.97839 11.4934 7.98387 11.4392C9.01371 11.4392 9.77254 12.2523 10.3688 12.9027C10.5314 13.1195 10.8024 13.3905 11.0192 13.5531C11.507 13.0653 12.4284 11.5476 13.1331 9.97579C13.3499 9.48797 13.8919 9.32536 14.3797 9.54217C14.8675 9.75898 15.0302 10.301 14.8133 10.7888C12.6453 15.5044 11.507 15.5044 11.0734 15.5044C10.2062 15.5044 9.60993 14.854 9.01371 14.2036C8.7427 13.9325 8.20068 13.3363 7.98387 13.3363C7.49605 13.3905 6.46621 15.0708 5.76158 16.8595C7.55025 18.6481 9.98935 19.6238 12.4962 19.5696C14.6643 19.5696 18.5262 19.1902 20.0981 16.8595C19.6644 12.1981 17.1169 5.89708 12.4962 5.89708C12.0084 5.89708 11.5748 5.46346 11.5748 4.97564C11.5748 4.48782 12.0081 4 12.5501 4C18.7969 4 21.6696 11.9271 21.9949 16.9679C21.9949 17.1305 21.9409 17.3473 21.8867 17.5099C20.4233 20.0032 17.1169 21.4124 12.5504 21.4124C12.4962 21.3718 12.3878 21.3718 12.3336 21.3718Z" fill="#FFF"/>
</svg>
