<svg width="24" height="24" viewBox="0 0 24 24" fill="none" xmlns="http://www.w3.org/2000/svg">
<path d="M21 8.79373L20.3489 7.0349L20.8025 6.02587C20.8309 5.9622 20.8394 5.89151 20.8269 5.82298C20.8144 5.75444 20.7814 5.69123 20.7324 5.64154L19.4998 4.40363C19.2356 4.13682 18.9006 3.9502 18.5338 3.86552C18.1671 3.78084 17.7837 3.8016 17.4284 3.92536L17.0906 4.0439L15.2102 2.01764L12.0002 2L8.78982 2.02502L6.91143 4.06769L6.57699 3.94997C6.21938 3.82486 5.83331 3.80379 5.46408 3.88923C5.09485 3.97466 4.75778 4.16307 4.49241 4.43234L3.23176 5.69363C3.19249 5.73315 3.16613 5.78354 3.15613 5.83821C3.14612 5.89288 3.15293 5.94928 3.17567 6.00003L3.64867 7.04844L3 8.80563L5.32871 17.6129C5.54883 18.445 6.05517 19.174 6.75967 19.6732L11.3651 22.7778C11.5459 22.9217 11.7706 23 12.0021 23C12.2336 23 12.4582 22.9217 12.639 22.7778L17.242 19.6687C17.9477 19.1712 18.4537 18.4413 18.6705 17.6084L20.5703 10.3836L21 8.79373Z" fill="url(#paint0_linear)"/>
<path d="M12.526 15.0161C12.4043 14.9618 12.2787 14.9166 12.1503 14.8807H11.9239C11.7955 14.9166 11.67 14.9619 11.5482 15.0161L10.9787 15.2515L10.3354 15.546L9.28798 16.0891C9.2496 16.101 9.21572 16.1242 9.19079 16.1555C9.16586 16.1869 9.15104 16.2251 9.14828 16.265C9.14551 16.3049 9.15493 16.3447 9.1753 16.3792C9.19567 16.4136 9.22603 16.4412 9.26242 16.4582L10.1721 17.0936C10.3646 17.2303 10.5508 17.3774 10.7309 17.535L10.987 17.7544L11.5231 18.2208L11.766 18.4341C11.8411 18.4959 11.9355 18.5298 12.033 18.5298C12.1305 18.5298 12.2249 18.4959 12.3 18.4341L13.347 17.5243L13.9079 17.0825L14.8176 16.4349C14.8537 16.4178 14.8837 16.3902 14.9038 16.3558C14.9238 16.3214 14.9329 16.2818 14.9299 16.2422C14.9268 16.2025 14.9118 16.1647 14.8868 16.1337C14.8617 16.1027 14.8278 16.08 14.7896 16.0686L13.7438 15.5435L13.0967 15.2486L12.526 15.0161ZM18.9756 9.18624L19.0086 9.0919C19.0103 8.96598 19.0024 8.84011 18.9851 8.71536C18.8983 8.49165 18.7849 8.27904 18.6474 8.08205L18.0556 7.21822L17.6342 6.6489L16.8411 5.66447C16.7687 5.56846 16.6901 5.47708 16.6061 5.39089H16.5896L16.2374 5.4557L14.4943 5.78958C14.318 5.79765 14.1417 5.77203 13.9751 5.71411L13.018 5.40647L12.333 5.2182C12.1319 5.19728 11.9291 5.19728 11.728 5.2182L11.0414 5.40853L10.0843 5.7178C9.91757 5.77533 9.74141 5.80094 9.5651 5.79327L7.82403 5.46513L7.47186 5.40032H7.45537C7.37098 5.48621 7.29245 5.57761 7.22031 5.67391L6.42854 6.65833C6.28201 6.84291 6.14262 7.03268 6.01038 7.22765L5.41697 8.09148L5.13737 8.55539C5.08645 8.73359 5.05955 8.91773 5.05737 9.10297L5.09036 9.19732C5.10443 9.25777 5.12247 9.31723 5.14439 9.37533L5.61161 9.90856L7.683 12.0985C7.75186 12.1782 7.79794 12.2748 7.81644 12.3783C7.83494 12.4817 7.82517 12.5882 7.78816 12.6867L7.44052 13.4849C7.36369 13.6961 7.35805 13.9265 7.42444 14.1412L7.49207 14.3266C7.60336 14.6277 7.79409 14.8935 8.04425 15.096L8.36961 15.3598C8.4543 15.4202 8.55294 15.4583 8.65639 15.4706C8.75984 15.483 8.86475 15.4691 8.96138 15.4303L10.1185 14.8795C10.3314 14.7745 10.5306 14.6439 10.7115 14.4906L11.6377 13.6592C11.6749 13.6262 11.705 13.5861 11.7263 13.5413C11.7475 13.4965 11.7595 13.4478 11.7614 13.3983C11.7631 13.3489 11.7548 13.2997 11.7371 13.2535C11.7194 13.2073 11.6926 13.1651 11.6583 13.1293L9.5651 11.7285C9.48591 11.6727 9.42949 11.5904 9.40611 11.4967C9.38272 11.403 9.39392 11.304 9.43768 11.2178L10.2484 9.70224C10.2947 9.60955 10.3221 9.5087 10.3292 9.40546C10.3363 9.30221 10.3228 9.19859 10.2897 9.10051C10.1887 8.91333 10.0256 8.76676 9.8282 8.68583L7.28629 7.73422C7.10319 7.66859 7.11309 7.58656 7.30732 7.57507L8.80014 7.42782C9.03424 7.41294 9.26925 7.43369 9.49706 7.48935L10.7961 7.8503C10.8883 7.8779 10.9673 7.93786 11.0184 8.01903C11.0695 8.10021 11.0893 8.19708 11.074 8.29165L10.5639 11.0648C10.5296 11.2184 10.5211 11.3765 10.5387 11.5329C10.5594 11.5989 10.7338 11.6805 10.9247 11.7269L11.7161 11.8909C11.9459 11.9332 12.1815 11.9332 12.4114 11.8909L13.1231 11.7269C13.3145 11.6858 13.4868 11.5944 13.5087 11.5279C13.5259 11.3717 13.5171 11.2137 13.4827 11.0603L12.9693 8.28796C12.9542 8.19341 12.974 8.09662 13.0251 8.01548C13.0762 7.93435 13.1551 7.87436 13.2473 7.84661L14.5462 7.48442C14.7741 7.42874 15.0091 7.408 15.2432 7.4229L16.736 7.56113C16.9315 7.57917 16.9422 7.65136 16.7583 7.72027L14.2168 8.67721C14.0192 8.75764 13.8563 8.90456 13.7565 9.09231C13.6899 9.29044 13.7047 9.50673 13.7978 9.69404L14.6098 11.2096C14.6537 11.2959 14.665 11.395 14.6417 11.4888C14.6184 11.5827 14.562 11.6651 14.4827 11.7211L12.3936 13.1252C12.3597 13.1603 12.3331 13.2018 12.3154 13.2473C12.2977 13.2928 12.2892 13.3413 12.2904 13.39C12.2916 13.4387 12.3025 13.4867 12.3225 13.5313C12.3425 13.5758 12.3712 13.6159 12.4068 13.6494L12.413 13.6551L13.3404 14.4865C13.5213 14.6392 13.72 14.7696 13.9322 14.875L15.0894 15.4225C15.186 15.4614 15.291 15.4752 15.3944 15.4626C15.4979 15.4499 15.5964 15.4113 15.6807 15.3504L16.0065 15.0858C16.2568 14.8828 16.4474 14.6164 16.5583 14.3147L16.6263 14.1293C16.6926 13.9145 16.6869 13.6842 16.6102 13.473L16.2696 12.6736C16.2329 12.575 16.2233 12.4685 16.2418 12.365C16.2603 12.2616 16.3062 12.1649 16.3747 12.0849L18.4461 9.89256L18.9121 9.35933C18.9369 9.30275 18.9582 9.24466 18.9756 9.18542V9.18624Z" fill="white"/>
<defs>
<linearGradient id="paint0_linear" x1="2.99878" y1="12.4727" x2="21.0147" y2="12.4727" gradientUnits="userSpaceOnUse">
<stop stop-color="#F1562B"/>
<stop offset="0.3" stop-color="#F1542B"/>
<stop offset="0.41" stop-color="#F04D2A"/>
<stop offset="0.49" stop-color="#EF4229"/>
<stop offset="0.5" stop-color="#EF4029"/>
<stop offset="0.56" stop-color="#E83E28"/>
<stop offset="0.67" stop-color="#E13C26"/>
<stop offset="1" stop-color="#DF3C26"/>
</linearGradient>
</defs>
</svg>
