<?xml version="1.0" encoding="utf-8"?>
<!-- Generator: Adobe Illustrator 22.1.0, SVG Export Plug-In . SVG Version: 6.00 Build 0)  -->
<svg version="1.1" id="Layer_1" xmlns="http://www.w3.org/2000/svg" xmlns:xlink="http://www.w3.org/1999/xlink" x="0px" y="0px"
	 viewBox="0 0 100 100" style="enable-background:new 0 0 100 100;" xml:space="preserve">
<style type="text/css">
	.st0{fill:#20C4CB;}
	.st1{fill:#FFFFFF;}
</style>
<g>
	<circle class="st0" cx="50" cy="51" r="49"/>
	<path class="st1" d="M62.7,59.2c-2,2.2-4.8,3.3-6.1,3.3c-1.5,0-2.3-0.9-2.5-2.3c-0.1-0.5,0-1.1,0.1-1.6c0.5-3.1,1.6-5.1,1.6-5.6
		c0-0.2-0.1-0.3-0.2-0.3c-1,0-4.4,3.5-4.9,5.8l-0.4,1.9c-0.3,1.3-1.5,2.1-2.4,2.1c-0.4,0-0.7-0.2-0.8-0.7c0-0.2,0-0.4,0-0.6l0.2-1
		c-1.8,1.4-3.8,2.3-4.7,2.3c-1.3,0-2-0.7-2.2-1.7c-0.8,1.1-1.9,1.7-3.1,1.7c-1.5,0-2.9-1-3.6-2.5c-1,1.1-2.2,2.2-3.6,3.1
		c-2.1,1.3-4.4,2.4-7.1,2.4c-2.5,0-4.7-1.3-5.8-2.4c-1.8-1.6-2.7-4.1-3-6.3c-0.9-7,3.4-16.3,10.1-20.3c1.5-0.9,3.2-1.4,4.8-1.4
		c3.2,0,5.6,2.3,5.9,5c0.3,2.5-0.7,4.6-3.4,5.9c-1.4,0.7-2.1,0.7-2.3,0.3c-0.1-0.2-0.1-0.6,0.2-0.8c2.6-2.1,2.6-3.9,2.3-6.4
		c-0.2-1.6-1.2-2.6-2.4-2.6C24.2,36.5,17,47.8,18,56c0.4,3.2,2.4,6.9,6.4,6.9c1.3,0,2.8-0.4,4-1c2.2-1.1,3.5-2,4.7-3.5
		c-0.3-3.8,3-8.6,7.8-8.6c2.1,0,3.8,0.8,4,2.5c0.3,2.1-1.5,2.5-2.2,2.5c-0.6,0-1.5-0.2-1.6-0.7c-0.1-0.6,1.3-0.3,1.1-1.6
		c-0.1-0.8-1-1.1-1.8-1.1c-3,0-4.7,4.2-4.4,6.8c0.1,1.2,0.8,2.4,1.8,2.4c0.9,0,2.2-1.3,2.6-3.1c0.3-1.3,1.5-2.1,2.4-2.1
		c0.5,0,0.8,0.2,0.8,0.7c0,0.2,0,0.4,0,0.6c-0.1,0.5-0.5,2.4-0.5,2.7c0,0.3,0.2,0.8,0.8,0.8c0.5,0,2.1-0.9,3.7-2.3
		c0.5-2.5,1.1-5.6,1.1-5.8c0.2-1,0.6-2.1,2.6-2.1c0.4,0,0.7,0.2,0.8,0.7c0,0.2,0,0.4,0,0.6L51.6,54c1.8-2.4,4.6-4.2,6.3-4.2
		c0.7,0,1.3,0.4,1.4,1.1c0.1,0.4-0.1,1.1-0.3,1.9c-0.6,1.6-1.3,4.1-1.7,6.2c-0.1,0.5,0.1,1.1,0.9,1.1c0.7,0,2.8-0.8,4.5-3.1
		c0-0.3,0-0.6,0-1c0-1.8,0.1-3.2,0.5-4.3c0.3-1.1,1.7-2.1,2.6-2.1c0.5,0,0.8,0.3,0.8,0.8c0,0.2,0,0.4-0.1,0.6c-0.6,1.9-1,3.6-1,5.3
		c0,1,0.2,2.5,0.4,3.3c0,0.2,0.1,0.3,0.3,0.3c0.3,0,2.3-1.9,3.7-4.3c-1.3-0.8-2-2.3-2-4.1c0-3,1.8-4.6,3.6-4.6c1.4,0,2.6,1,2.6,3
		c0,1.3-0.5,2.7-1.2,4.1c0,0,0.3,0,0.4,0c1.1,0,1.9-0.5,2.4-1.1c0.2-0.2,0.4-0.4,0.6-0.5c1.4-1.7,3.5-2.9,5.9-2.9
		c2.1,0,3.8,0.8,4,2.5c0.3,2.1-1.6,2.6-2.2,2.6c-0.6,0-1.6-0.2-1.6-0.7c-0.1-0.5,1.3-0.3,1.2-1.6c-0.1-0.8-1-1.2-1.8-1.2
		c-2.8,0-4.7,3.7-4.4,6.8c0.1,1.2,0.7,2.4,1.8,2.4c0.9,0,2.2-1.3,2.7-3.1c0.3-1.2,1.5-2.1,2.4-2.1c0.4,0,0.8,0.2,0.8,0.7
		c0,0.3-0.1,0.8-0.5,2.8c-0.2,0.8-0.2,1.6-0.2,2.1c0.2,1.2,0.7,2,1.2,2.5c0.2,0.2,0.3,0.4,0.3,0.5c0,0.3-0.2,0.6-0.6,0.6
		c-0.1,0-0.3,0-0.4-0.1c-2.2-0.9-3.1-2.4-3.3-3.7c-0.8,1.1-1.9,1.6-3.1,1.6c-1.9,0-3.8-1.7-4.1-3.9c-0.1-0.9,0-1.9,0.3-2.8
		c-0.8,0.5-1.6,0.8-2.4,0.8c-0.3,0-0.5,0-0.7,0c-1.9,2.7-3.9,4.6-5.4,5.5c-0.6,0.3-1.2,0.5-1.6,0.5c-0.3,0-0.7-0.1-0.9-0.4
		C63.1,61.4,62.8,60.4,62.7,59.2L62.7,59.2z M69.5,50.2c0,1.2,0.6,2.4,1.3,3.2c0.3-0.8,0.5-1.6,0.5-2.4c0-1.5-0.6-2.2-1-2.2
		C69.7,48.8,69.5,49.6,69.5,50.2z"/>
</g>
</svg>
