<svg width="24" height="24" viewBox="0 0 24 24" fill="none" xmlns="http://www.w3.org/2000/svg">
<path d="M22 12C22 17.522 17.522 22 12 22C6.478 22 2 17.522 2 12C2 6.478 6.478 2 12 2C17.522 2 22 6.478 22 12Z" fill="#4CAF50"/>
<path d="M11.9999 2V12L15.9999 14L11.5784 22C11.7369 22 11.8414 22 11.9999 22C17.5264 22 21.9999 17.5265 21.9999 12C21.9999 6.4735 17.5264 2 11.9999 2Z" fill="#FFC107"/>
<path d="M22 12C22 17.522 17.522 22 12 22C6.478 22 2 17.522 2 12C2 6.478 6.478 2 12 2C17.522 2 22 6.478 22 12Z" fill="#0F9D58"/>
<path d="M11.9999 2V12L15.9999 14L11.5784 22C11.7369 22 11.8414 22 11.9999 22C17.5264 22 21.9999 17.5265 21.9999 12C21.9999 6.4735 17.5264 2 11.9999 2Z" fill="#FFBA00"/>
<path d="M20.9201 7.5H12.0001V14L10.5001 13.5L3.58007 6.63H3.57007C5.34007 3.845 8.45507 2 12.0001 2C15.9001 2 19.2751 4.24 20.9201 7.5Z" fill="#DB4437"/>
<path d="M11.5784 22L16.0454 13.9705L13.9999 12.5L11.5784 22Z" fill="#558B2F"/>
<path d="M20.9325 7.5H11.9999L11.2104 9.79L20.9325 7.5Z" fill="#F9A825"/>
<path d="M3.5791 6.63196L8.0006 14.063L10.5001 13.5L3.5791 6.63196Z" fill="#DD2C00"/>
<path d="M16.5 12C16.5 14.4845 14.4845 16.5 12 16.5C9.5155 16.5 7.5 14.4845 7.5 12C7.5 9.5155 9.5155 7.5 12 7.5C14.4845 7.5 16.5 9.5155 16.5 12Z" fill="white"/>
<path d="M15.5 12C15.5 13.9335 13.9335 15.5 12 15.5C10.0665 15.5 8.5 13.9335 8.5 12C8.5 10.0665 10.0665 8.5 12 8.5C13.9335 8.5 15.5 10.0665 15.5 12Z" fill="#2196F3"/>
</svg>
