<svg width="24" height="24" viewBox="0 0 24 24" fill="none" xmlns="http://www.w3.org/2000/svg">
<path fill-rule="evenodd" clip-rule="evenodd" d="M22 2.113C18.8104 2.27186 15.8076 2.67622 12.9484 3.87489C11.7128 4.38035 10.5922 5.05911 9.6008 5.98339C8.58071 6.93654 8.30772 8.10633 8.65254 9.42053C9.08357 11.1535 10.1755 12.4533 11.5548 13.5075C12.7904 14.4463 13.5519 15.6305 13.595 17.2191C13.6381 18.981 12.9053 20.3674 11.4255 21.2772C9.91689 22.2159 8.33646 22.2304 6.79913 21.3783C3.63827 19.602 1.97163 16.8725 2.00037 13.2043C2.0291 10.6481 3.07793 8.52514 4.91698 6.77768C7.40257 4.40924 10.4341 3.19613 13.7243 2.54625C16.2242 2.05523 18.7386 1.9397 21.2816 2.02635C21.3678 2.02635 21.454 2.04079 21.5546 2.04079C21.6552 2.04079 21.7701 2.06967 22 2.113Z" fill="#1C71B1"/>
<path fill-rule="evenodd" clip-rule="evenodd" d="M14.7013 21.3494C16.6696 19.7897 17.3162 17.7245 17.0001 15.2983C16.8851 14.4607 16.4541 13.7531 15.9513 13.1032C15.4053 12.3955 14.7875 11.7457 14.1841 11.0813C13.9254 10.8069 13.6956 10.5181 13.4944 10.2004C12.9341 9.26167 12.9772 8.38072 13.6381 7.52866C14.1553 6.84989 14.8593 6.4022 15.6064 6.01227C15.8363 5.89674 15.9656 6.02671 16.1237 6.14225C18.092 7.6153 19.3133 9.5505 19.6868 11.9912C20.2759 15.7316 18.5087 19.3709 15.2616 21.205C15.0892 21.3061 14.9312 21.4361 14.7013 21.3494Z" fill="#1C71B1"/>
</svg>
