<svg width="107" height="160" viewBox="0 0 107 160" fill="none" xmlns="http://www.w3.org/2000/svg">
<g clip-path="url(#clip0)">
<path d="M26.7341 160C41.4856 160 53.4578 148.053 53.4578 133.333V106.667H26.7341C11.9827 106.667 0.010498 118.613 0.010498 133.333C0.010498 148.053 11.9827 160 26.7341 160Z" fill="#0ACF83"/>
<path d="M0.010498 79.9999C0.010498 65.2799 11.9827 53.3333 26.7341 53.3333H53.4578V106.667H26.7341C11.9827 106.667 0.010498 94.7199 0.010498 79.9999Z" fill="#A259FF"/>
<path d="M0.0112305 26.6667C0.0112305 11.9467 11.9834 0 26.7349 0H53.4585V53.3333H26.7349C11.9834 53.3333 0.0112305 41.3867 0.0112305 26.6667Z" fill="#F24E1E"/>
<path d="M53.458 0H80.1816C94.9331 0 106.905 11.9467 106.905 26.6667C106.905 41.3867 94.9331 53.3333 80.1816 53.3333H53.458V0Z" fill="#FF7262"/>
<path d="M106.905 79.9999C106.905 94.7199 94.9331 106.667 80.1816 106.667C65.4302 106.667 53.458 94.7199 53.458 79.9999C53.458 65.2799 65.4302 53.3333 80.1816 53.3333C94.9331 53.3333 106.905 65.2799 106.905 79.9999Z" fill="#1ABCFE"/>
</g>
<defs>
<clipPath id="clip0">
<rect width="106.916" height="160" fill="white"/>
</clipPath>
</defs>
</svg>
