<svg width="163" height="163" viewBox="0 0 163 163" fill="none" xmlns="http://www.w3.org/2000/svg">
<path d="M38.6169 38.617H124.415V124.415H38.6169V38.617" fill="white"/>
<path d="M124.383 163L163 124.383H124.383V163Z" fill="#EB3131"/>
<path d="M124.383 38.617H163V124.415H124.383V38.617" fill="#F6B60B"/>
<path d="M38.6169 124.383H124.415V163H38.6169V124.383Z" fill="#3BAD49"/>
<path d="M0 124.383V150.106C0 157.238 5.76231 163 12.8617 163H38.585V124.383H0Z" fill="#298039"/>
<path d="M163 38.617V12.8617C163 5.76237 157.237 4.31414e-06 150.138 4.31414e-06H124.415V38.617H163Z" fill="#4061B6"/>
<path d="M124.383 -5.62932e-07H12.8617C5.76231 -5.62932e-07 0 5.76237 0 12.8617V124.383H38.617V38.617H124.415V-5.62932e-07H124.383Z" fill="#5778C5"/>
<path d="M101.907 68.2243L93.7252 74.1458L89.6502 67.9377L104.295 57.3685H109.93V107.255H101.907V68.2243ZM56.1905 105.154C52.9752 102.989 50.7786 99.8375 49.5369 95.635L56.9866 92.5788C57.6549 95.1578 58.8331 97.1314 60.5205 98.5641C62.2075 99.965 64.245 100.665 66.601 100.665C69.0206 100.665 71.1217 99.933 72.8726 98.4367C74.6235 96.9403 75.5151 95.0622 75.5151 92.7698C75.5151 90.4458 74.5919 88.5357 72.7455 87.0394C70.8987 85.575 68.5749 84.8109 65.8049 84.8109H61.5073V77.4569H65.3593C67.7472 77.4569 69.7528 76.8203 71.3763 75.515C73.0001 74.2413 73.8278 72.4587 73.8278 70.2302C73.8278 68.2243 73.0956 66.6328 71.6312 65.4546C70.1665 64.2768 68.32 63.672 66.0915 63.672C63.8949 63.672 62.1759 64.2448 60.8706 65.423C59.5972 66.6008 58.6101 68.0652 58.0689 69.7206L50.7147 66.6644C51.7018 63.8947 53.4847 61.4435 56.095 59.3421C58.7376 57.241 62.0804 56.1587 66.1554 56.1587C69.1797 56.1587 71.8858 56.7315 74.2734 57.9097C76.661 59.0875 78.5714 60.711 79.9403 62.7485C81.3091 64.8179 81.9778 67.142 81.9778 69.7206C81.9778 72.3632 81.3411 74.5598 80.0674 76.4062C78.7941 78.2208 77.2342 79.6216 75.3877 80.6087V81.0544C77.7753 82.0412 79.8448 83.665 81.3727 85.7341C82.933 87.8355 83.6968 90.3186 83.6968 93.2474C83.6968 96.1765 82.9646 98.7552 81.4682 101.047C80.0038 103.339 77.9347 105.122 75.3557 106.428C72.7455 107.733 69.8163 108.402 66.5691 108.402C62.8761 108.402 59.4062 107.319 56.1905 105.154" fill="#5778C5"/>
</svg>
