<svg width="172" height="167" viewBox="0 0 172 167" fill="none" xmlns="http://www.w3.org/2000/svg">
<path fill-rule="evenodd" clip-rule="evenodd" d="M0 85.614C0 38.3298 38.3369 -1.57881e-05 85.614 -1.57881e-05C132.895 -1.57881e-05 171.227 38.3298 171.227 85.614C171.227 123.428 146.727 155.508 112.728 166.842C108.388 167.682 106.847 165.013 106.847 162.734C106.847 161.799 106.858 160.16 106.873 157.97V157.969V157.969V157.969V157.968V157.966C106.902 153.551 106.947 146.894 106.947 139.24C106.947 131.252 104.21 126.042 101.14 123.385C120.204 121.266 140.232 114.025 140.232 81.1424C140.232 71.7953 136.91 64.158 131.421 58.1624C132.31 56.0047 135.242 47.2984 130.582 35.5057C130.582 35.5057 123.402 33.2047 107.061 44.2814C100.22 42.3845 92.8898 41.4332 85.614 41.4006C78.3382 41.4332 71.0142 42.3845 64.185 44.2814C47.8244 33.2047 40.6351 35.5057 40.6351 35.5057C35.9863 47.2984 38.9167 56.0047 39.8057 58.1624C34.329 64.158 30.9845 71.7953 30.9845 81.1424C30.9845 113.947 50.9745 121.288 69.9906 123.453C67.5422 125.59 65.3234 129.368 64.555 134.901C59.6695 137.089 47.2771 140.873 39.6412 127.786C39.6412 127.786 35.1144 119.564 26.5173 118.962C26.5173 118.962 18.164 118.853 25.9318 124.166C25.9318 124.166 31.5431 126.798 35.4376 136.693C35.4376 136.693 40.4635 151.974 64.2814 146.795C64.3014 150.683 64.334 154.449 64.3596 157.406L64.3597 157.414L64.3597 157.421L64.3598 157.429L64.3599 157.436L64.3599 157.442C64.3812 159.909 64.3976 161.807 64.3976 162.734C64.3976 164.996 62.8268 167.645 58.5481 166.853C24.531 155.532 0 123.44 0 85.614ZM30.9177 123.089C31.5273 123.381 32.1965 123.255 32.3851 122.828C32.6005 122.401 32.2461 121.816 31.6237 121.535C31.0042 121.244 30.3336 121.366 30.1493 121.803C29.948 122.23 30.2968 122.81 30.9177 123.089ZM35.8528 126.696C35.4445 127.074 34.6463 126.898 34.1048 126.3C33.5448 125.703 33.4398 124.905 33.8538 124.521C34.2749 124.144 35.049 124.321 35.6104 124.916C36.1704 125.52 36.2795 126.313 35.8528 126.696ZM37.3162 130.888C37.8464 131.649 38.7042 131.991 39.2287 131.626C39.7646 131.254 39.7646 130.341 39.2415 129.566C38.7042 128.812 37.8592 128.482 37.3276 128.848C36.7917 129.213 36.7916 130.126 37.3162 130.888ZM43.8531 136.39C43.3839 136.907 42.3843 136.769 41.6528 136.063C40.9042 135.372 40.6958 134.392 41.1665 133.875C41.6415 133.356 42.6466 133.502 43.3838 134.202C44.1267 134.891 44.3536 135.878 43.8531 136.39ZM48.0936 139.846C49.0633 140.131 50.026 139.827 50.233 139.156C50.4343 138.474 49.7991 137.694 48.8322 137.402C47.8554 137.097 46.8885 137.415 46.6872 138.09C46.4916 138.768 47.1253 139.553 48.0936 139.846ZM57.2396 139.669C57.2637 140.375 56.4414 140.961 55.4235 140.974C54.3999 140.996 53.5719 140.425 53.5606 139.73C53.5606 139.017 54.3644 138.437 55.388 138.42C56.4059 138.4 57.2396 138.967 57.2396 139.669ZM62.1635 140.144C63.1743 139.956 63.8818 139.248 63.7599 138.559C63.6308 137.859 62.7249 137.445 61.7127 137.621C60.7202 137.804 60 138.511 60.1234 139.217C60.2496 139.9 61.1697 140.326 62.1635 140.144Z" fill="black"/>
</svg>
