<svg width="187" height="141" viewBox="0 0 187 141" fill="none" xmlns="http://www.w3.org/2000/svg">
<path d="M12.7286 140.005H42.4277V67.8779L0 36.0589V127.279C0.00237455 134.307 5.70086 140.005 12.7286 140.005Z" fill="#4F7BC7"/>
<path d="M144.252 140.005H173.953C180.983 140.005 186.682 134.307 186.682 127.277V36.0566L144.252 67.8779V140.005Z" fill="#3FB24E"/>
<path d="M144.252 12.7286V67.8779L186.68 36.0589V19.0928C186.68 8.55019 178.132 0.00256983 167.587 0.00256983C163.455 0.00256983 159.438 1.34334 156.133 3.82199L144.252 12.7286" fill="#F9AE14"/>
<path d="M42.4299 67.8779V12.7286L93.3396 50.9095L144.249 12.7264V67.8779L93.3396 106.059L42.4299 67.8779Z" fill="#EF2E31"/>
<path d="M0.00244141 19.0909V36.0566L42.4301 67.8779V12.7286L30.5491 3.81971C22.1147 -2.50686 10.1484 -0.797561 3.82192 7.63684C1.34095 10.9418 0.00244141 14.9619 0.00244141 19.0909Z" fill="#C12229"/>
</svg>
