<svg width="136" height="195" viewBox="0 0 136 195" fill="none" xmlns="http://www.w3.org/2000/svg">
<path d="M135.1 120.4V2.7H103.2V10.6C92.5 3.70001 79.9 0 67.2 0C30.2 0 0 30.2 0 67.5C0 104.7 30.2 135 67.2 135C79.8 135 92.2 131.5 102.9 124.7C102.9 125.7 102.9 126.6 102.9 127.3C102.9 146.9 87 162.8 67.5 162.8C60.9 162.8 54.4 160.9 48.8 157.4L33 185.2C43.4 191.5 55.4 194.9 67.6 194.9C104.7 194.9 135.3 164.6 135.3 127.4C135.1 126 135.2 121.8 135.1 120.4ZM67.1 103.1C47.6 103.1 31.7 87.2 31.7 67.6C31.7 48 47.6 32.1 67.1 32.1C86.6 32.1 102.5 48 102.5 67.6C102.5 87.2 86.6 103.1 67.1 103.1Z" fill="#F45D48"/>
</svg>
