<svg width="136" height="134" viewBox="0 0 136 134" fill="none" xmlns="http://www.w3.org/2000/svg">
<path d="M82.3 26.2C82.1 32.5 77.7 41.5 70.1 41.5C65.5 41.5 61.6 37.7 61.6 33.1V33C61.4 25.6 58.1 19.1 52.8 14.6C48.8 11.3 43.8 9.10003 38.4 8.50003C43 3.80003 49.6 0.900024 56.8 0.900024C65.9 0.900024 74.2 6.10003 79 13.7C81.4 17.4 82.5 21.9 82.3 26.2ZM52.6 26.8C56.6 31.8 59 41.5 53.2 46.2C49.5 49.2 44.2 48.7 41.2 45.3C36.2 39.8 29.4 36.9 22.5 36.8C17.2 36.6 11.9 38.2 7.50002 41.2C8.00002 34.7 11 28.3 16.6 23.7C23.8 17.9 33.9 16.1 42.5 19.6C46.5 21 50 23.5 52.6 26.8ZM30.2 46.1C36.4 47.4 44.8 53.4 43.5 60.6C42.7 65.2 38.2 68.2 33.6 67.4H33.4C26 66.3 18.8 68.5 13.6 72.8C9.60002 76 6.40002 80.5 5.00002 85.7C1.20002 80.3 -0.599977 73.6 0.500023 66.5C2.30002 57.5 8.80003 49.9 17.8 46.9C21.7 45.6 26.2 45.3 30.2 46.1ZM25.6 75.1C31.2 72.1 41.4 71.5 45.1 77.8C47.5 81.7 46.1 86.9 42.1 89.3C35.7 93.1 31.7 99.2 30.3 106C29.3 111 29.8 116.4 32.2 121.3C25.8 119.7 19.9 115.6 16.4 109.5C11.8 101.5 11.9 91.5 16.7 83.6C18.8 80 21.9 77 25.6 75.1ZM40.9 100.1C43.3 94.3 50.7 87.3 57.5 89.8C62 91.4 64.2 96.3 62.6 100.5C60.2 107.4 61.2 114.7 64.5 120.7C67.1 125.3 70.9 128.9 75.9 131.3C69.8 134.1 62.8 134.8 56.1 132.2C47.3 129 40.9 121.3 39.5 112.2C39 108.2 39.5 103.9 40.9 100.1ZM69.1 109.6C67 103.6 68.1 93.7 75.2 91.2C79.7 89.6 84.5 91.8 86.1 96.2C88.8 103 94.3 108 100.8 110.6C105.6 112.5 111.2 112.8 116.5 111.5C113.8 117.5 108.7 122.4 101.9 124.9C93.1 128.1 83 126.2 76.2 120C72.9 117 70.3 113.5 69.1 109.6ZM96.9 99C91.5 95.7 85.7 87.3 89.5 81C91.9 77.1 97 75.6 101.2 77.8C107.8 81.3 115.1 81.7 121.8 79.5C126.8 77.8 131.2 74.6 134.4 70.2C136.2 76.5 135.5 83.4 131.8 89.6C127.2 97.6 118.2 102.5 108.9 102.2C104.6 102.4 100.2 101.2 96.9 99ZM111.3 73.3C104.9 74.2 95.1 71.4 93.9 64.2C92.9 59.8 96.1 55.4 100.8 54.6H101C108.4 53.2 114.3 48.8 117.8 42.9C120.5 38.5 121.8 33.3 121.3 27.9C126.7 31.5 130.9 37.4 132 44.3C133.6 53.3 129.9 62.7 122.7 68.4C119.3 71 115.3 72.9 111.3 73.3ZM105.5 44.6C101.2 49.3 91.9 53.4 86.2 48.7C82.5 45.7 82 40.5 85.1 36.9C89.7 31.2 91.5 24 90.4 17.2C89.6 12.2 87.2 7.30003 83.4 3.30003C90 2.70003 96.8 4.60004 102.4 9.10004C109.6 14.9 113 24.6 111 33.5C110.2 37.7 108.2 41.6 105.5 44.6Z" fill="#175FFF"/>
</svg>
