<svg width="24" height="24" viewBox="0 0 24 24" fill="none" xmlns="http://www.w3.org/2000/svg">
<path d="M14.2806 15.1767C14.5131 15.2743 14.7614 15.3209 15.011 15.3137L15.0128 15.3127C16.0184 15.2738 16.8147 14.3861 16.8143 13.3049C16.8137 12.2236 16.0166 11.3369 15.011 11.2991C14.7614 11.2919 14.5131 11.3385 14.2806 11.4361C14.0481 11.5337 13.8361 11.6804 13.6573 11.8675C13.4784 12.0546 13.3362 12.2784 13.2391 12.5255C13.1421 12.7726 13.092 13.0382 13.092 13.3064C13.092 13.5746 13.1421 13.8402 13.2391 14.0873C13.3362 14.3344 13.4784 14.5582 13.6573 14.7453C13.8361 14.9324 14.0481 15.0791 14.2806 15.1767Z" fill="#FF7A59"/>
<path fill-rule="evenodd" clip-rule="evenodd" d="M3.66667 2C2.74619 2 2 2.74619 2 3.66667V20.3333C2 21.2538 2.74619 22 3.66667 22H20.3333C21.2538 22 22 21.2538 22 20.3333V3.66667C22 2.74619 21.2538 2 20.3333 2H3.66667ZM15.5708 7.65274V9.4389C17.0767 9.68456 18.2813 10.9111 18.5906 12.5137C18.8999 14.1163 18.2485 15.7565 16.9577 16.6253C15.6669 17.4941 14.0093 17.4081 12.8024 16.4097L11.4517 17.8617C11.4871 17.9802 11.5058 18.1038 11.5074 18.2283C11.5068 18.9309 10.9765 19.5002 10.3226 19.5C9.66882 19.4998 9.13875 18.9303 9.13858 18.2277C9.13841 17.525 9.66814 16.9552 10.322 16.9546C10.4379 16.9563 10.5528 16.9764 10.6633 17.0143L12.0286 15.5467C11.1698 14.2315 11.1477 12.4854 11.973 11.1456L7.48389 7.39188C7.26813 7.52666 7.02323 7.59826 6.77367 7.59952C6.48839 7.59913 6.20963 7.50782 5.97264 7.33716C5.73566 7.16649 5.5511 6.92414 5.44231 6.64075C5.33352 6.35735 5.30539 6.04566 5.36148 5.74508C5.41757 5.44451 5.55535 5.16856 5.7574 4.95214C5.95945 4.73572 6.21669 4.58856 6.49658 4.52927C6.77647 4.46997 7.06644 4.50121 7.32981 4.61903C7.59318 4.73685 7.81812 4.93596 7.97617 5.19117C8.13421 5.44638 8.21828 5.74623 8.21772 6.05279C8.2158 6.18294 8.19885 6.31262 8.16634 6.43871L12.7251 10.2544C13.2228 9.82416 13.8173 9.54285 14.4487 9.43896V7.65274C14.229 7.54241 14.043 7.36732 13.9124 7.14783C13.7817 6.92834 13.7117 6.67348 13.7106 6.41293V6.37194C13.7106 5.61226 14.2837 4.99641 14.9907 4.99641H15.0289C15.7358 4.99641 16.3089 5.61226 16.3089 6.37194V6.41293C16.3078 6.67348 16.2378 6.92834 16.1071 7.14783C15.9765 7.36732 15.7905 7.54241 15.5708 7.65274Z" fill="#FF7A59"/>
</svg>
