<svg width="122" height="121" viewBox="0 0 122 121" fill="none" xmlns="http://www.w3.org/2000/svg">
<path d="M104.823 66.4349C104.823 67.5111 104.398 68.5432 103.643 69.3043C102.888 70.0653 101.864 70.4928 100.796 70.4928C99.7282 70.4928 98.704 70.0653 97.949 69.3043C97.1939 68.5432 96.7695 67.5111 96.7695 66.4349V30.1827C96.7695 29.1064 97.1939 28.0743 97.949 27.3133C98.704 26.5524 99.7282 26.1247 100.796 26.1247C101.864 26.1247 102.888 26.5524 103.643 27.3133C104.398 28.0743 104.823 29.1064 104.823 30.1827V66.4349ZM103.425 91.5533C102.893 92.0899 87.9179 104.666 60.4644 104.666C33.0108 104.666 18.1361 92.157 17.5038 91.6204C17.1053 91.2818 16.7772 90.8673 16.538 90.4006C16.2989 89.934 16.1535 89.4242 16.1102 88.9008C16.0668 88.3775 16.1266 87.8505 16.2858 87.3505C16.445 86.8503 16.7005 86.3867 17.0379 85.9864C17.7328 85.176 18.7176 84.6753 19.7773 84.5937C20.8371 84.512 21.8858 84.8559 22.695 85.5503C22.9279 85.7181 36.3052 96.6508 60.4311 96.6508C84.5569 96.6508 98.0341 85.651 98.1672 85.5503C98.9854 84.8622 100.038 84.5228 101.1 84.6041C102.163 84.6856 103.152 85.1815 103.858 85.9864C104.536 86.7847 104.875 87.8207 104.801 88.8694C104.726 89.9179 104.243 90.8946 103.458 91.5869L103.425 91.5533ZM16.0728 30.1827C16.1331 29.103 16.6149 28.0913 17.413 27.3687C18.2112 26.646 19.2607 26.2712 20.3323 26.326C21.3257 26.3828 22.2631 26.8084 22.9637 27.5206C23.6641 28.2328 24.0782 29.181 24.1259 30.1827V66.3678C24.1259 67.444 23.7017 68.4762 22.9466 69.2372C22.1914 69.9982 21.1673 70.4257 20.0994 70.4257C19.0315 70.4257 18.0073 69.9982 17.2522 69.2372C16.4971 68.4762 16.0728 67.444 16.0728 66.3678V30.1827ZM36.2721 22.1341C36.3322 21.0544 36.814 20.0428 37.6121 19.32C38.4103 18.5974 39.4598 18.2226 40.5314 18.2774C41.525 18.3342 42.4622 18.7599 43.1628 19.4719C43.8632 20.184 44.2773 21.1324 44.325 22.1341V75.7914C44.325 76.8676 43.9008 77.8997 43.1457 78.6608C42.3905 79.4218 41.3665 79.8493 40.2985 79.8493C39.2306 79.8493 38.2064 79.4218 37.4513 78.6608C36.6962 77.8997 36.2721 76.8676 36.2721 75.7914V22.1341ZM56.5709 20.1219C56.5709 19.0457 56.9952 18.0136 57.7503 17.2525C58.5054 16.4915 59.5296 16.064 60.5975 16.064C61.6654 16.064 62.6895 16.4915 63.4447 17.2525C64.1998 18.0136 64.6239 19.0457 64.6239 20.1219V78.4743C64.6239 79.5505 64.1998 80.5826 63.4447 81.3437C62.6895 82.1047 61.6654 82.5322 60.5975 82.5322C59.5296 82.5322 58.5054 82.1047 57.7503 81.3437C56.9952 80.5826 56.5709 79.5505 56.5709 78.4743V20.1219ZM76.5372 22.1341C76.5372 21.0579 76.9613 20.0257 77.7165 19.2647C78.4716 18.5036 79.4958 18.0762 80.5638 18.0762C81.6315 18.0762 82.6557 18.5036 83.4108 19.2647C84.166 20.0257 84.5902 21.0579 84.5902 22.1341V75.7914C84.5902 76.8676 84.166 77.8997 83.4108 78.6608C82.6557 79.4218 81.6315 79.8493 80.5638 79.8493C79.4958 79.8493 78.4716 79.4218 77.7165 78.6608C76.9613 77.8997 76.5372 76.8676 76.5372 75.7914V22.1341ZM105.921 0.000334835H15.1412C13.1632 -0.0129149 11.2019 0.367189 9.36974 1.11878C7.53779 1.87054 5.87081 2.97888 4.46434 4.38071C3.05788 5.78254 1.9396 7.45002 1.1736 9.28793C0.407595 11.1258 0.00877798 13.0981 0 15.0915V105.638C0.00877798 107.632 0.407595 109.604 1.1736 111.442C1.9396 113.28 3.05788 114.947 4.46434 116.349C5.87081 117.751 7.53779 118.859 9.36974 119.611C11.2019 120.363 13.1632 120.743 15.1412 120.729H105.921C107.896 120.743 109.855 120.364 111.684 119.614C113.514 118.865 115.18 117.759 116.586 116.361C117.992 114.963 119.111 113.299 119.879 111.465C120.647 109.631 121.049 107.663 121.062 105.672V15.0915C121.053 13.1009 120.655 11.1315 119.891 9.29571C119.127 7.46012 118.012 5.79396 116.609 4.39264C115.206 2.99131 113.543 1.88213 111.715 1.12855C109.887 0.374807 107.929 -0.00844314 105.954 0.000334835" fill="black"/>
</svg>
