<svg width="24" height="24" viewBox="0 0 24 24" fill="none" xmlns="http://www.w3.org/2000/svg">
<path fill-rule="evenodd" clip-rule="evenodd" d="M3.66699 1.99847H20.334C21.2544 1.99847 22.0005 2.74459 22.0005 3.66497V20.332C22.0005 21.2524 21.2544 21.9985 20.334 21.9985H3.66699C2.74661 21.9985 2.00049 21.2524 2.00049 20.332V3.66498C2.00049 2.74459 2.74661 1.99847 3.66699 1.99847ZM12.1161 8.9858L17.7635 7.18597L16.3117 10.3757L18.1815 12.2035L11.2762 14.4093V12.6354L6.0267 14.3113V9.14778L12.1161 7.20397V8.9858ZM6.86462 13.1594L11.2762 11.7515V8.35786L6.86462 9.76372V13.1594ZM12.1141 13.2574L16.6176 11.8215L15.3138 10.5456L16.2637 8.53984L12.1141 9.86771V13.2574ZM5.82471 15.9151C5.82471 15.4191 6.22867 15.0172 6.72262 15.0172C7.21857 15.0172 7.62053 15.4191 7.62053 15.9151C7.62053 16.411 7.21857 16.813 6.72262 16.813C6.22667 16.813 5.82471 16.409 5.82471 15.9151Z" fill="#6515DD"/>
</svg>
