<svg width="152" height="162" viewBox="0 0 152 162" fill="none" xmlns="http://www.w3.org/2000/svg">
<path d="M114.5 76.5001C115.6 76.5001 116.7 76.5001 117.8 76.5001C118.5 75.0001 118.5 72.8001 117.8 70.3001C117.1 66.6001 116 64.1001 113.8 64.4001C111.6 64.8001 111.6 67.7001 112.3 71.4001C112.6 73.6001 113.4 75.4001 114.5 76.5001Z" fill="black"/>
<path d="M95.0998 79.8001C96.5998 80.5001 97.6998 80.9001 97.9998 80.5001C98.3998 80.1001 97.9998 79.8001 97.5998 79.0001C96.8998 77.5001 94.9998 76.4001 93.5998 75.7001C89.8998 74.2001 85.8998 74.6001 82.5998 77.2001C81.4998 77.9001 80.3998 79.0001 80.7998 79.8001C80.7998 80.2001 81.1998 80.2001 81.4998 80.2001C82.1998 80.2001 85.4998 78.7001 89.1998 78.4001C91.3998 78.3001 93.5998 79.1001 95.0998 79.8001Z" fill="black"/>
<path d="M91.7997 81.6001C89.5997 82.0001 88.4997 82.7001 87.7997 83.4001C87.0997 84.1001 86.6997 84.5001 86.6997 84.9001V85.3001H87.0997C87.4997 85.3001 88.5997 84.9001 88.5997 84.9001C91.4997 83.8001 93.3997 83.8001 95.1997 84.2001C96.2997 84.2001 96.6997 84.6001 96.9997 84.2001C96.9997 84.2001 96.9997 83.8001 96.9997 83.5001C96.8997 82.4001 94.6997 81.3001 91.7997 81.6001Z" fill="black"/>
<path d="M92.8998 84.2C93.5998 82.7 93.5998 79.4 92.8998 76.9C92.1998 73.2 91.0998 71 88.4998 71C86.2998 71.4 86.2998 74.3 86.9998 78.3C87.3998 80.9 88.4998 82.3 88.7998 83.4C90.6998 86.4 91.7998 85.6 92.8998 84.2Z" fill="black"/>
<path d="M107.9 88.2001C109.4 88.9001 110.8 88.6 111.6 87.5C112 86.4 111.2 84.9001 109.8 84.2001C108.3 83.5001 106.9 83.8 106.1 84.9C105.3 86 106.4 87.5001 107.9 88.2001Z" fill="black"/>
<path d="M117 80.2001C115.9 80.2001 114.8 81.3001 114.8 83.1001C114.8 84.6001 115.5 86.0001 117 86.0001C118.1 86.0001 119.2 84.9001 119.2 83.1001C118.9 81.6001 118.1 80.2001 117 80.2001Z" fill="black"/>
<path d="M39.4997 108.7C39.0997 108.3 38.7997 108.3 38.3997 108.7C37.9997 108.7 37.6997 108.7 37.2997 108.7C36.5997 108.7 35.7997 108.3 35.4997 107.6C35.1997 106.9 35.0997 105.8 35.4997 104.3L35.8997 103.6C36.9997 101.4 38.4997 98.1 36.5997 94.8C35.0997 92.2 33.2997 90.8 30.6997 90.4C28.0997 90 25.5997 91.1 24.0997 93C21.4997 95.9 21.1997 99.6 21.4997 101C21.4997 101.4 21.8997 101.7 22.1997 101.7C22.5997 101.7 23.2997 101.3 23.6997 100.2V99.8C23.6997 99.1 24.0997 98.3 24.7997 97.2C25.4997 96.1 26.5997 95.4 27.6997 95.4C28.7997 95 30.2997 95.4 31.3997 96.1C33.1997 97.2 33.9997 99.4 33.1997 101.6C32.0997 102.7 31.6997 104.5 31.6997 106.4C32.0997 109.7 34.2997 111.2 36.0997 111.5C37.8997 111.5 39.3997 110.4 39.3997 109.7C39.7997 109.1 39.4997 109.1 39.4997 108.7Z" fill="black"/>
<path d="M145.9 102.5C145.9 102.1 145.5 100.7 144.8 98.5L143.3 95.2C145.9 91.5 145.9 87.9 145.5 86.1C145.1 83.9 144 81.7 142.2 79.5C140.4 77.3 136 75.1 130.5 73.6L127.6 72.9C127.6 72.9 127.6 65.9 127.2 63C127.2 60.8 126.8 57.5 125.7 54.2C124.6 49.8 122.4 45.8 119.5 43.2C126.8 35.5 131.6 26.7 131.6 19.4C131.6 5.50002 114.4 1.10002 92.7999 9.90002L88.3999 11.7C88.3999 11.7 80.3999 3.70002 79.9999 3.70002C56.2999 -17.5 -19.4001 67 4.69994 87.5L9.79994 91.9C8.29994 95.6 7.99994 99.6 8.29994 104C8.99994 109.5 11.9999 115 16.2999 119.4C20.6999 123.4 26.4999 126 32.3999 126C41.8999 148 63.4999 161.1 88.6999 161.9C115.8 162.6 138.8 149.8 148.3 127.1C149 125.6 151.6 118.3 151.6 111.7C152.2 105 148.5 102.5 145.9 102.5ZM34.6999 119.7C33.9999 119.7 32.8999 120.1 32.0999 119.7C24.0999 119.3 14.8999 112 14.1999 103.2C13.4999 93.7 18.1999 86.4 26.9999 84.5C28.0999 84.1 29.1999 84.1 30.6999 84.1C35.4999 84.5 42.7999 88.1 44.5999 98.7C45.9999 108.7 43.8999 118.2 34.6999 119.7ZM25.5999 78.7C20.0999 79.8 15.3999 82.7 12.3999 87.1C10.5999 85.6 7.29994 82.7 6.89994 81.6C2.09994 72.8 11.9999 55.3 18.9999 45.7C35.7999 21.6 62.4999 3.30003 74.5999 6.50003C76.7999 7.20003 83.3999 14.9 83.3999 14.9C83.3999 14.9 70.9999 21.9 59.5999 31.4C44.1999 42.8 32.4999 60 25.5999 78.7ZM111.9 116L112.3 115.6C112.3 115.2 111.9 115.2 111.9 115.2C111.9 115.2 99.0999 117 86.9999 112.6C88.4999 108.2 91.7999 109.7 97.1999 110.4C106.7 111.1 115.5 109.7 121.7 107.8C127.2 106.3 134.5 103 140 98.7C141.8 102.7 142.6 107.5 142.6 107.5C142.6 107.5 144.1 107.1 145.2 107.9C146.3 108.6 147 110.1 146.7 113.8C145.6 121.1 142.3 126.6 137.6 132.1C134.7 135.4 130.6 138.3 126.3 140.5C124.1 141.6 121.5 142.7 119 143.4C99.1999 149.6 79.4999 143 73.2999 128C72.8999 126.9 72.1999 125.8 72.1999 124.3C69.5999 114.4 71.7999 102.7 79.1999 95.4C79.5999 95 79.8999 94.3 79.8999 93.6C79.8999 92.9 79.4999 92.5 79.1999 92.1C76.5999 88.4 67.8999 82.2 69.6999 70.1C70.7999 61.3 78.4999 55.5 85.3999 55.8H87.1999C90.0999 55.8 93.0999 56.5 95.1999 56.5C99.1999 56.5 103.2 56.1 107.6 52.5C109.1 51.4 110.2 50.3 112.4 49.9C112.8 49.9 113.1 49.5 114.2 49.9C115.3 49.9 116.4 50.3 117.1 51C120.8 53.6 121.1 59 121.5 63.4C121.5 66 121.9 71.8 121.9 73.3C122.3 77 123 77.7 125.2 78.4C126.3 78.8 127.4 79.1 128.9 79.5C133.7 81 136.6 82.1 138.4 83.9C139.5 85 139.9 86.1 140.2 87.2C140.9 91.2 136.9 96.3 127 101.1C116 106.2 103.2 107.3 94.0999 106.2L90.7999 105.8C83.4999 104.7 79.4999 114.2 83.7999 120.4C86.6999 124.4 94.3999 127.4 101.7 127.4C119.3 127.4 132.8 120.1 137.6 113.5L138 112.8C138.4 112.4 138 112.1 137.6 112.4C133.6 115.3 115.3 126.3 95.8999 123C95.8999 123 93.6999 122.6 91.4999 121.9C89.6999 121.2 86.3999 119.7 85.5999 116C102 120.8 111.9 116 111.9 116ZM56.9999 45.8C62.8999 38.8 70.4999 32.6 77.0999 29.3C77.4999 29.3 77.4999 29.3 77.4999 29.7C77.0999 30.8 75.9999 32.6 75.6999 34.1C75.6999 34.5 76.0999 34.5 76.0999 34.5C80.0999 31.6 87.3999 28.6 93.6999 28.3C94.0999 28.3 94.0999 28.7 94.0999 28.7C92.9999 29.4 92.2999 30.5 91.1999 31.6C91.1999 31.6 91.1999 32 91.5999 32C95.9999 32 102.2 33.5 106.2 36C106.6 36 106.2 36.7 105.8 36.7C99.5999 35.2 89.6999 34.1 79.0999 36.7C69.5999 38.9 62.5999 42.6 57.4999 46.2C56.9999 46.1 56.6999 46.1 56.9999 45.8Z" fill="black"/>
</svg>
