<svg width="24" height="24" viewBox="0 0 24 24" fill="none" xmlns="http://www.w3.org/2000/svg">
<path fill-rule="evenodd" clip-rule="evenodd" d="M2 2.88889C2 2.39797 2.39797 2 2.88889 2H21.1111C21.602 2 22 2.39797 22 2.88889V21.1111C22 21.602 21.602 22 21.1111 22H2.88889C2.39797 22 2 21.602 2 21.1111V2.88889ZM7.86379 18.5054C8.64768 18.5054 9.28314 17.8699 9.28314 17.086C9.28314 16.3021 8.64768 15.6667 7.86379 15.6667C7.07991 15.6667 6.44444 16.3021 6.44444 17.086C6.44444 17.8699 7.07991 18.5054 7.86379 18.5054ZM13.9913 17.1015C13.9913 17.656 13.5419 18.1054 12.9874 18.1054C12.433 18.1054 11.9835 17.656 11.9835 17.1015C11.9835 16.5471 12.433 16.0976 12.9874 16.0976C13.5419 16.0976 13.9913 16.5471 13.9913 17.1015ZM17.2109 17.5573C17.4626 17.5573 17.6667 17.3532 17.6667 17.1015C17.6667 16.8498 17.4626 16.6457 17.2109 16.6457C16.9592 16.6457 16.7551 16.8498 16.7551 17.1015C16.7551 17.3532 16.9592 17.5573 17.2109 17.5573ZM16.9482 13.2222C16.5354 13.2222 16.2296 12.9037 16.2296 12.5091V9.47427C16.2296 8.42736 15.7251 7.62313 14.5937 7.62313C13.4623 7.62313 12.7743 8.48803 12.7743 9.48957V12.5091C12.7743 12.9037 12.4991 13.2222 12.0557 13.2222C11.6276 13.2222 11.3371 12.9037 11.3371 12.5091V9.47427C11.3371 8.42736 10.7867 7.62313 9.6552 7.62313C8.49327 7.62313 7.88173 8.48803 7.88173 9.48957V12.5091C7.88173 12.9037 7.59128 13.2222 7.16314 13.2222C6.75032 13.2222 6.44444 12.9037 6.44444 12.5091V7.12237C6.44444 6.69757 6.7197 6.39411 7.16304 6.39411C7.6523 6.39411 7.88163 6.72785 7.88163 7.12237V7.60794C8.29446 6.80371 9.13531 6.33333 10.0374 6.33333C11.1382 6.33333 11.9639 6.87958 12.3767 7.6838C12.9729 6.77343 13.8444 6.33333 14.9299 6.33333C16.7799 6.33333 17.6667 7.59285 17.6667 9.36812V12.5088C17.6667 12.9036 17.3763 13.2222 16.9482 13.2222Z" fill="#4F44E0"/>
</svg>
