<svg width="160" height="167" viewBox="0 0 160 167" fill="none" xmlns="http://www.w3.org/2000/svg">
<path fill-rule="evenodd" clip-rule="evenodd" d="M27.5245 29.1721C32.6998 33.3768 34.6412 33.056 44.3597 32.4075L135.979 26.9062C137.922 26.9062 136.306 24.9677 135.658 24.6456L120.442 13.6456C117.526 11.382 113.642 8.78982 106.197 9.43828L17.4826 15.9088C14.2472 16.2296 13.601 17.8474 14.8895 19.144L27.5245 29.1721ZM33.0251 50.5239V146.923C33.0251 152.104 35.6141 154.042 41.4411 153.722L142.13 147.895C147.96 147.575 148.61 144.011 148.61 139.803V44.0504C148.61 39.8486 146.993 37.5828 143.425 37.9062L38.2034 44.0504C34.3201 44.3767 33.0248 46.3192 33.0248 50.5239H33.0251ZM132.425 55.6949C133.071 58.6092 132.425 61.5209 129.505 61.8486L124.654 62.8152V133.983C120.442 136.247 116.558 137.541 113.321 137.541C108.139 137.541 106.841 135.923 102.959 131.073L71.2256 81.255V129.455L81.2674 131.721C81.2674 131.721 81.2674 137.541 73.1657 137.541L50.8312 138.837C50.1824 137.541 50.8312 134.309 53.0967 133.662L58.9251 132.046V68.3162L50.8328 67.6677C50.1837 64.7534 51.8001 60.5513 56.3361 60.2253L80.2959 58.6102L113.321 109.077V64.4326L104.901 63.4663C104.255 59.9035 106.841 57.3166 110.079 56.9958L132.425 55.6949ZM10.034 7.17504L102.312 0.379436C113.643 -0.592441 116.559 0.0586406 123.681 5.23227L153.138 25.9356C157.998 29.4958 159.618 30.4651 159.618 34.346V147.895C159.618 155.012 157.025 159.22 147.962 159.864L40.7998 166.335C33.996 166.66 30.758 165.69 27.1949 161.158L5.50294 133.014C1.61641 127.833 0 123.958 0 119.423V18.4932C0 12.6737 2.5932 7.81925 10.034 7.17504V7.17504Z" fill="black"/>
</svg>
