<svg width="24" height="24" viewBox="0 0 24 24" fill="none" xmlns="http://www.w3.org/2000/svg">
<path fill-rule="evenodd" clip-rule="evenodd" d="M13.4361 17.6827C13.9165 17.887 14.4451 18 15 18C16.8644 18 18.4309 16.7245 18.8744 14.9985C18.9161 14.9995 18.958 15 19 15C21.7614 15 24 12.7614 24 10C24 7.23858 21.7614 5 19 5C18.016 5 17.0983 5.28428 16.3247 5.77519C15.6069 4.70465 14.3857 4 13 4C11.9515 4 10.9972 4.40341 10.2839 5.06347C9.48286 3.82195 8.08742 3 6.5 3C4.01472 3 2 5.01472 2 7.5C2 8.1543 2.13964 8.77599 2.39075 9.33689C0.982971 9.95624 0 11.3633 0 13C0 15.2091 1.79086 17 4 17C4.41666 17 4.81843 16.9363 5.19612 16.8181C5.7596 18.6602 7.47334 20 9.5 20C11.1933 20 12.6681 19.0648 13.4361 17.6827Z" fill="#00A1E0"/>
</svg>
