<svg width="109" height="156" viewBox="0 0 109 156" fill="none" xmlns="http://www.w3.org/2000/svg">
<path d="M85.1 50.6001C83.8 53.6001 81.8 55.9001 79.1 57.6001C76.7 59.1001 74.1 59.9001 71.3 60.0001C70.1 60.0001 69.1 59.1001 69.1 57.9001C69.1 56.7001 70 55.7001 71.2 55.7001C73.2 55.6001 75.1 55.1001 76.8 54.0001C78.7 52.8001 80.2 51.1001 81.1 48.9001C81.7 47.6001 81.6 46.2001 80.8 45.0001C80.1 43.8001 78.9 43.1001 77.5 43.0001C74.6 42.8001 72.1 43.7001 70.2 45.6001C67.1 48.7001 65.9 54.2001 65.3 56.5001C64.8 58.5001 59.7 80.3001 57.6 89.1001C57.3 90.5001 56.1 91.5001 54.6 91.5001C53.2 91.5001 51.9 90.5001 51.6 89.1001L51 86.0001C48.6 76.0001 44.5 58.3001 44.1 56.6001C43.6 54.2001 42.3 48.7001 39.2 45.6001C37.3 43.7001 34.8 42.8001 31.9 43.0001C30.5 43.1001 29.3 43.8001 28.6 45.0001C27.9 46.2001 27.8 47.6001 28.3 48.9001C29.3 51.1001 30.7 52.8001 32.6 54.0001C34.3 55.1001 36.2 55.6001 38.2 55.7001C39.4 55.7001 40.3 56.7001 40.3 57.9001C40.3 59.1001 39.2 60.0001 38.1 60.0001C35.3 59.9001 32.7 59.1001 30.3 57.6001C27.6 55.9001 25.6 53.6001 24.3 50.6001C23.2 48.0001 23.4 45.1001 24.8 42.7001C26.3 40.3001 28.8 38.8001 31.6 38.6001C35.8 38.4001 39.4 39.7001 42.2 42.5001C46.2 46.5001 47.6 52.8001 48.3 55.6001C48.7 57.3001 52.3 72.7001 54.7 82.9001C57.1 72.7001 60.7 57.3001 61.1 55.6001C61.7 52.9001 63.2 46.5001 67.2 42.5001C70 39.7001 73.6 38.4001 77.8 38.6001C80.6 38.8001 83.1 40.3001 84.6 42.7001C86 45.1001 86.2 48.1001 85.1 50.6001ZM65.6 16.2001C62.7 16.2001 59.7 16.7001 56.8 17.7001C55.5 18.1001 54 18.1001 52.7 17.7001C49.8 16.7001 46.8 16.2001 43.9 16.2001C27.2 16.2001 13 32.9001 13 52.7001C13 74.7001 29.9 94.2001 54 100C54.5 100.1 55 100.1 55.5 100C79.6 94.2001 96.5 74.7001 96.5 52.7001C96.5 33.0001 82.4 16.2001 65.6 16.2001Z" fill="#00263E"/>
<path d="M56.5001 104.3C55.9001 104.4 55.3001 104.5 54.7001 104.5C54.1001 104.5 53.5001 104.4 52.9001 104.3C26.8001 98 8.6001 76.8 8.6001 52.7C8.6001 30.5 24.7001 11.8 43.8001 11.8C47.2001 11.8 50.6001 12.4 54.0001 13.5C54.4001 13.6 54.9001 13.6 55.4001 13.5C58.8001 12.4 62.2001 11.8 65.6001 11.8C84.7001 11.8 100.8 30.5 100.8 52.7C100.9 76.8 82.6001 98 56.5001 104.3ZM98.3001 98.3C98.3001 99.5 97.3001 100.5 96.1001 100.5C94.9001 100.5 93.9001 99.5 93.9001 98.3V95.3C93.9001 94.1 94.9001 93.1001 96.1001 93.1001C97.3001 93.1001 98.3001 94.1 98.3001 95.3V98.3ZM98.3001 112.1C98.3001 113.3 97.3001 114.3 96.1001 114.3C94.9001 114.3 93.9001 113.3 93.9001 112.1V109.1C93.9001 107.9 94.9001 106.9 96.1001 106.9C97.3001 106.9 98.3001 107.9 98.3001 109.1V112.1ZM84.5001 119C84.5001 120.2 83.5001 121.2 82.3001 121.2C81.1001 121.2 80.1001 120.2 80.1001 119V116C80.1001 114.8 81.1001 113.8 82.3001 113.8C83.5001 113.8 84.5001 114.8 84.5001 116V119ZM84.5001 132.8C84.5001 134 83.5001 135 82.3001 135C81.1001 135 80.1001 134 80.1001 132.8V129.8C80.1001 128.6 81.1001 127.6 82.3001 127.6C83.5001 127.6 84.5001 128.6 84.5001 129.8V132.8ZM70.7001 125.9C70.7001 127.1 69.7001 128.1 68.5001 128.1C67.3001 128.1 66.3001 127.1 66.3001 125.9V122.9C66.3001 121.7 67.3001 120.7 68.5001 120.7C69.7001 120.7 70.7001 121.7 70.7001 122.9V125.9ZM70.7001 139.7C70.7001 140.9 69.7001 141.9 68.5001 141.9C67.3001 141.9 66.3001 140.9 66.3001 139.7V136.7C66.3001 135.5 67.3001 134.5 68.5001 134.5C69.7001 134.5 70.7001 135.5 70.7001 136.7V139.7ZM56.9001 119C56.9001 120.2 55.9001 121.2 54.7001 121.2C53.5001 121.2 52.5001 120.2 52.5001 119V116C52.5001 114.8 53.5001 113.8 54.7001 113.8C55.9001 113.8 56.9001 114.8 56.9001 116V119ZM56.9001 132.8C56.9001 134 55.9001 135 54.7001 135C53.5001 135 52.5001 134 52.5001 132.8V129.8C52.5001 128.6 53.5001 127.6 54.7001 127.6C55.9001 127.6 56.9001 128.6 56.9001 129.8V132.8ZM43.1001 125.9C43.1001 127.1 42.1001 128.1 40.9001 128.1C39.7001 128.1 38.7001 127.1 38.7001 125.9V122.9C38.7001 121.7 39.7001 120.7 40.9001 120.7C42.1001 120.7 43.1001 121.7 43.1001 122.9V125.9ZM43.1001 139.7C43.1001 140.9 42.1001 141.9 40.9001 141.9C39.7001 141.9 38.7001 140.9 38.7001 139.7V136.7C38.7001 135.5 39.7001 134.5 40.9001 134.5C42.1001 134.5 43.1001 135.5 43.1001 136.7V139.7ZM29.3001 119C29.3001 120.2 28.3001 121.2 27.1001 121.2C25.9001 121.2 24.9001 120.2 24.9001 119V116C24.9001 114.8 25.9001 113.8 27.1001 113.8C28.3001 113.8 29.3001 114.8 29.3001 116V119ZM29.3001 132.8C29.3001 134 28.3001 135 27.1001 135C25.9001 135 24.9001 134 24.9001 132.8V129.8C24.9001 128.6 25.9001 127.6 27.1001 127.6C28.3001 127.6 29.3001 128.6 29.3001 129.8V132.8ZM15.5001 98.3C15.5001 99.5 14.5001 100.5 13.3001 100.5C12.1001 100.5 11.1001 99.5 11.1001 98.3V95.3C11.1001 94.1 12.1001 93.1001 13.3001 93.1001C14.5001 93.1001 15.5001 94.1 15.5001 95.3V98.3ZM15.5001 112.1C15.5001 113.3 14.5001 114.3 13.3001 114.3C12.1001 114.3 11.1001 113.3 11.1001 112.1V109.1C11.1001 107.9 12.1001 106.9 13.3001 106.9C14.5001 106.9 15.5001 107.9 15.5001 109.1V112.1ZM54.7001 0.800049C24.8001 0.800049 0.600098 25 0.600098 54.9V101.6C0.600098 131.5 24.8001 155.7 54.7001 155.7C84.6001 155.7 108.8 131.5 108.8 101.6V54.9C108.8 25 84.6001 0.800049 54.7001 0.800049Z" fill="#00263E"/>
</svg>
