<svg width="24" height="24" viewBox="0 0 24 24" fill="none" xmlns="http://www.w3.org/2000/svg">
<path d="M2 3.66667C2 2.74619 2.74619 2 3.66667 2H20.3333C21.2538 2 22 2.74619 22 3.66667V20.3333C22 21.2538 21.2538 22 20.3333 22H3.66667C2.74619 22 2 21.2538 2 20.3333V3.66667Z" fill="#584674"/>
<path d="M13.6934 5.71839C13.5687 5.49921 13.3925 5.31788 13.182 5.19201C12.9715 5.06614 12.7339 5 12.4922 5C12.2504 5 12.0128 5.06614 11.8023 5.19201C11.5918 5.31788 11.4157 5.49921 11.2909 5.71839L9.31486 9.30104C10.8245 10.0989 12.1107 11.3008 13.0458 12.7875C13.9809 14.2742 14.5324 15.994 14.6454 17.7761H13.258C13.1451 16.2485 12.6574 14.7786 11.8431 13.5118C11.0288 12.2451 9.91609 11.2253 8.61513 10.5535L6.78623 13.901C7.51759 14.2482 8.15474 14.7844 8.63911 15.4605C9.12347 16.1365 9.43949 16.9306 9.55811 17.7697H6.37179C6.33401 17.7669 6.29748 17.7541 6.2655 17.7326C6.23353 17.7111 6.20711 17.6815 6.18864 17.6465C6.17016 17.6115 6.16021 17.5722 6.15968 17.5321C6.15915 17.492 6.16806 17.4524 6.1856 17.4169L7.06852 15.8274C6.76939 15.5632 6.42752 15.3586 6.05947 15.2234L5.18556 16.8129C5.09458 16.978 5.03552 17.1607 5.0118 17.3503C4.98809 17.5398 5.00019 17.7325 5.04741 17.917C5.09463 18.1016 5.17603 18.2744 5.28687 18.4254C5.39771 18.5764 5.53579 18.7025 5.69309 18.7965C5.90033 18.9201 6.13392 18.9858 6.37179 18.9873H10.7353C10.8164 17.9287 10.6378 16.8659 10.2169 15.9018C9.79598 14.9378 9.14701 14.1051 8.33284 13.4845L9.02656 12.2129C10.0541 12.96 10.8798 13.9777 11.4222 15.1657C11.9647 16.3537 12.2051 17.6709 12.1198 18.9873H15.8166C15.9027 16.9931 15.4929 15.01 14.6281 13.236C13.7633 11.462 12.4738 9.9594 10.8885 8.87825L12.291 6.3351C12.3222 6.27967 12.3729 6.23956 12.4319 6.22348C12.491 6.20741 12.5537 6.21667 12.6063 6.24927C12.7655 6.34146 18.6996 17.3024 18.8107 17.4296C18.8303 17.4667 18.8403 17.5087 18.8396 17.5512C18.839 17.5938 18.8277 17.6354 18.807 17.6718C18.7863 17.7083 18.7568 17.7383 18.7216 17.7588C18.6864 17.7794 18.6467 17.7897 18.6065 17.7888H17.177C17.1951 18.1936 17.1951 18.5973 17.177 19H18.6125C18.7948 19.0012 18.9755 18.9642 19.1442 18.8911C19.3129 18.8179 19.4662 18.71 19.5952 18.5737C19.7242 18.4375 19.8265 18.2754 19.8959 18.097C19.9654 17.9186 20.0008 17.7274 20 17.5345C20.0002 17.2796 19.9359 17.0294 19.8138 16.8097L13.6934 5.71839Z" fill="white"/>
</svg>
