<svg width="158" height="158" viewBox="0 0 158 158" fill="none" xmlns="http://www.w3.org/2000/svg">
<path d="M33.0694 99.4645C33.0694 108.565 25.6352 115.999 16.5347 115.999C7.43421 115.999 0 108.565 0 99.4645C0 90.364 7.43421 82.9298 16.5347 82.9298H33.0694V99.4645Z" fill="#E01E5A"/>
<path d="M41.4009 99.4645C41.4009 90.364 48.8351 82.9298 57.9356 82.9298C67.0361 82.9298 74.4703 90.364 74.4703 99.4645V140.865C74.4703 149.966 67.0361 157.4 57.9356 157.4C48.8351 157.4 41.4009 149.966 41.4009 140.865V99.4645Z" fill="#E01E5A"/>
<path d="M57.9356 33.0694C48.8351 33.0694 41.4009 25.6352 41.4009 16.5347C41.4009 7.43421 48.8351 0 57.9356 0C67.0361 0 74.4703 7.43421 74.4703 16.5347V33.0694H57.9356Z" fill="#36C5F0"/>
<path d="M57.9355 41.4008C67.036 41.4008 74.4702 48.835 74.4702 57.9355C74.4702 67.036 67.036 74.4702 57.9355 74.4702H16.5347C7.43421 74.4702 0 67.036 0 57.9355C0 48.835 7.43421 41.4008 16.5347 41.4008H57.9355Z" fill="#36C5F0"/>
<path d="M124.331 57.9355C124.331 48.835 131.765 41.4008 140.865 41.4008C149.966 41.4008 157.4 48.835 157.4 57.9355C157.4 67.036 149.966 74.4702 140.865 74.4702H124.331V57.9355Z" fill="#2EB67D"/>
<path d="M115.999 57.9355C115.999 67.036 108.565 74.4702 99.4644 74.4702C90.3639 74.4702 82.9297 67.036 82.9297 57.9355V16.5347C82.9297 7.43421 90.3639 0 99.4644 0C108.565 0 115.999 7.43421 115.999 16.5347V57.9355Z" fill="#2EB67D"/>
<path d="M99.4644 124.331C108.565 124.331 115.999 131.765 115.999 140.865C115.999 149.966 108.565 157.4 99.4644 157.4C90.3639 157.4 82.9297 149.966 82.9297 140.865V124.331H99.4644Z" fill="#ECB22E"/>
<path d="M99.4646 115.999C90.3641 115.999 82.9299 108.565 82.9299 99.4645C82.9299 90.364 90.3641 82.9298 99.4646 82.9298H140.865C149.966 82.9298 157.4 90.364 157.4 99.4645C157.4 108.565 149.966 115.999 140.865 115.999H99.4646Z" fill="#ECB22E"/>
</svg>
