<svg width="100" height="100" viewBox="0 0 100 100" fill="none" xmlns="http://www.w3.org/2000/svg">
<path fill-rule="evenodd" clip-rule="evenodd" d="M35.4667 36.0844L14.6713 24.0799C11.7498 22.389 10.7406 18.6531 12.4315 15.7316C14.1224 12.8102 17.8583 11.8098 20.7798 13.5007L32.5895 20.3174V6.62203C32.5895 3.25794 35.3162 0.53125 38.6803 0.53125C42.0356 0.53125 44.7622 3.25794 44.7622 6.62203V30.6842C44.7622 32.4548 44.0097 34.0483 42.7969 35.1637C40.8847 37.0317 37.8924 37.492 35.4667 36.0844ZM33.7318 49.8684C33.7672 47.6994 32.6251 45.6809 30.7483 44.592L9.95291 32.5875C9.04991 32.0652 8.01413 31.7908 6.97834 31.7908C4.84479 31.7908 2.86175 32.9328 1.7994 34.7742C0.152765 37.6248 1.13544 41.2811 3.98606 42.9277L15.9729 49.8418L3.98606 56.7648C2.60501 57.5615 1.61349 58.8452 1.20626 60.3856C0.790173 61.926 1.00264 63.5372 1.7994 64.9183C2.86175 66.7597 4.84479 67.9017 6.96948 67.9017C8.01413 67.9017 9.04991 67.6272 9.95291 67.1049L30.7483 55.1004C32.6074 54.0204 33.7495 52.0196 33.7318 49.8684ZM85.4506 75.6125L64.6551 63.5991C61.7337 61.9171 57.9978 62.9175 56.3069 65.8389C55.6518 66.9898 55.395 68.2558 55.519 69.4863V92.9642C55.519 96.3194 58.2456 99.0461 61.6097 99.0461C64.965 99.0461 67.6917 96.3194 67.6917 92.9642V79.4635L79.3421 86.1917C82.2635 87.8826 86.0083 86.8734 87.6903 83.9519C89.3812 81.0305 88.3809 77.2946 85.4506 75.6125ZM61.4323 50.8422C61.4323 51.3026 61.1667 51.94 60.8392 52.2764L52.5971 60.5184C52.2696 60.846 51.6233 61.1116 51.163 61.1116H49.0648C48.6045 61.1116 47.9582 60.846 47.6306 60.5184L39.3798 52.2764C39.0522 51.94 38.7866 51.3026 38.7866 50.8422V48.7441C38.7866 48.2749 39.0522 47.6375 39.3798 47.3099L47.6306 39.059C47.9582 38.7315 48.6045 38.4659 49.0648 38.4659H51.163C51.6233 38.4659 52.2696 38.7315 52.5971 39.059L60.8392 47.3099C61.1667 47.6375 61.4323 48.2749 61.4323 48.7441V50.8422ZM54.0756 49.833V49.7445C54.0756 49.408 53.8808 48.9388 53.6418 48.691L51.2072 46.2653C50.9682 46.0174 50.499 45.8226 50.1537 45.8226H50.0652C49.7288 45.8226 49.2596 46.0174 49.0117 46.2653L46.586 48.691C46.347 48.93 46.1522 49.3992 46.1522 49.7445V49.833C46.1522 50.1782 46.347 50.6474 46.586 50.8865L49.0117 53.321C49.2596 53.56 49.7288 53.7548 50.0652 53.7548H50.1537C50.499 53.7548 50.9682 53.56 51.2072 53.321L53.6418 50.8865C53.8808 50.6474 54.0756 50.1782 54.0756 49.833ZM85.4501 24.0799L64.6547 36.0844C61.7332 37.7753 57.9973 36.775 56.3064 33.8535C55.6424 32.7026 55.4034 31.4278 55.5185 30.2061V6.62203C55.5185 3.25794 58.2452 0.53125 61.6093 0.53125C64.9645 0.53125 67.6912 3.25794 67.6912 6.62203V20.2289L79.3416 13.5007C82.263 11.8098 85.9989 12.8102 87.6898 15.7316C89.3808 18.6531 88.3715 22.3979 85.4501 24.0799ZM39.6364 62.891C38.2554 62.6254 36.7769 62.8467 35.4667 63.5992L14.6713 75.6126C11.7498 77.2946 10.7406 81.0305 12.4315 83.952C14.1224 86.8823 17.8583 87.8827 20.7798 86.1918L32.5895 79.375V92.9642C32.5895 96.3195 35.3162 99.0461 38.6803 99.0461C42.0356 99.0461 44.7622 96.3195 44.7622 92.9642V68.9021C44.7622 65.8655 42.5402 63.3513 39.6364 62.891ZM90.0976 32.4637C93.019 30.7728 96.7638 31.7731 98.4458 34.7034C100.137 37.6249 99.1364 41.3608 96.2061 43.0429L84.4317 49.8419L96.2061 56.6409C99.1275 58.3318 100.137 62.0677 98.4458 64.9891C96.7549 67.9106 93.019 68.911 90.0976 67.2289L69.3021 55.2156C67.3279 54.0824 66.2302 52.002 66.2479 49.8684C66.2125 47.726 67.3102 45.619 69.3021 44.4682L90.0976 32.4637Z" fill="#29B5E8"/>
</svg>
