<svg width="153" height="151" viewBox="0 0 153 151" fill="none" xmlns="http://www.w3.org/2000/svg">
<path d="M72.3133 102.018H80.6864V79.1795H101.746V71.0591H80.6864V48.2203H72.3133V71.0591H51.5073V79.1795H72.3133V102.018Z" fill="#E8762D"/>
<path d="M33.4927 135.008H40.5972V114.707H59.3733V108.363H40.5972V87.8076H33.4927V108.363H14.7166V114.707H33.4927V135.008Z" fill="#C72037"/>
<path d="M112.403 61.6699H119.507V41.3687H138.537V35.2784H119.507V14.7235H112.403V35.2784H93.627V41.3687H112.403V61.6699Z" fill="#5B879B"/>
<path d="M73.5821 150.995H79.6717V136.53H92.612V131.201H79.6717V116.737H73.5821V131.201H60.8955V136.53H73.5821V150.995Z" fill="#5C6692"/>
<path d="M33.7464 61.6699H40.3434V41.115H59.3733V35.2784H40.3434V14.7235H33.7464V35.2784H14.7166V41.115H33.7464V61.6699Z" fill="#EB9129"/>
<path d="M133.97 92.1216H140.06V77.9108H153V72.3279H140.06V58.1171H133.97V72.3279H121.283V77.9108H133.97V92.1216Z" fill="#5C6692"/>
<path fill-rule="evenodd" clip-rule="evenodd" d="M112.403 135.008H119.507V114.707H138.537V108.363H119.507V87.8076H112.403V108.363H93.627V114.707H112.403V135.008Z" fill="#1F457E"/>
<path d="M91.597 18.2755V13.9615H78.9104V0.00451088H74.3433V13.9615H61.6567V18.2755H74.3433V32.2325H78.9104V18.2755H91.597ZM12.6866 91.1057H17.2537V77.1487H29.9403V72.8347H17.2537V59.1315H12.6866V72.8347H0V77.4025L12.6866 77.1487V91.1057Z" fill="#7199A6"/>
</svg>
