<svg width="161" height="161" viewBox="0 0 161 161" fill="none" xmlns="http://www.w3.org/2000/svg">
<path fill-rule="evenodd" clip-rule="evenodd" d="M140.925 -0.0250244H20.1759C14.8385 -0.0250225 9.71963 2.09527 5.94548 5.86942C4.07367 7.74122 2.58953 9.96391 1.57807 12.4102C0.566601 14.8565 0.0476854 17.4782 0.0510416 20.1254V140.875C0.0510416 146.212 2.17133 151.331 5.94548 155.105C9.71962 158.879 14.8385 160.999 20.1759 160.999H140.925C146.245 160.972 151.337 158.84 155.09 155.069C158.842 151.298 160.948 146.194 160.948 140.875V20.1509C160.948 14.8311 158.842 9.72771 155.09 5.95649C151.337 2.18527 146.245 0.0530579 140.925 0.0260539V-0.0250244ZM70.0794 121.95C70.0525 124.493 69.0236 126.922 67.216 128.71C65.4085 130.499 62.9684 131.502 60.4256 131.502H30.698C28.1465 131.515 25.6933 130.518 23.8747 128.728C22.0561 126.939 21.0201 124.502 20.9932 121.95V30.622C20.9898 29.3478 21.2387 28.0855 21.7255 26.9079C22.2123 25.7304 22.9275 24.6609 23.8297 23.761C24.7319 22.8612 25.8033 22.1489 26.9821 21.6652C28.1609 21.1815 29.4238 20.9359 30.698 20.9426H60.4256C62.986 20.9426 65.4415 21.9597 67.2519 23.7702C69.0624 25.5806 70.0794 28.0361 70.0794 30.5964V121.95ZM140.133 81.7003C140.133 84.2607 139.116 86.7161 137.306 88.5266C135.495 90.337 133.04 91.3541 130.48 91.3541H100.675C98.115 91.3541 95.6595 90.337 93.8491 88.5266C92.0387 86.7161 91.0216 84.2607 91.0216 81.7003V30.622C91.0182 29.3521 91.2654 28.094 91.7491 26.9198C92.2327 25.7456 92.9433 24.6783 93.8401 23.7792C94.7368 22.88 95.8022 22.1667 96.9751 21.6799C98.148 21.1932 99.4055 20.9426 100.675 20.9426H130.48C133.04 20.9426 135.495 21.9597 137.306 23.7702C139.116 25.5806 140.133 28.0361 140.133 30.5964V81.7003Z" fill="url(#paint0_linear)"/>
<defs>
<linearGradient id="paint0_linear" x1="80.5505" y1="161.025" x2="80.5505" y2="0.000505752" gradientUnits="userSpaceOnUse">
<stop offset="0.18" stop-color="#0052CC"/>
<stop offset="1" stop-color="#2684FF"/>
</linearGradient>
</defs>
</svg>
