<svg width="24" height="24" viewBox="0 0 24 24" fill="none" xmlns="http://www.w3.org/2000/svg">
<path d="M7.90544 21C5.36365 21 2.99428 20.3045 1 19.1046C2.69321 19.2077 5.68134 18.9608 7.53995 17.2931C4.74399 17.1724 3.48306 15.1552 3.31859 14.2931C3.55616 14.3793 4.68917 14.4828 5.32877 14.2414C2.11249 13.4828 1.61909 10.8276 1.72873 10.0172C2.33178 10.4138 3.35514 10.5517 3.75718 10.5172C0.760194 8.5 1.83838 5.46552 2.36833 4.81034C4.51908 7.61336 7.74237 9.18764 11.73 9.27521C11.6548 8.965 11.6151 8.64205 11.6151 8.31034C11.6151 5.92981 13.6605 4 16.1837 4C17.502 4 18.6899 4.52682 19.5238 5.36949C20.4047 5.1753 21.7305 4.7207 22.3787 4.32759C22.052 5.43103 21.0349 6.35154 20.4196 6.69271C20.4247 6.70432 20.4146 6.68105 20.4196 6.69271C20.9601 6.61581 22.4223 6.35145 23 5.98276C22.7143 6.60266 21.636 7.63336 20.7511 8.2104C20.9157 15.0412 15.3601 21 7.90544 21Z" fill="#47ACDF"/>
</svg>
