<svg width="155" height="166" viewBox="0 0 155 166" fill="none" xmlns="http://www.w3.org/2000/svg">
<path d="M74.5293 0.0505921C85.0488 -0.311467 95.637 1.26995 105.559 4.7889C120.485 10.0258 133.825 19.6232 143.586 32.0549C147.88 37.5088 151.477 43.5037 154.295 49.8466C154.795 50.9019 155.18 52.0882 154.912 53.2643C154.585 55.2384 152.853 56.8704 150.862 57.0677C148.794 57.3698 146.656 56.0801 145.919 54.1324C140.314 40.9494 130.748 29.4985 118.815 21.572C111.439 16.6454 103.166 13.0578 94.5225 11.0491C83.3768 8.44345 71.6419 8.44345 60.4938 11.0412C44.5765 14.7047 30.002 23.8301 19.7227 36.5101C15.3642 41.8526 11.7656 47.8081 9.05268 54.1441C8.46562 55.6164 7.11656 56.7707 5.5427 57.0291C4.02487 57.3219 2.37248 56.798 1.31419 55.6682C0.066393 54.4186 -0.341751 52.4216 0.30156 50.7817C7.76803 33.1383 21.5933 18.3165 38.591 9.49413C49.6618 3.7025 62.0462 0.471966 74.5293 0.0505921Z" fill="#F49813"/>
<path d="M6.61572 73.5931C7.49734 72.5893 8.52762 71.5023 9.99718 71.6066C14.3015 71.5656 18.618 71.4716 22.9193 71.6692C25.103 71.7319 26.6072 73.6377 26.9263 75.655C31.1579 92.743 35.3135 109.855 39.5263 126.949C40.7616 132.227 42.2658 137.453 43.0715 142.822C43.9028 147.646 44.0672 152.541 44.8572 157.374C45.9445 150.476 46.9178 143.535 48.7915 136.797C54.3002 116.395 59.8047 95.9973 65.3195 75.602C65.7491 73.2762 67.9523 71.6228 70.2937 71.6228C75.0847 71.5023 79.8848 71.5849 84.6757 71.5849C87.2447 71.465 89.9946 72.9563 90.6135 75.5707C94.7285 90.4425 98.7925 105.342 102.891 120.227C105.378 129.868 108.636 139.346 110.043 149.237C110.431 151.96 110.811 154.691 111.376 157.396C112.922 141.856 116.948 126.736 120.26 111.519C122.994 99.4119 125.666 87.2918 128.431 75.1838C128.839 72.752 131.431 71.5288 133.713 71.5969C137.587 71.5752 141.468 71.465 145.336 71.6602C147.634 71.7265 148.954 74.2487 148.145 76.2829C140.371 104.768 132.625 133.273 124.849 161.759C124.431 164.043 122.428 165.826 120.079 165.863C114.075 166.057 108.058 165.91 102.054 165.941C99.9017 166.074 97.6264 164.928 97.2465 162.678C91.8719 143.089 86.604 123.466 81.2785 103.862C79.3508 97.0415 78.5705 89.9719 77.7611 82.9578C76.7721 89.2031 76.2824 95.5508 74.6072 101.687C69.1561 121.872 63.6734 142.066 58.2089 162.254C57.5931 165.524 53.8294 166.177 51.0292 165.963C45.4452 165.863 39.8612 166.092 34.2827 165.863C32.2955 165.869 30.7629 164.332 30.4055 162.467C22.5686 134.095 14.7566 105.71 6.91303 77.3433C6.64121 76.1039 6.67579 74.8392 6.61572 73.5931Z" fill="#3069B5"/>
</svg>
