<svg width="122" height="121" viewBox="0 0 122 121" fill="none" xmlns="http://www.w3.org/2000/svg">
<mask id="path-1-inside-1_101_151" fill="white">
<path d="M104.823 66.4349C104.823 67.5111 104.398 68.5432 103.643 69.3043C102.888 70.0653 101.864 70.4928 100.796 70.4928C99.7282 70.4928 98.704 70.0653 97.949 69.3043C97.1939 68.5432 96.7695 67.5111 96.7695 66.4349V30.1827C96.7695 29.1064 97.1939 28.0743 97.949 27.3133C98.704 26.5524 99.7282 26.1247 100.796 26.1247C101.864 26.1247 102.888 26.5524 103.643 27.3133C104.398 28.0743 104.823 29.1064 104.823 30.1827V66.4349ZM103.425 91.5533C102.893 92.0899 87.9179 104.666 60.4644 104.666C33.0108 104.666 18.1361 92.157 17.5038 91.6204C17.1053 91.2818 16.7772 90.8673 16.538 90.4006C16.2989 89.934 16.1535 89.4242 16.1102 88.9008C16.0668 88.3775 16.1266 87.8505 16.2858 87.3505C16.445 86.8503 16.7005 86.3867 17.0379 85.9864C17.7328 85.176 18.7176 84.6753 19.7773 84.5937C20.8371 84.512 21.8858 84.8559 22.695 85.5503C22.9279 85.7181 36.3052 96.6508 60.4311 96.6508C84.5569 96.6508 98.0341 85.651 98.1672 85.5503C98.9854 84.8622 100.038 84.5228 101.1 84.6041C102.163 84.6856 103.152 85.1815 103.858 85.9864C104.536 86.7847 104.875 87.8207 104.801 88.8694C104.726 89.9179 104.243 90.8946 103.458 91.5869L103.425 91.5533ZM16.0728 30.1827C16.1331 29.103 16.6149 28.0913 17.413 27.3687C18.2112 26.646 19.2607 26.2712 20.3323 26.326C21.3257 26.3828 22.2631 26.8084 22.9637 27.5206C23.6641 28.2328 24.0782 29.181 24.1259 30.1827V66.3678C24.1259 67.444 23.7017 68.4762 22.9466 69.2372C22.1914 69.9982 21.1673 70.4257 20.0994 70.4257C19.0315 70.4257 18.0073 69.9982 17.2522 69.2372C16.4971 68.4762 16.0728 67.444 16.0728 66.3678V30.1827ZM36.2721 22.1341C36.3322 21.0544 36.814 20.0428 37.6121 19.32C38.4103 18.5974 39.4598 18.2226 40.5314 18.2774C41.525 18.3342 42.4622 18.7599 43.1628 19.4719C43.8632 20.184 44.2773 21.1324 44.325 22.1341V75.7914C44.325 76.8676 43.9008 77.8997 43.1457 78.6608C42.3905 79.4218 41.3665 79.8493 40.2985 79.8493C39.2306 79.8493 38.2064 79.4218 37.4513 78.6608C36.6962 77.8997 36.2721 76.8676 36.2721 75.7914V22.1341ZM56.5709 20.1219C56.5709 19.0457 56.9952 18.0136 57.7503 17.2525C58.5054 16.4915 59.5296 16.064 60.5975 16.064C61.6654 16.064 62.6895 16.4915 63.4447 17.2525C64.1998 18.0136 64.6239 19.0457 64.6239 20.1219V78.4743C64.6239 79.5505 64.1998 80.5826 63.4447 81.3437C62.6895 82.1047 61.6654 82.5322 60.5975 82.5322C59.5296 82.5322 58.5054 82.1047 57.7503 81.3437C56.9952 80.5826 56.5709 79.5505 56.5709 78.4743V20.1219ZM76.5372 22.1341C76.5372 21.0579 76.9613 20.0257 77.7165 19.2647C78.4716 18.5036 79.4958 18.0762 80.5638 18.0762C81.6315 18.0762 82.6557 18.5036 83.4108 19.2647C84.166 20.0257 84.5902 21.0579 84.5902 22.1341V75.7914C84.5902 76.8676 84.166 77.8997 83.4108 78.6608C82.6557 79.4218 81.6315 79.8493 80.5638 79.8493C79.4958 79.8493 78.4716 79.4218 77.7165 78.6608C76.9613 77.8997 76.5372 76.8676 76.5372 75.7914V22.1341ZM105.921 0.000334835H15.1412C13.1632 -0.0129149 11.2019 0.367189 9.36974 1.11878C7.53779 1.87054 5.87081 2.97888 4.46434 4.38071C3.05788 5.78254 1.9396 7.45002 1.1736 9.28793C0.407595 11.1258 0.00877798 13.0981 0 15.0915V105.638C0.00877798 107.632 0.407595 109.604 1.1736 111.442C1.9396 113.28 3.05788 114.947 4.46434 116.349C5.87081 117.751 7.53779 118.859 9.36974 119.611C11.2019 120.363 13.1632 120.743 15.1412 120.729H105.921C107.896 120.743 109.855 120.364 111.684 119.614C113.514 118.865 115.18 117.759 116.586 116.361C117.992 114.963 119.111 113.299 119.879 111.465C120.647 109.631 121.049 107.663 121.062 105.672V15.0915C121.053 13.1009 120.655 11.1315 119.891 9.29571C119.127 7.46012 118.012 5.79396 116.609 4.39264C115.206 2.99131 113.543 1.88213 111.715 1.12855C109.887 0.374807 107.929 -0.00844314 105.954 0.000334835"/>
</mask>
<path d="M103.643 69.3043L102.224 67.8955L102.223 67.8956L103.643 69.3043ZM97.949 27.3133L96.5293 25.9045L96.5292 25.9046L97.949 27.3133ZM103.643 27.3133L102.224 28.7221L102.224 28.7221L103.643 27.3133ZM103.425 91.5533L104.846 90.146L103.426 88.7121L102.005 90.1448L103.425 91.5533ZM17.5038 91.6204L16.2089 93.1446L16.2097 93.1453L17.5038 91.6204ZM16.538 90.4006L18.318 89.4885L18.3178 89.4882L16.538 90.4006ZM16.1102 88.9008L18.1034 88.7362L18.1034 88.7356L16.1102 88.9008ZM16.2858 87.3505L18.1916 87.9571L18.1916 87.9569L16.2858 87.3505ZM17.0379 85.9864L15.5197 84.6845L15.5141 84.691L15.5086 84.6975L17.0379 85.9864ZM19.7773 84.5937L19.6236 82.5996L19.6236 82.5996L19.7773 84.5937ZM22.695 85.5503L21.3926 87.0681L21.457 87.1234L21.5259 87.173L22.695 85.5503ZM98.1672 85.5503L99.3736 87.1455L99.4149 87.1143L99.4546 87.0809L98.1672 85.5503ZM101.1 84.6041L101.253 82.61L101.253 82.6099L101.1 84.6041ZM103.858 85.9864L105.381 84.6907L105.371 84.6793L105.362 84.6681L103.858 85.9864ZM104.801 88.8694L106.796 89.0118L106.796 89.0115L104.801 88.8694ZM103.458 91.5869L102.037 92.9942L103.365 94.3353L104.781 93.0871L103.458 91.5869ZM16.0728 30.1827L14.0759 30.0712L14.0728 30.1269V30.1827H16.0728ZM17.413 27.3687L18.7553 28.8514L18.7555 28.8512L17.413 27.3687ZM20.3323 26.326L20.4465 24.3292L20.4345 24.3286L20.3323 26.326ZM22.9637 27.5206L24.3896 26.1182L24.3894 26.1181L22.9637 27.5206ZM24.1259 30.1827H26.1259V30.1351L26.1236 30.0875L24.1259 30.1827ZM22.9466 69.2372L24.3662 70.646L24.3664 70.6458L22.9466 69.2372ZM36.2721 22.1341L34.2752 22.0229L34.2721 22.0784V22.1341H36.2721ZM37.6121 19.32L36.2698 17.8374L36.2696 17.8375L37.6121 19.32ZM40.5314 18.2774L40.6456 16.2806L40.6336 16.28L40.5314 18.2774ZM43.1628 19.4719L44.5887 18.0695L44.5884 18.0691L43.1628 19.4719ZM44.325 22.1341H46.325V22.0865L46.3227 22.039L44.325 22.1341ZM43.1457 78.6608L44.5653 80.0696L44.5655 80.0694L43.1457 78.6608ZM63.4447 17.2525L64.8645 15.8439L64.8643 15.8437L63.4447 17.2525ZM63.4447 81.3437L64.8643 82.7525L64.8645 82.7523L63.4447 81.3437ZM77.7165 19.2647L79.1362 20.6735L79.1363 20.6733L77.7165 19.2647ZM83.4108 19.2647L81.991 20.6733L81.9912 20.6735L83.4108 19.2647ZM83.4108 78.6608L81.9912 77.252L81.991 77.2521L83.4108 78.6608ZM77.7165 78.6608L79.1363 77.2521L79.1362 77.252L77.7165 78.6608ZM15.1412 0.000334835L15.1278 2.00033H15.1412V0.000334835ZM9.36974 1.11878L8.61067 -0.73157L8.61046 -0.731487L9.36974 1.11878ZM0 15.0915L-2 15.0827V15.0915H0ZM0 105.638L-2.00002 105.638L-1.99998 105.647L0 105.638ZM4.46434 116.349L3.05247 117.766L3.05255 117.766L4.46434 116.349ZM9.36974 119.611L10.129 117.761L10.1289 117.761L9.36974 119.611ZM15.1412 120.729L15.1412 118.729L15.1278 118.73L15.1412 120.729ZM105.921 120.729L105.934 118.729H105.921V120.729ZM111.684 119.614L112.442 121.465L112.443 121.465L111.684 119.614ZM116.586 116.361L115.176 114.943L115.175 114.943L116.586 116.361ZM119.879 111.465L118.034 110.693L118.034 110.693L119.879 111.465ZM121.062 105.672L123.062 105.685V105.672H121.062ZM121.062 15.0915L123.062 15.0915L123.062 15.0827L121.062 15.0915ZM119.891 9.29571L121.738 8.52724L121.738 8.52718L119.891 9.29571ZM116.609 4.39264L115.196 5.8076L115.196 5.80768L116.609 4.39264ZM111.715 1.12855L110.953 2.97758L110.953 2.97764L111.715 1.12855ZM102.823 66.4349C102.823 66.9857 102.605 67.5108 102.224 67.8955L105.063 70.7131C106.191 69.5757 106.823 68.0365 106.823 66.4349H102.823ZM102.223 67.8956C101.842 68.2798 101.329 68.4928 100.796 68.4928V72.4928C102.399 72.4928 103.934 71.8508 105.063 70.7129L102.223 67.8956ZM100.796 68.4928C100.264 68.4928 99.7498 68.2797 99.3687 67.8956L96.5292 70.7129C97.6582 71.8509 99.1929 72.4928 100.796 72.4928V68.4928ZM99.3687 67.8956C98.9868 67.5107 98.7695 66.9855 98.7695 66.4349H94.7695C94.7695 68.0367 95.4009 69.5758 96.5292 70.7129L99.3687 67.8956ZM98.7695 66.4349V30.1827H94.7695V66.4349H98.7695ZM98.7695 30.1827C98.7695 29.632 98.9868 29.1068 99.3687 28.7219L96.5292 25.9046C95.4009 27.0418 94.7695 28.5809 94.7695 30.1827H98.7695ZM99.3686 28.7221C99.7499 28.3378 100.264 28.1247 100.796 28.1247V24.1247C99.1927 24.1247 97.6582 24.767 96.5293 25.9045L99.3686 28.7221ZM100.796 28.1247C101.328 28.1247 101.842 28.3378 102.224 28.7221L105.063 25.9045C103.934 24.767 102.4 24.1247 100.796 24.1247V28.1247ZM102.224 28.7221C102.605 29.1068 102.823 29.6318 102.823 30.1827H106.823C106.823 28.5811 106.191 27.0418 105.063 25.9045L102.224 28.7221ZM102.823 30.1827V66.4349H106.823V30.1827H102.823ZM102.005 90.1448C102.018 90.1315 101.119 90.9284 99.2496 92.1574C97.4249 93.3573 94.7412 94.9253 91.2294 96.4824C84.2099 99.5949 73.878 102.666 60.4644 102.666V106.666C88.5147 106.666 103.984 93.8293 104.845 92.9618L102.005 90.1448ZM60.4644 102.666C33.6512 102.666 19.2199 90.4536 18.7978 90.0955L16.2097 93.1453C17.0524 93.8604 32.3705 106.666 60.4644 106.666V102.666ZM18.7987 90.0962C18.6014 89.9286 18.4378 89.7223 18.318 89.4885L14.7581 91.3126C15.1166 92.0123 15.6092 92.6351 16.2089 93.1446L18.7987 90.0962ZM18.3178 89.4882C18.1982 89.255 18.1252 88.9992 18.1034 88.7362L14.117 89.0655C14.1817 89.8492 14.3995 90.6131 14.7582 91.3129L18.3178 89.4882ZM18.1034 88.7356C18.0816 88.473 18.1116 88.2082 18.1916 87.9571L14.38 86.7438C14.1416 87.4927 14.0521 88.282 14.1171 89.0661L18.1034 88.7356ZM18.1916 87.9569C18.2715 87.7059 18.3994 87.4743 18.5672 87.2753L15.5086 84.6975C15.0016 85.2991 14.6184 85.9947 14.38 86.744L18.1916 87.9569ZM18.5561 87.2883C18.9077 86.8784 19.4026 86.6285 19.9309 86.5878L19.6236 82.5996C18.0327 82.7222 16.558 83.4737 15.5197 84.6845L18.5561 87.2883ZM19.9309 86.5878C20.4595 86.547 20.9848 86.7181 21.3926 87.0681L23.9975 84.0326C22.7868 82.9936 21.2147 82.477 19.6236 82.5996L19.9309 86.5878ZM21.5259 87.173C21.5074 87.1597 22.4969 87.9551 24.2305 89.0476C25.9719 90.145 28.5114 91.5776 31.8115 93.0001C38.4146 95.8465 48.0591 98.6508 60.4311 98.6508V94.6508C36.9512 94.6508 24.0035 84.028 23.8642 83.9276L21.5259 87.173ZM60.4311 98.6508C72.8046 98.6508 82.4744 95.829 89.0888 92.9746C92.3947 91.5481 94.937 90.1136 96.6736 89.0194C97.5421 88.4722 98.2095 88.0098 98.6706 87.6757C99.1138 87.3546 99.421 87.1097 99.3736 87.1455L96.9609 83.9551C96.9368 83.9733 93.6851 86.6347 87.504 89.302C81.315 91.9727 72.1834 94.6508 60.4311 94.6508V98.6508ZM99.4546 87.0809C99.8733 86.7288 100.409 86.5571 100.948 86.5983L101.253 82.6099C99.6664 82.4885 98.0975 82.9956 96.8799 84.0197L99.4546 87.0809ZM100.947 86.5983C101.486 86.6396 101.991 86.8911 102.354 87.3047L105.362 84.6681C104.313 83.4719 102.84 82.7316 101.253 82.61L100.947 86.5983ZM102.334 87.2821C102.672 87.6799 102.843 88.1991 102.806 88.7273L106.796 89.0115C106.907 87.4422 106.401 85.8895 105.381 84.6907L102.334 87.2821ZM102.806 88.727C102.768 89.255 102.525 89.7432 102.136 90.0867L104.781 93.0871C105.962 92.0461 106.683 90.5808 106.796 89.0118L102.806 88.727ZM104.879 90.1797L104.846 90.146L102.004 92.9605L102.037 92.9942L104.879 90.1797ZM18.0697 30.2942C18.1008 29.7372 18.3492 29.2191 18.7553 28.8514L16.0707 25.8861C14.8806 26.9636 14.1654 28.4687 14.0759 30.0712L18.0697 30.2942ZM18.7555 28.8512C19.1611 28.4839 19.6913 28.2958 20.2301 28.3234L20.4345 24.3286C18.8301 24.2465 17.2612 24.808 16.0705 25.8863L18.7555 28.8512ZM20.2181 28.3227C20.7134 28.351 21.1839 28.5634 21.5379 28.9232L24.3894 26.1181C23.3422 25.0535 21.938 24.4145 20.4465 24.3292L20.2181 28.3227ZM21.5377 28.923C21.892 29.2832 22.1037 29.7654 22.1281 30.2778L26.1236 30.0875C26.0526 28.5965 25.4362 27.1824 24.3896 26.1182L21.5377 28.923ZM22.1259 30.1827V66.3678H26.1259V30.1827H22.1259ZM22.1259 66.3678C22.1259 66.9186 21.9086 67.4438 21.5269 67.8286L24.3664 70.6458C25.4948 69.5085 26.1259 67.9694 26.1259 66.3678H22.1259ZM21.527 67.8284C21.1456 68.2127 20.6319 68.4257 20.0994 68.4257V72.4257C21.7028 72.4257 23.2372 71.7837 24.3662 70.646L21.527 67.8284ZM20.0994 68.4257C19.5668 68.4257 19.0531 68.2127 18.672 67.8286L15.8324 70.6458C16.9615 71.7838 18.4961 72.4257 20.0994 72.4257V68.4257ZM18.672 67.8286C18.2901 67.4436 18.0728 66.9184 18.0728 66.3678H14.0728C14.0728 67.9696 14.7042 69.5087 15.8324 70.6458L18.672 67.8286ZM18.0728 66.3678V30.1827H14.0728V66.3678H18.0728ZM38.269 22.2453C38.3 21.6886 38.5483 21.1704 38.9546 20.8025L36.2696 17.8375C35.0797 18.9151 34.3644 20.4202 34.2752 22.0229L38.269 22.2453ZM38.9545 20.8026C39.3601 20.4354 39.8904 20.2472 40.4292 20.2748L40.6336 16.28C39.0293 16.1979 37.4605 16.7594 36.2698 17.8374L38.9545 20.8026ZM40.4172 20.2741C40.9126 20.3025 41.3831 20.5148 41.7372 20.8746L44.5884 18.0691C43.5413 17.005 42.1373 16.366 40.6456 16.2807L40.4172 20.2741ZM41.7369 20.8743C42.091 21.2344 42.3028 21.7168 42.3272 22.2292L46.3227 22.039C46.2517 20.548 45.6354 19.1337 44.5887 18.0695L41.7369 20.8743ZM42.325 22.1341V75.7914H46.325V22.1341H42.325ZM42.325 75.7914C42.325 76.3422 42.1077 76.8674 41.726 77.2521L44.5655 80.0694C45.6939 78.9321 46.325 77.3929 46.325 75.7914H42.325ZM41.7261 77.252C41.3447 77.6363 40.831 77.8493 40.2985 77.8493V81.8493C41.9019 81.8493 43.4363 81.2073 44.5653 80.0696L41.7261 77.252ZM40.2985 77.8493C39.766 77.8493 39.2522 77.6362 38.8711 77.2521L36.0316 80.0694C37.1606 81.2073 38.6952 81.8493 40.2985 81.8493V77.8493ZM38.8711 77.2521C38.4893 76.8674 38.2721 76.3422 38.2721 75.7914H34.2721C34.2721 77.3929 34.9032 78.9321 36.0316 80.0694L38.8711 77.2521ZM38.2721 75.7914V22.1341H34.2721V75.7914H38.2721ZM58.5709 20.1219C58.5709 19.5713 58.7882 19.0461 59.1701 18.6612L56.3305 15.8439C55.2023 16.9811 54.5709 18.5202 54.5709 20.1219H58.5709ZM59.1701 18.6612C59.5512 18.2771 60.0649 18.064 60.5975 18.064V14.064C58.9942 14.064 57.4596 14.7059 56.3305 15.8439L59.1701 18.6612ZM60.5975 18.064C61.13 18.064 61.6437 18.277 62.0251 18.6613L64.8643 15.8437C63.7353 14.706 62.2009 14.064 60.5975 14.064V18.064ZM62.025 18.6612C62.4067 19.0459 62.6239 19.5711 62.6239 20.1219H66.6239C66.6239 18.5204 65.9929 16.9812 64.8645 15.8439L62.025 18.6612ZM62.6239 20.1219V78.4743H66.6239V20.1219H62.6239ZM62.6239 78.4743C62.6239 79.0251 62.4067 79.5503 62.025 79.935L64.8645 82.7523C65.9929 81.615 66.6239 80.0758 66.6239 78.4743H62.6239ZM62.0251 79.9349C61.6437 80.3192 61.13 80.5322 60.5975 80.5322V84.5322C62.2009 84.5322 63.7353 83.8902 64.8643 82.7525L62.0251 79.9349ZM60.5975 80.5322C60.0649 80.5322 59.5512 80.3191 59.1701 79.935L56.3305 82.7523C57.4596 83.8903 58.9942 84.5322 60.5975 84.5322V80.5322ZM59.1701 79.935C58.7882 79.5501 58.5709 79.0249 58.5709 78.4743H54.5709C54.5709 80.0761 55.2023 81.6152 56.3305 82.7523L59.1701 79.935ZM58.5709 78.4743V20.1219H54.5709V78.4743H58.5709ZM78.5372 22.1341C78.5372 21.5832 78.7544 21.0582 79.1362 20.6735L76.2969 17.8559C75.1682 18.9932 74.5372 20.5325 74.5372 22.1341H78.5372ZM79.1363 20.6733C79.5174 20.2892 80.0312 20.0762 80.5638 20.0762V16.0762C78.9605 16.0762 77.4258 16.7181 76.2968 17.856L79.1363 20.6733ZM80.5638 20.0762C81.0961 20.0762 81.6099 20.2892 81.991 20.6733L84.8306 17.856C83.7016 16.7181 82.1669 16.0762 80.5638 16.0762V20.0762ZM81.9912 20.6735C82.373 21.0582 82.5902 21.5832 82.5902 22.1341H86.5902C86.5902 20.5325 85.9591 18.9932 84.8304 17.8559L81.9912 20.6735ZM82.5902 22.1341V75.7914H86.5902V22.1341H82.5902ZM82.5902 75.7914C82.5902 76.3422 82.373 76.8673 81.9912 77.252L84.8304 80.0696C85.9591 78.9322 86.5902 77.3929 86.5902 75.7914H82.5902ZM81.991 77.2521C81.6099 77.6363 81.0961 77.8493 80.5638 77.8493V81.8493C82.1669 81.8493 83.7016 81.2073 84.8306 80.0694L81.991 77.2521ZM80.5638 77.8493C80.0312 77.8493 79.5174 77.6362 79.1363 77.2521L76.2968 80.0694C77.4258 81.2073 78.9605 81.8493 80.5638 81.8493V77.8493ZM79.1362 77.252C78.7544 76.8673 78.5372 76.3422 78.5372 75.7914H74.5372C74.5372 77.3929 75.1682 78.9322 76.2969 80.0696L79.1362 77.252ZM78.5372 75.7914V22.1341H74.5372V75.7914H78.5372ZM105.921 -1.99967H15.1412V2.00033H105.921V-1.99967ZM15.1546 -1.99962C12.9114 -2.01465 10.6875 -1.58356 8.61067 -0.73157L10.1288 2.96913C11.7162 2.31794 13.4149 1.98882 15.1278 2.00029L15.1546 -1.99962ZM8.61046 -0.731487C6.53393 0.120642 4.64529 1.37659 3.05247 2.96416L5.87622 5.79726C7.09633 4.58117 8.54166 3.62044 10.129 2.96905L8.61046 -0.731487ZM3.05247 2.96416C1.45977 4.55161 0.194165 6.43913 -0.672483 8.51852L3.01968 10.0573C3.68503 8.46091 4.656 7.01346 5.87622 5.79726L3.05247 2.96416ZM-0.672483 8.51852C-1.53907 10.5978 -1.99005 12.8284 -1.99998 15.0827L1.99998 15.1003C2.00761 13.3677 2.35426 11.6539 3.01968 10.0573L-0.672483 8.51852ZM-2 15.0915V105.638H2V15.0915H-2ZM-1.99998 105.647C-1.99005 107.902 -1.53907 110.132 -0.672483 112.211L3.01968 110.672C2.35426 109.076 2.00761 107.362 1.99998 105.629L-1.99998 105.647ZM-0.672483 112.211C0.194142 114.291 1.45972 116.178 3.05247 117.766L5.87622 114.933C4.65604 113.717 3.68506 112.269 3.01968 110.672L-0.672483 112.211ZM3.05255 117.766C4.64526 119.353 6.53387 120.609 8.61061 121.461L10.1289 117.761C8.54172 117.11 7.09636 116.149 5.87614 114.933L3.05255 117.766ZM8.61052 121.461C10.6876 122.314 12.9115 122.744 15.1546 122.729L15.1278 118.73C13.4148 118.741 11.7161 118.412 10.129 117.761L8.61052 121.461ZM15.1412 122.729H105.921V118.729H15.1412V122.729ZM105.907 122.729C108.147 122.744 110.368 122.315 112.442 121.465L110.927 117.764C109.341 118.413 107.645 118.741 105.934 118.73L105.907 122.729ZM112.443 121.465C114.517 120.615 116.404 119.363 117.996 117.779L115.175 114.943C113.956 116.156 112.512 117.114 110.926 117.764L112.443 121.465ZM117.996 117.779C119.588 116.196 120.855 114.312 121.723 112.238L118.034 110.693C117.367 112.286 116.395 113.73 115.176 114.943L117.996 117.779ZM121.723 112.238C122.592 110.163 123.047 107.936 123.062 105.685L119.062 105.659C119.051 107.389 118.701 109.099 118.034 110.693L121.723 112.238ZM123.062 105.672V15.0915H119.062V105.672H123.062ZM123.062 15.0827C123.052 12.8316 122.602 10.6041 121.738 8.52724L118.045 10.0642C118.709 11.6588 119.054 13.3701 119.062 15.1003L123.062 15.0827ZM121.738 8.52718C120.874 6.45063 119.612 4.56462 118.023 2.97759L115.196 5.80768C116.413 7.02331 117.381 8.46961 118.045 10.0642L121.738 8.52718ZM118.023 2.97767C116.434 1.39069 114.55 0.133735 112.477 -0.720536L110.953 2.97764C112.537 3.63053 113.979 4.59192 115.196 5.8076L118.023 2.97767ZM112.477 -0.720477C110.405 -1.57496 108.185 -2.0096 105.945 -1.99965L105.963 2.00032C107.674 1.99271 109.369 2.32458 110.953 2.97758L112.477 -0.720477Z" fill="white" mask="url(#path-1-inside-1_101_151)"/>
</svg>
