<svg width="153" height="151" viewBox="0 0 153 151" fill="none" xmlns="http://www.w3.org/2000/svg">
<mask id="path-1-inside-1_101_98" fill="white">
<path fill-rule="evenodd" clip-rule="evenodd" d="M91.597 13.9615V18.2755H78.9104V32.2325H74.3433V18.2755H61.6567V13.9615H74.3433V0.00451088H78.9104V13.9615H91.597ZM17.2537 91.1057H12.6866V77.1487L0 77.4025V72.8347H12.6866V59.1315H17.2537V72.8347H29.9403V77.1487H17.2537V91.1057ZM112.403 61.6699H119.507V41.3687H138.537V35.2784H119.507V14.7235H112.403V35.2784H93.627V41.3687H112.403V61.6699ZM80.6864 102.018H72.3133V79.1795H51.5073V71.0591H72.3133V48.2203H80.6864V71.0591H101.746V79.1795H80.6864V102.018ZM40.5969 135.008H33.4924V114.707H14.7163V108.363H33.4924V87.8076H40.5969V108.363H59.373V114.707H40.5969V135.008ZM79.6717 150.995H73.5821V136.53H60.8955V131.201H73.5821V116.737H79.6717V131.201H92.612V136.53H79.6717V150.995ZM33.7462 61.6699H40.3432V41.115H59.373V35.2784H40.3432V14.7235H33.7462V35.2784H14.7163V41.115H33.7462V61.6699ZM140.059 92.1216H133.97V77.9108H121.283V72.328H133.97V58.1172H140.059V72.328H153V77.9108H140.059V92.1216ZM112.403 135.008H119.507V114.707H138.537V108.363H119.507V87.8076H112.403V108.363H93.627V114.707H112.403V135.008Z"/>
</mask>
<path d="M91.597 18.2755V20.2755H93.597V18.2755H91.597ZM91.597 13.9615H93.597V11.9615H91.597V13.9615ZM78.9104 18.2755V16.2755H76.9104V18.2755H78.9104ZM78.9104 32.2325V34.2325H80.9104V32.2325H78.9104ZM74.3433 32.2325H72.3433V34.2325H74.3433V32.2325ZM74.3433 18.2755H76.3433V16.2755H74.3433V18.2755ZM61.6567 18.2755H59.6567V20.2755H61.6567V18.2755ZM61.6567 13.9615V11.9615H59.6567V13.9615H61.6567ZM74.3433 13.9615V15.9615H76.3433V13.9615H74.3433ZM74.3433 0.00451088V-1.99549H72.3433V0.00451088H74.3433ZM78.9104 0.00451088H80.9104V-1.99549H78.9104V0.00451088ZM78.9104 13.9615H76.9104V15.9615H78.9104V13.9615ZM12.6866 91.1057H10.6866V93.1057H12.6866V91.1057ZM17.2537 91.1057V93.1057H19.2537V91.1057H17.2537ZM12.6866 77.1487H14.6866V75.1083L12.6466 75.1491L12.6866 77.1487ZM0 77.4025H-2V79.4429L0.0399967 79.4021L0 77.4025ZM0 72.8347V70.8347H-2V72.8347H0ZM12.6866 72.8347V74.8347H14.6866V72.8347H12.6866ZM12.6866 59.1315V57.1315H10.6866V59.1315H12.6866ZM17.2537 59.1315H19.2537V57.1315H17.2537V59.1315ZM17.2537 72.8347H15.2537V74.8347H17.2537V72.8347ZM29.9403 72.8347H31.9403V70.8347H29.9403V72.8347ZM29.9403 77.1487V79.1487H31.9403V77.1487H29.9403ZM17.2537 77.1487V75.1487H15.2537V77.1487H17.2537ZM119.507 61.6699V63.6699H121.507V61.6699H119.507ZM112.403 61.6699H110.403V63.6699H112.403V61.6699ZM119.507 41.3687V39.3687H117.507V41.3687H119.507ZM138.537 41.3687V43.3687H140.537V41.3687H138.537ZM138.537 35.2784H140.537V33.2784H138.537V35.2784ZM119.507 35.2784H117.507V37.2784H119.507V35.2784ZM119.507 14.7235H121.507V12.7235H119.507V14.7235ZM112.403 14.7235V12.7235H110.403V14.7235H112.403ZM112.403 35.2784V37.2784H114.403V35.2784H112.403ZM93.627 35.2784V33.2784H91.627V35.2784H93.627ZM93.627 41.3687H91.627V43.3687H93.627V41.3687ZM112.403 41.3687H114.403V39.3687H112.403V41.3687ZM72.3133 102.018H70.3133V104.018H72.3133V102.018ZM80.6864 102.018V104.018H82.6864V102.018H80.6864ZM72.3133 79.1795H74.3133V77.1795H72.3133V79.1795ZM51.5073 79.1795H49.5073V81.1795H51.5073V79.1795ZM51.5073 71.0591V69.0591H49.5073V71.0591H51.5073ZM72.3133 71.0591V73.0591H74.3133V71.0591H72.3133ZM72.3133 48.2203V46.2203H70.3133V48.2203H72.3133ZM80.6864 48.2203H82.6864V46.2203H80.6864V48.2203ZM80.6864 71.0591H78.6864V73.0591H80.6864V71.0591ZM101.746 71.0591H103.746V69.0591H101.746V71.0591ZM101.746 79.1795V81.1795H103.746V79.1795H101.746ZM80.6864 79.1795V77.1795H78.6864V79.1795H80.6864ZM33.4924 135.008H31.4924V137.008H33.4924V135.008ZM40.5969 135.008V137.008H42.5969V135.008H40.5969ZM33.4924 114.707H35.4924V112.707H33.4924V114.707ZM14.7163 114.707H12.7163V116.707H14.7163V114.707ZM14.7163 108.363V106.363H12.7163V108.363H14.7163ZM33.4924 108.363V110.363H35.4924V108.363H33.4924ZM33.4924 87.8076V85.8076H31.4924V87.8076H33.4924ZM40.5969 87.8076H42.5969V85.8076H40.5969V87.8076ZM40.5969 108.363H38.5969V110.363H40.5969V108.363ZM59.373 108.363H61.373V106.363H59.373V108.363ZM59.373 114.707V116.707H61.373V114.707H59.373ZM40.5969 114.707V112.707H38.5969V114.707H40.5969ZM73.5821 150.995H71.5821V152.995H73.5821V150.995ZM79.6717 150.995V152.995H81.6717V150.995H79.6717ZM73.5821 136.53H75.5821V134.53H73.5821V136.53ZM60.8955 136.53H58.8955V138.53H60.8955V136.53ZM60.8955 131.201V129.201H58.8955V131.201H60.8955ZM73.5821 131.201V133.201H75.5821V131.201H73.5821ZM73.5821 116.737V114.737H71.5821V116.737H73.5821ZM79.6717 116.737H81.6717V114.737H79.6717V116.737ZM79.6717 131.201H77.6717V133.201H79.6717V131.201ZM92.612 131.201H94.612V129.201H92.612V131.201ZM92.612 136.53V138.53H94.612V136.53H92.612ZM79.6717 136.53V134.53H77.6717V136.53H79.6717ZM40.3432 61.6699V63.6699H42.3432V61.6699H40.3432ZM33.7462 61.6699H31.7462V63.6699H33.7462V61.6699ZM40.3432 41.115V39.115H38.3432V41.115H40.3432ZM59.373 41.115V43.115H61.373V41.115H59.373ZM59.373 35.2784H61.373V33.2784H59.373V35.2784ZM40.3432 35.2784H38.3432V37.2784H40.3432V35.2784ZM40.3432 14.7235H42.3432V12.7235H40.3432V14.7235ZM33.7462 14.7235V12.7235H31.7462V14.7235H33.7462ZM33.7462 35.2784V37.2784H35.7462V35.2784H33.7462ZM14.7163 35.2784V33.2784H12.7163V35.2784H14.7163ZM14.7163 41.115H12.7163V43.115H14.7163V41.115ZM33.7462 41.115H35.7462V39.115H33.7462V41.115ZM133.97 92.1216H131.97V94.1216H133.97V92.1216ZM140.059 92.1216V94.1216H142.059V92.1216H140.059ZM133.97 77.9108H135.97V75.9108H133.97V77.9108ZM121.283 77.9108H119.283V79.9108H121.283V77.9108ZM121.283 72.328V70.328H119.283V72.328H121.283ZM133.97 72.328V74.328H135.97V72.328H133.97ZM133.97 58.1172V56.1172H131.97V58.1172H133.97ZM140.059 58.1172H142.059V56.1172H140.059V58.1172ZM140.059 72.328H138.059V74.328H140.059V72.328ZM153 72.328H155V70.328H153V72.328ZM153 77.9108V79.9108H155V77.9108H153ZM140.059 77.9108V75.9108H138.059V77.9108H140.059ZM119.507 135.008V137.008H121.507V135.008H119.507ZM112.403 135.008H110.403V137.008H112.403V135.008ZM119.507 114.707V112.707H117.507V114.707H119.507ZM138.537 114.707V116.707H140.537V114.707H138.537ZM138.537 108.363H140.537V106.363H138.537V108.363ZM119.507 108.363H117.507V110.363H119.507V108.363ZM119.507 87.8076H121.507V85.8076H119.507V87.8076ZM112.403 87.8076V85.8076H110.403V87.8076H112.403ZM112.403 108.363V110.363H114.403V108.363H112.403ZM93.627 108.363V106.363H91.627V108.363H93.627ZM93.627 114.707H91.627V116.707H93.627V114.707ZM112.403 114.707H114.403V112.707H112.403V114.707ZM93.597 18.2755V13.9615H89.597V18.2755H93.597ZM78.9104 20.2755H91.597V16.2755H78.9104V20.2755ZM80.9104 32.2325V18.2755H76.9104V32.2325H80.9104ZM74.3433 34.2325H78.9104V30.2325H74.3433V34.2325ZM72.3433 18.2755V32.2325H76.3433V18.2755H72.3433ZM61.6567 20.2755H74.3433V16.2755H61.6567V20.2755ZM59.6567 13.9615V18.2755H63.6567V13.9615H59.6567ZM74.3433 11.9615H61.6567V15.9615H74.3433V11.9615ZM72.3433 0.00451088V13.9615H76.3433V0.00451088H72.3433ZM78.9104 -1.99549H74.3433V2.00451H78.9104V-1.99549ZM80.9104 13.9615V0.00451088H76.9104V13.9615H80.9104ZM91.597 11.9615H78.9104V15.9615H91.597V11.9615ZM12.6866 93.1057H17.2537V89.1057H12.6866V93.1057ZM10.6866 77.1487V91.1057H14.6866V77.1487H10.6866ZM0.0399967 79.4021L12.7266 79.1483L12.6466 75.1491L-0.0399967 75.4029L0.0399967 79.4021ZM-2 72.8347V77.4025H2V72.8347H-2ZM12.6866 70.8347H0V74.8347H12.6866V70.8347ZM10.6866 59.1315V72.8347H14.6866V59.1315H10.6866ZM17.2537 57.1315H12.6866V61.1315H17.2537V57.1315ZM19.2537 72.8347V59.1315H15.2537V72.8347H19.2537ZM29.9403 70.8347H17.2537V74.8347H29.9403V70.8347ZM31.9403 77.1487V72.8347H27.9403V77.1487H31.9403ZM17.2537 79.1487H29.9403V75.1487H17.2537V79.1487ZM19.2537 91.1057V77.1487H15.2537V91.1057H19.2537ZM119.507 59.6699H112.403V63.6699H119.507V59.6699ZM117.507 41.3687V61.6699H121.507V41.3687H117.507ZM138.537 39.3687H119.507V43.3687H138.537V39.3687ZM136.537 35.2784V41.3687H140.537V35.2784H136.537ZM119.507 37.2784H138.537V33.2784H119.507V37.2784ZM117.507 14.7235V35.2784H121.507V14.7235H117.507ZM112.403 16.7235H119.507V12.7235H112.403V16.7235ZM114.403 35.2784V14.7235H110.403V35.2784H114.403ZM93.627 37.2784H112.403V33.2784H93.627V37.2784ZM95.627 41.3687V35.2784H91.627V41.3687H95.627ZM112.403 39.3687H93.627V43.3687H112.403V39.3687ZM114.403 61.6699V41.3687H110.403V61.6699H114.403ZM72.3133 104.018H80.6864V100.018H72.3133V104.018ZM70.3133 79.1795V102.018H74.3133V79.1795H70.3133ZM51.5073 81.1795H72.3133V77.1795H51.5073V81.1795ZM49.5073 71.0591V79.1795H53.5073V71.0591H49.5073ZM72.3133 69.0591H51.5073V73.0591H72.3133V69.0591ZM70.3133 48.2203V71.0591H74.3133V48.2203H70.3133ZM80.6864 46.2203H72.3133V50.2203H80.6864V46.2203ZM82.6864 71.0591V48.2203H78.6864V71.0591H82.6864ZM101.746 69.0591H80.6864V73.0591H101.746V69.0591ZM103.746 79.1795V71.0591H99.7461V79.1795H103.746ZM80.6864 81.1795H101.746V77.1795H80.6864V81.1795ZM82.6864 102.018V79.1795H78.6864V102.018H82.6864ZM33.4924 137.008H40.5969V133.008H33.4924V137.008ZM31.4924 114.707V135.008H35.4924V114.707H31.4924ZM14.7163 116.707H33.4924V112.707H14.7163V116.707ZM12.7163 108.363V114.707H16.7163V108.363H12.7163ZM33.4924 106.363H14.7163V110.363H33.4924V106.363ZM31.4924 87.8076V108.363H35.4924V87.8076H31.4924ZM40.5969 85.8076H33.4924V89.8076H40.5969V85.8076ZM42.5969 108.363V87.8076H38.5969V108.363H42.5969ZM59.373 106.363H40.5969V110.363H59.373V106.363ZM61.373 114.707V108.363H57.373V114.707H61.373ZM40.5969 116.707H59.373V112.707H40.5969V116.707ZM42.5969 135.008V114.707H38.5969V135.008H42.5969ZM73.5821 152.995H79.6717V148.995H73.5821V152.995ZM71.5821 136.53V150.995H75.5821V136.53H71.5821ZM60.8955 138.53H73.5821V134.53H60.8955V138.53ZM58.8955 131.201V136.53H62.8955V131.201H58.8955ZM73.5821 129.201H60.8955V133.201H73.5821V129.201ZM71.5821 116.737V131.201H75.5821V116.737H71.5821ZM79.6717 114.737H73.5821V118.737H79.6717V114.737ZM81.6717 131.201V116.737H77.6717V131.201H81.6717ZM92.612 129.201H79.6717V133.201H92.612V129.201ZM94.612 136.53V131.201H90.612V136.53H94.612ZM79.6717 138.53H92.612V134.53H79.6717V138.53ZM81.6717 150.995V136.53H77.6717V150.995H81.6717ZM40.3432 59.6699H33.7462V63.6699H40.3432V59.6699ZM38.3432 41.115V61.6699H42.3432V41.115H38.3432ZM59.373 39.115H40.3432V43.115H59.373V39.115ZM57.373 35.2784V41.115H61.373V35.2784H57.373ZM40.3432 37.2784H59.373V33.2784H40.3432V37.2784ZM38.3432 14.7235V35.2784H42.3432V14.7235H38.3432ZM33.7462 16.7235H40.3432V12.7235H33.7462V16.7235ZM35.7462 35.2784V14.7235H31.7462V35.2784H35.7462ZM14.7163 37.2784H33.7462V33.2784H14.7163V37.2784ZM16.7163 41.115V35.2784H12.7163V41.115H16.7163ZM33.7462 39.115H14.7163V43.115H33.7462V39.115ZM35.7462 61.6699V41.115H31.7462V61.6699H35.7462ZM133.97 94.1216H140.059V90.1216H133.97V94.1216ZM131.97 77.9108V92.1216H135.97V77.9108H131.97ZM121.283 79.9108H133.97V75.9108H121.283V79.9108ZM119.283 72.328V77.9108H123.283V72.328H119.283ZM133.97 70.328H121.283V74.328H133.97V70.328ZM131.97 58.1172V72.328H135.97V58.1172H131.97ZM140.059 56.1172H133.97V60.1172H140.059V56.1172ZM142.059 72.328V58.1172H138.059V72.328H142.059ZM153 70.328H140.059V74.328H153V70.328ZM155 77.9108V72.328H151V77.9108H155ZM140.059 79.9108H153V75.9108H140.059V79.9108ZM142.059 92.1216V77.9108H138.059V92.1216H142.059ZM119.507 133.008H112.403V137.008H119.507V133.008ZM117.507 114.707V135.008H121.507V114.707H117.507ZM138.537 112.707H119.507V116.707H138.537V112.707ZM136.537 108.363V114.707H140.537V108.363H136.537ZM119.507 110.363H138.537V106.363H119.507V110.363ZM117.507 87.8076V108.363H121.507V87.8076H117.507ZM112.403 89.8076H119.507V85.8076H112.403V89.8076ZM114.403 108.363V87.8076H110.403V108.363H114.403ZM93.627 110.363H112.403V106.363H93.627V110.363ZM95.627 114.707V108.363H91.627V114.707H95.627ZM112.403 112.707H93.627V116.707H112.403V112.707ZM114.403 135.008V114.707H110.403V135.008H114.403Z" fill="white" mask="url(#path-1-inside-1_101_98)"/>
</svg>
