<svg width="172" height="167" viewBox="0 0 172 167" fill="none" xmlns="http://www.w3.org/2000/svg">
<path fill-rule="evenodd" clip-rule="evenodd" d="M64.36 157.449C64.3813 159.912 64.3976 161.808 64.3976 162.734C64.3976 164.996 62.8268 167.645 58.5481 166.853C24.531 155.532 0 123.44 0 85.614C0 38.3298 38.3369 -1.52588e-05 85.614 -1.52588e-05C132.895 -1.52588e-05 171.227 38.3298 171.227 85.614C171.227 123.428 146.727 155.508 112.728 166.842C108.388 167.682 106.847 165.013 106.847 162.734C106.847 161.799 106.858 160.16 106.873 157.97V157.969V157.969V157.969V157.968V157.966C106.902 153.551 106.947 146.894 106.947 139.24C106.947 132.784 105.159 128.142 102.852 125.197C102.305 124.498 101.728 123.895 101.14 123.385C101.983 123.291 102.829 123.188 103.675 123.072C121.938 120.574 140.232 112.57 140.232 81.1424C140.232 71.7953 136.91 64.158 131.421 58.1624C132.31 56.0047 135.242 47.2984 130.582 35.5057C130.582 35.5057 123.402 33.2047 107.061 44.2814C100.22 42.3845 92.8898 41.4332 85.614 41.4006C78.3382 41.4332 71.0142 42.3845 64.185 44.2814C47.8244 33.2047 40.6351 35.5057 40.6351 35.5057C35.9863 47.2984 38.9167 56.0047 39.8057 58.1624C34.329 64.158 30.9845 71.7953 30.9845 81.1424C30.9845 112.5 49.2493 120.591 67.4694 123.135C68.3105 123.252 69.1515 123.358 69.9906 123.453C69.4068 123.963 68.8361 124.565 68.295 125.263C66.5666 127.491 65.1402 130.687 64.555 134.901C64.0421 135.131 63.4464 135.378 62.7822 135.622C62.3624 135.776 61.9152 135.928 61.4442 136.074C61.439 136.075 61.4338 136.077 61.4287 136.078C60.751 136.287 60.0243 136.482 59.2592 136.646C58.7053 136.765 58.1312 136.867 57.541 136.948C56.8369 137.045 56.1098 137.11 55.3666 137.133C55.3654 137.133 55.3641 137.133 55.3629 137.133C54.623 137.157 53.8672 137.139 53.1022 137.069C52.5729 137.021 52.0392 136.948 51.5033 136.848C50.7368 136.703 49.9659 136.502 49.1971 136.233C49.1936 136.232 49.1901 136.231 49.1866 136.23C48.5253 135.998 47.8657 135.717 47.2118 135.379C46.7944 135.164 46.3794 134.925 45.9678 134.663C45.3674 134.279 44.7743 133.844 44.1919 133.352C44.1883 133.349 44.1847 133.346 44.1812 133.343C43.569 132.824 42.9688 132.242 42.3842 131.592C42.1305 131.309 41.8797 131.013 41.6322 130.704C41.1756 130.134 40.7301 129.518 40.2979 128.853C40.2922 128.844 40.2864 128.835 40.2807 128.826C40.0641 128.492 39.8509 128.145 39.6412 127.786C39.6412 127.786 39.4712 127.477 39.1344 126.975C38.8768 126.59 38.5218 126.093 38.0708 125.534C37.6732 125.042 37.2009 124.501 36.655 123.948C36.6522 123.945 36.6494 123.942 36.6466 123.939C36.1275 123.414 35.5419 122.877 34.8908 122.36C34.7256 122.229 34.5561 122.098 34.3824 121.97C33.6857 121.455 32.9214 120.968 32.0904 120.541C32.0855 120.538 32.0806 120.536 32.0758 120.533C31.3654 120.169 30.6064 119.848 29.7992 119.591C28.7814 119.267 27.687 119.044 26.5173 118.962C26.5173 118.962 18.164 118.853 25.9318 124.166C25.9318 124.166 31.5431 126.798 35.4376 136.693C35.4376 136.693 40.1801 151.112 62.2835 147.19C62.9343 147.074 63.6002 146.943 64.2814 146.795C64.2849 147.481 64.2889 148.163 64.2931 148.837C64.3127 151.986 64.3385 154.971 64.3596 157.406L64.3597 157.414L64.3597 157.421L64.3598 157.429L64.3599 157.436L64.36 157.442L64.36 157.449ZM62.36 157.457L62.3601 157.463L62.3601 157.466C62.3814 159.935 62.3976 161.819 62.3976 162.734C62.3976 163.446 62.1461 164.081 61.7296 164.461C61.3824 164.778 60.6363 165.177 59.0417 164.909C25.889 153.812 2 122.503 2 85.614C2 39.4344 39.4414 1.99998 85.614 1.99998C131.791 1.99998 169.227 39.4343 169.227 85.614C169.227 122.494 145.364 153.793 112.226 164.901C110.59 165.192 109.845 164.788 109.509 164.481C109.101 164.108 108.847 163.471 108.847 162.734C108.847 161.808 108.858 160.178 108.873 157.983V157.98C108.873 157.976 108.873 157.973 108.873 157.97C108.902 153.554 108.947 146.896 108.947 139.24C108.947 133.022 107.373 128.227 105.102 124.888C113.603 123.616 122.276 121.061 129.119 115.334C137.069 108.679 142.232 98.0215 142.232 81.1424C142.232 71.7473 139.038 63.9405 133.712 57.7329C134.912 54.163 136.755 45.6852 132.442 34.7706L132.094 33.8901L131.192 33.6011L130.582 35.5057C131.192 33.6011 131.19 33.6005 131.188 33.5998L131.184 33.5985L131.175 33.5958L131.156 33.5899C131.142 33.5857 131.126 33.581 131.109 33.5761C131.074 33.5661 131.032 33.5547 130.982 33.5423C130.883 33.5175 130.755 33.4889 130.597 33.4604C130.282 33.4033 129.849 33.3467 129.296 33.3213C128.19 33.2705 126.612 33.3451 124.537 33.7828C120.517 34.6306 114.646 36.8364 106.704 42.1127C99.9364 40.3258 92.7485 39.4326 85.623 39.4006L85.614 39.4006L85.6051 39.4006C78.48 39.4326 71.2975 40.3257 64.5414 42.1126C56.589 36.8361 50.7113 34.6304 46.687 33.7827C44.6093 33.3451 43.03 33.2705 41.9224 33.3213C41.3692 33.3467 40.9363 33.4032 40.6204 33.4603C40.4626 33.4888 40.3343 33.5174 40.2352 33.5421C40.1856 33.5545 40.1434 33.5659 40.1084 33.5759C40.091 33.5808 40.0753 33.5854 40.0615 33.5896L40.0421 33.5956L40.0334 33.5983L40.0293 33.5996C40.0273 33.6002 40.0254 33.6008 40.6351 35.5057L40.0254 33.6008L39.1222 33.8899L38.7744 34.7722C34.4716 45.6874 36.3148 54.1652 37.5146 57.7342C32.201 63.9387 28.9845 71.7441 28.9845 81.1424C28.9845 97.983 34.138 108.643 42.0687 115.318C48.9026 121.07 57.5653 123.656 66.0546 124.949C64.5622 127.164 63.378 130.016 62.7544 133.492C60.3963 134.43 56.935 135.404 53.3074 135.08C49.2772 134.72 44.8594 132.751 41.3772 126.793L41.3679 126.776C41.3549 126.753 41.3374 126.723 41.3153 126.685C41.2712 126.609 41.2087 126.505 41.1282 126.375C40.9671 126.116 40.7328 125.756 40.4256 125.327C39.8132 124.472 38.9012 123.328 37.6925 122.161C35.2889 119.84 31.5886 117.312 26.6571 116.967L26.6003 116.963L26.5434 116.962L26.5173 118.962C26.5434 116.962 26.5428 116.962 26.5421 116.962L26.5406 116.962L26.5369 116.962L26.5274 116.962L26.4992 116.962C26.4765 116.962 26.4461 116.962 26.4086 116.962C26.3337 116.963 26.2301 116.964 26.1042 116.969C25.8542 116.977 25.5068 116.997 25.1148 117.04C24.4103 117.117 23.258 117.3 22.3212 117.834C21.8312 118.113 21.2149 118.593 20.8697 119.386C20.4975 120.241 20.5831 121.125 20.902 121.885C21.4566 123.207 22.8436 124.477 24.8026 125.817L24.9361 125.908L25.0695 125.971C25.0718 125.972 25.0749 125.974 25.0789 125.976C25.0981 125.986 25.1371 126.006 25.1943 126.039C25.3085 126.103 25.4952 126.215 25.7405 126.383C26.2309 126.718 26.9567 127.278 27.8081 128.131C29.501 129.829 31.7178 132.718 33.561 137.386C33.5634 137.393 33.5659 137.4 33.5686 137.408C33.5844 137.452 33.6059 137.511 33.6336 137.583C33.6888 137.726 33.7688 137.922 33.8771 138.162C34.0934 138.642 34.424 139.299 34.8983 140.059C35.8464 141.578 37.3778 143.525 39.7284 145.287C44.1821 148.624 51.298 151.094 62.2954 149.218C62.3148 152.234 62.3394 155.083 62.3597 157.423V157.424L62.3598 157.431L62.3598 157.432L62.3598 157.44L62.3598 157.44L62.3599 157.447L62.3599 157.448L62.36 157.455L62.36 157.456L62.36 157.457ZM30.4718 122.799C30.1588 122.513 30.0149 122.142 30.1338 121.839C30.1386 121.827 30.1438 121.815 30.1494 121.803C30.2834 121.485 30.6748 121.334 31.1167 121.387C31.2803 121.407 31.4509 121.455 31.6179 121.532C31.6199 121.533 31.6219 121.534 31.6238 121.535C31.6344 121.54 31.6448 121.545 31.6552 121.55C31.8133 121.625 31.9532 121.719 32.0698 121.826C32.3979 122.125 32.5414 122.519 32.3851 122.828C32.3632 122.878 32.3347 122.923 32.3006 122.965C32.1213 123.182 31.7858 123.282 31.4177 123.237C31.5866 123.142 31.7764 122.985 31.9189 122.73C31.7059 122.604 31.4877 122.482 31.2645 122.365C31.2604 122.363 31.2564 122.361 31.2523 122.359C31.2506 122.358 31.249 122.357 31.2473 122.356C31.245 122.355 31.2427 122.354 31.2403 122.353C31.0174 122.237 30.7893 122.126 30.5563 122.021C30.4295 122.321 30.4309 122.592 30.4718 122.799ZM34.1644 124.354C34.5941 124.238 35.1683 124.447 35.6105 124.916C36.0107 125.348 36.1806 125.876 36.0893 126.282C36.0529 126.444 35.9747 126.586 35.8529 126.696C35.4446 127.074 34.6465 126.898 34.1049 126.3C33.5449 125.703 33.44 124.905 33.854 124.521C33.9433 124.441 34.0486 124.386 34.1644 124.354ZM34.5058 125.217C34.5049 125.218 34.5039 125.219 34.5029 125.22L34.8535 125.598L34.8637 125.609L34.8715 125.601L35.1876 125.308C35.1835 125.304 35.1793 125.3 35.1752 125.296C35.09 125.21 35.0029 125.124 34.9138 125.038C34.8962 125.021 34.8784 125.004 34.8606 124.987C34.75 125.034 34.6332 125.104 34.5175 125.207C34.5136 125.21 34.5097 125.214 34.5058 125.217ZM35.4899 125.62C35.4317 125.74 35.3447 125.865 35.2159 125.985C35.2154 125.986 35.215 125.986 35.2145 125.987L34.8695 125.615L34.8772 125.608L35.0579 125.437L35.191 125.312C35.1919 125.313 35.1928 125.314 35.1936 125.314C35.2952 125.417 35.3939 125.519 35.4899 125.62ZM34.8502 125.633L35.1883 126.011C34.7836 126.373 34.3568 126.331 34.2381 126.304C34.2048 126.297 34.18 126.289 34.1625 126.282L34.8502 125.633ZM34.1604 126.297C34.1606 126.297 34.1594 126.295 34.1567 126.291C34.1589 126.295 34.1603 126.297 34.1604 126.297ZM34.1282 126.264C34.1282 126.264 34.1297 126.265 34.133 126.267C34.1298 126.265 34.1281 126.264 34.1282 126.264ZM34.1479 126.272C34.1468 126.27 34.1457 126.267 34.1446 126.264C34.1445 126.264 34.1444 126.263 34.1443 126.263C34.1361 126.241 34.1267 126.207 34.1202 126.16C34.1015 126.023 34.1055 125.596 34.4906 125.232L34.8345 125.616L34.8444 125.627L34.6657 125.792L34.1479 126.272ZM37.3277 128.848C37.4832 128.741 37.6656 128.693 37.8592 128.698C37.8952 128.699 37.9317 128.702 37.9684 128.707C37.9688 128.707 37.9692 128.707 37.9696 128.707C37.9938 128.71 38.0182 128.714 38.0427 128.719C38.4622 128.798 38.9104 129.101 39.2416 129.566C39.6334 130.146 39.7318 130.804 39.5314 131.254C39.4642 131.405 39.3634 131.533 39.2288 131.626C38.7043 131.991 37.8466 131.649 37.3163 130.888C36.7918 130.126 36.7918 129.213 37.3277 128.848ZM37.6417 130.648C37.6679 130.496 37.7632 130.21 38.0866 129.985L38.2581 130.231L37.6417 130.648ZM38.2592 130.23L38.0879 129.984C38.0913 129.981 38.0948 129.979 38.0983 129.977C38.0997 129.976 38.1011 129.975 38.1025 129.974C38.2525 129.872 38.397 129.819 38.5248 129.793C38.5622 129.852 38.5997 129.91 38.6374 129.968L38.294 130.207L38.2727 130.221L38.2676 130.225L38.2592 130.23ZM38.4613 130.495C38.6057 130.395 38.7055 130.283 38.7743 130.176ZM38.7743 130.176C38.7329 130.113 38.6916 130.051 38.6504 129.988L38.2891 130.245L38.2839 130.249L38.2759 130.254L38.449 130.504C38.4511 130.502 38.4531 130.501 38.4552 130.499C38.4564 130.499 38.4576 130.498 38.4588 130.497M38.4481 130.504C38.1272 130.719 37.8301 130.711 37.6742 130.683L38.2748 130.255L38.4481 130.504ZM41.5524 133.626C42.0745 133.448 42.8101 133.658 43.3836 134.202C43.9037 134.685 44.1709 135.313 44.1126 135.822C44.0877 136.04 44.003 136.237 43.8529 136.39C43.3836 136.907 42.3841 136.769 41.6526 136.063C40.904 135.372 40.6956 134.392 41.1663 133.875C41.2718 133.76 41.4034 133.677 41.5524 133.626ZM42.4098 135.006C42.4144 135.001 42.419 134.997 42.4236 134.992C42.5407 134.878 42.6605 134.808 42.7678 134.766C42.7827 134.778 42.7975 134.791 42.8123 134.804C42.8126 134.804 42.8128 134.804 42.813 134.804C42.8153 134.806 42.8176 134.808 42.8199 134.81C42.8274 134.817 42.835 134.823 42.8425 134.83C42.851 134.837 42.8595 134.844 42.8679 134.851C42.8305 134.963 42.7646 135.088 42.6511 135.215C42.6494 135.217 42.6476 135.219 42.6458 135.221L42.5496 135.133L42.5338 135.119L42.528 135.113L42.5227 135.109L42.4098 135.006ZM42.4061 135.01L42.5188 135.113L42.5241 135.118L42.5299 135.123L42.5455 135.137L42.6416 135.225C42.6304 135.238 42.6191 135.249 42.6078 135.261C42.4545 135.416 42.2963 135.492 42.1669 135.53C42.1605 135.531 42.1541 135.533 42.1478 135.535C42.1441 135.536 42.1403 135.537 42.1366 135.538C42.1357 135.538 42.1348 135.538 42.134 135.538C42.1355 135.53 42.1372 135.521 42.1391 135.513C42.1392 135.512 42.1393 135.511 42.1395 135.511C42.1699 135.368 42.2417 135.2 42.3722 135.047C42.3809 135.037 42.3898 135.027 42.399 135.017C42.4014 135.015 42.4037 135.012 42.4061 135.01ZM47.1075 137.549C47.5257 137.273 48.1768 137.198 48.8323 137.402C49.55 137.619 50.0849 138.105 50.2307 138.619C50.2813 138.798 50.285 138.98 50.2331 139.156C50.0261 139.827 49.0634 140.131 48.0937 139.846C47.1254 139.553 46.4917 138.768 46.6873 138.09C46.7535 137.868 46.9026 137.685 47.1075 137.549ZM48.3233 138.562C48.385 138.365 48.4815 138.227 48.5744 138.134C48.5813 138.136 48.5881 138.139 48.5949 138.141L48.4825 138.523L48.4595 138.602L48.4582 138.601L48.3233 138.562ZM48.4701 138.605L48.6091 138.146C48.6179 138.149 48.6267 138.152 48.6354 138.155C48.661 138.283 48.6655 138.448 48.6089 138.645L48.4701 138.605ZM48.6001 138.674L48.4615 138.633L48.3071 139.142C48.4124 139.049 48.5297 138.902 48.6001 138.674ZM48.3005 139.143C48.2987 139.136 48.297 139.13 48.2954 139.123C48.2623 138.988 48.2507 138.807 48.3149 138.59L48.4494 138.629L48.4512 138.63L48.3005 139.143ZM53.7737 139.12C54.0785 138.712 54.6808 138.432 55.388 138.42C56.0662 138.407 56.6625 138.654 56.9851 139.028C57.1467 139.216 57.2396 139.435 57.2396 139.669C57.2637 140.375 56.4414 140.961 55.4234 140.974C54.3998 140.996 53.5719 140.425 53.5605 139.73C53.5605 139.51 53.6373 139.302 53.7737 139.12ZM55.2411 139.73C55.2412 139.733 55.2413 139.735 55.2414 139.737C55.2542 139.968 55.3306 140.137 55.4074 140.25C55.4097 140.254 55.412 140.257 55.4143 140.26C55.4143 140.26 55.4144 140.26 55.4145 140.26C55.4158 140.258 55.4171 140.256 55.4185 140.254C55.4202 140.251 55.4219 140.248 55.4236 140.245C55.4946 140.129 55.5605 139.958 55.5605 139.73H55.454H55.4135H55.4098H55.4078H55.3959H55.2411ZM55.24 139.703L55.3952 139.7L55.4075 139.7L55.4093 139.7L55.4129 139.7L55.5603 139.698C55.5601 139.688 55.5599 139.679 55.5595 139.669C55.5504 139.436 55.4774 139.266 55.4022 139.151C55.4017 139.15 55.4011 139.149 55.4006 139.148C55.4004 139.148 55.4002 139.148 55.4001 139.148C55.3984 139.145 55.3967 139.143 55.395 139.14C55.391 139.146 55.3871 139.152 55.3832 139.159C55.3118 139.276 55.2451 139.445 55.2403 139.669C55.24 139.68 55.2399 139.692 55.24 139.703ZM60.3044 138.459C60.5708 138.059 61.0878 137.736 61.7129 137.621C62.15 137.545 62.5673 137.579 62.9108 137.699C63.3627 137.856 63.6868 138.161 63.7601 138.559C63.882 139.248 63.1746 139.956 62.1637 140.144C61.1699 140.326 60.2498 139.901 60.1236 139.217C60.078 138.956 60.1479 138.694 60.3044 138.459ZM61.9285 138.883L61.7907 138.908C61.7504 138.68 61.7833 138.498 61.8322 138.367L61.9285 138.883ZM61.8457 138.341C61.9415 138.446 62.0453 138.61 62.0904 138.854L61.9896 138.873L61.945 138.88L61.8457 138.341ZM61.9483 138.898L62.0445 139.42C62.0964 139.291 62.1346 139.107 62.0938 138.873L61.9483 138.898ZM62.0237 139.41C61.9317 139.307 61.836 139.15 61.7939 138.925L61.9318 138.901L61.9816 139.168L62.0237 139.41ZM61.9066 138.736L61.8369 138.355C61.8377 138.353 61.8385 138.351 61.8393 138.349L61.9066 138.736Z" fill="white"/>
</svg>
