<svg width="158" height="158" viewBox="0 0 158 158" fill="none" xmlns="http://www.w3.org/2000/svg">
<mask id="path-1-inside-1_101_66" fill="white">
<path fill-rule="evenodd" clip-rule="evenodd" d="M57.9356 33.0694C48.8351 33.0694 41.4009 25.6352 41.4009 16.5347C41.4009 7.43421 48.8351 0 57.9356 0C67.0361 0 74.4703 7.43421 74.4703 16.5347V33.0694H57.9356ZM16.5347 115.999C25.6352 115.999 33.0694 108.565 33.0694 99.4645V82.9298H16.5347C7.43421 82.9298 0 90.364 0 99.4645C0 108.565 7.43421 115.999 16.5347 115.999ZM57.9356 82.9298C48.8351 82.9298 41.4009 90.364 41.4009 99.4645V140.865C41.4009 149.966 48.8351 157.4 57.9356 157.4C67.0361 157.4 74.4703 149.966 74.4703 140.865V99.4645C74.4703 90.364 67.0361 82.9298 57.9356 82.9298ZM74.4702 57.9355C74.4702 48.835 67.036 41.4008 57.9355 41.4008H16.5347C7.43421 41.4008 0 48.835 0 57.9355C0 67.036 7.43421 74.4702 16.5347 74.4702H57.9355C67.036 74.4702 74.4702 67.036 74.4702 57.9355ZM124.331 57.9355C124.331 48.835 131.765 41.4008 140.865 41.4008C149.966 41.4008 157.4 48.835 157.4 57.9355C157.4 67.036 149.966 74.4702 140.865 74.4702H124.331V57.9355ZM99.4644 74.4702C108.565 74.4702 115.999 67.036 115.999 57.9355V16.5347C115.999 7.43421 108.565 0 99.4644 0C90.3639 0 82.9297 7.43421 82.9297 16.5347V57.9355C82.9297 67.036 90.3639 74.4702 99.4644 74.4702ZM99.4644 124.331C108.565 124.331 115.999 131.765 115.999 140.865C115.999 149.966 108.565 157.4 99.4644 157.4C90.3639 157.4 82.9297 149.966 82.9297 140.865V124.331H99.4644ZM82.9297 99.4645C82.9297 108.565 90.3639 115.999 99.4644 115.999H140.865C149.966 115.999 157.4 108.565 157.4 99.4645C157.4 90.364 149.966 82.9298 140.865 82.9298H99.4644C90.3639 82.9298 82.9297 90.364 82.9297 99.4645Z"/>
</mask>
<path d="M74.4703 33.0694V35.0694H76.4703V33.0694H74.4703ZM33.0694 82.9298H35.0694V80.9298H33.0694V82.9298ZM124.331 74.4702H122.331V76.4702H124.331V74.4702ZM82.9297 124.331V122.331H80.9297V124.331H82.9297ZM39.4009 16.5347C39.4009 26.7398 47.7305 35.0694 57.9356 35.0694V31.0694C49.9397 31.0694 43.4009 24.5306 43.4009 16.5347H39.4009ZM57.9356 -2C47.7305 -2 39.4009 6.32964 39.4009 16.5347H43.4009C43.4009 8.53878 49.9397 2 57.9356 2V-2ZM76.4703 16.5347C76.4703 6.32964 68.1406 -2 57.9356 -2V2C65.9315 2 72.4703 8.53877 72.4703 16.5347H76.4703ZM76.4703 33.0694V16.5347H72.4703V33.0694H76.4703ZM57.9356 35.0694H74.4703V31.0694H57.9356V35.0694ZM31.0694 99.4645C31.0694 107.46 24.5306 113.999 16.5347 113.999V117.999C26.7398 117.999 35.0694 109.67 35.0694 99.4645H31.0694ZM31.0694 82.9298V99.4645H35.0694V82.9298H31.0694ZM16.5347 84.9298H33.0694V80.9298H16.5347V84.9298ZM2 99.4645C2 91.4686 8.53877 84.9298 16.5347 84.9298V80.9298C6.32964 80.9298 -2 89.2595 -2 99.4645H2ZM16.5347 113.999C8.53878 113.999 2 107.46 2 99.4645H-2C-2 109.67 6.32964 117.999 16.5347 117.999V113.999ZM43.4009 99.4645C43.4009 91.4686 49.9397 84.9298 57.9356 84.9298V80.9298C47.7305 80.9298 39.4009 89.2595 39.4009 99.4645H43.4009ZM43.4009 140.865V99.4645H39.4009V140.865H43.4009ZM57.9356 155.4C49.9397 155.4 43.4009 148.861 43.4009 140.865H39.4009C39.4009 151.07 47.7305 159.4 57.9356 159.4V155.4ZM72.4703 140.865C72.4703 148.861 65.9315 155.4 57.9356 155.4V159.4C68.1406 159.4 76.4703 151.07 76.4703 140.865H72.4703ZM72.4703 99.4645V140.865H76.4703V99.4645H72.4703ZM57.9356 84.9298C65.9315 84.9298 72.4703 91.4686 72.4703 99.4645H76.4703C76.4703 89.2595 68.1406 80.9298 57.9356 80.9298V84.9298ZM57.9355 43.4008C65.9314 43.4008 72.4702 49.9396 72.4702 57.9355H76.4702C76.4702 47.7305 68.1406 39.4008 57.9355 39.4008V43.4008ZM16.5347 43.4008H57.9355V39.4008H16.5347V43.4008ZM2 57.9355C2 49.9396 8.53877 43.4008 16.5347 43.4008V39.4008C6.32964 39.4008 -2 47.7305 -2 57.9355H2ZM16.5347 72.4702C8.53877 72.4702 2 65.9314 2 57.9355H-2C-2 68.1406 6.32964 76.4702 16.5347 76.4702V72.4702ZM57.9355 72.4702H16.5347V76.4702H57.9355V72.4702ZM72.4702 57.9355C72.4702 65.9314 65.9314 72.4702 57.9355 72.4702V76.4702C68.1406 76.4702 76.4702 68.1406 76.4702 57.9355H72.4702ZM140.865 39.4008C130.66 39.4008 122.331 47.7305 122.331 57.9355H126.331C126.331 49.9396 132.869 43.4008 140.865 43.4008V39.4008ZM159.4 57.9355C159.4 47.7305 151.07 39.4008 140.865 39.4008V43.4008C148.861 43.4008 155.4 49.9396 155.4 57.9355H159.4ZM140.865 76.4702C151.07 76.4702 159.4 68.1406 159.4 57.9355H155.4C155.4 65.9314 148.861 72.4702 140.865 72.4702V76.4702ZM124.331 76.4702H140.865V72.4702H124.331V76.4702ZM122.331 57.9355V74.4702H126.331V57.9355H122.331ZM113.999 57.9355C113.999 65.9314 107.46 72.4702 99.4644 72.4702V76.4702C109.669 76.4702 117.999 68.1406 117.999 57.9355H113.999ZM113.999 16.5347V57.9355H117.999V16.5347H113.999ZM99.4644 2C107.46 2 113.999 8.53878 113.999 16.5347H117.999C117.999 6.32963 109.669 -2 99.4644 -2V2ZM84.9297 16.5347C84.9297 8.53877 91.4685 2 99.4644 2V-2C89.2593 -2 80.9297 6.32964 80.9297 16.5347H84.9297ZM84.9297 57.9355V16.5347H80.9297V57.9355H84.9297ZM99.4644 72.4702C91.4685 72.4702 84.9297 65.9314 84.9297 57.9355H80.9297C80.9297 68.1406 89.2593 76.4702 99.4644 76.4702V72.4702ZM117.999 140.865C117.999 130.66 109.669 122.331 99.4644 122.331V126.331C107.46 126.331 113.999 132.869 113.999 140.865H117.999ZM99.4644 159.4C109.669 159.4 117.999 151.07 117.999 140.865H113.999C113.999 148.861 107.46 155.4 99.4644 155.4V159.4ZM80.9297 140.865C80.9297 151.07 89.2593 159.4 99.4644 159.4V155.4C91.4685 155.4 84.9297 148.861 84.9297 140.865H80.9297ZM80.9297 124.331V140.865H84.9297V124.331H80.9297ZM99.4644 122.331H82.9297V126.331H99.4644V122.331ZM99.4644 113.999C91.4685 113.999 84.9297 107.46 84.9297 99.4645H80.9297C80.9297 109.67 89.2593 117.999 99.4644 117.999V113.999ZM140.865 113.999H99.4644V117.999H140.865V113.999ZM155.4 99.4645C155.4 107.46 148.861 113.999 140.865 113.999V117.999C151.07 117.999 159.4 109.67 159.4 99.4645H155.4ZM140.865 84.9298C148.861 84.9298 155.4 91.4686 155.4 99.4645H159.4C159.4 89.2595 151.07 80.9298 140.865 80.9298V84.9298ZM99.4644 84.9298H140.865V80.9298H99.4644V84.9298ZM84.9297 99.4645C84.9297 91.4686 91.4685 84.9298 99.4644 84.9298V80.9298C89.2593 80.9298 80.9297 89.2595 80.9297 99.4645H84.9297Z" fill="white" mask="url(#path-1-inside-1_101_66)"/>
</svg>
