<svg width="107" height="160" viewBox="0 0 107 160" fill="none" xmlns="http://www.w3.org/2000/svg">
<g clip-path="url(#clip0_101_129)">
<path fill-rule="evenodd" clip-rule="evenodd" d="M2.01123 26.6667C2.01123 13.0553 13.084 2 26.7349 2H51.4585V51.3333H26.7349C13.084 51.3333 2.01123 40.2781 2.01123 26.6667ZM0.0112305 26.6667C0.0112305 11.9467 11.9834 0 26.7349 0H51.4585H53.458H53.4585H55.458H80.1816C94.9331 0 106.905 11.9467 106.905 26.6667C106.905 41.3716 94.9576 53.3088 80.2271 53.3333C94.9576 53.3578 106.905 65.295 106.905 79.9999C106.905 94.7199 94.9331 106.667 80.1816 106.667C65.4302 106.667 53.458 94.7199 53.458 79.9999C53.458 65.3014 65.3953 53.3681 80.1171 53.3333H55.458H53.4585H53.458V55.3333V104.667V106.667H51.458H26.7344C11.9829 106.667 0.0107422 94.7199 0.0107422 79.9999C0.0107422 65.295 11.9584 53.3578 26.689 53.3333C11.9586 53.3085 0.0112305 41.3714 0.0112305 26.6667ZM26.7344 55.3333C13.0835 55.3333 2.01074 66.3885 2.01074 79.9999C2.01074 93.6113 13.0835 104.667 26.7344 104.667H51.458V55.3333H26.7344ZM26.7344 158C40.3853 158 51.458 146.945 51.458 133.333V108.667H26.7344C13.0835 108.667 2.01074 119.722 2.01074 133.333C2.01074 146.945 13.0835 158 26.7344 158ZM51.458 106.667H26.7344C11.9829 106.667 0.0107422 118.613 0.0107422 133.333C0.0107422 148.053 11.9829 160 26.7344 160C41.4858 160 53.458 148.053 53.458 133.333V108.667V106.667H51.458ZM80.1816 2H55.458V51.3333H80.1816C93.8325 51.3333 104.905 40.2781 104.905 26.6667C104.905 13.0553 93.8325 2 80.1816 2ZM104.905 79.9999C104.905 93.6113 93.8325 104.667 80.1816 104.667C66.5307 104.667 55.458 93.6113 55.458 79.9999C55.458 66.3885 66.5307 55.3333 80.1816 55.3333C93.8325 55.3333 104.905 66.3885 104.905 79.9999Z" fill="white"/>
</g>
<defs>
<clipPath id="clip0_101_129">
<rect width="106.916" height="160" fill="white"/>
</clipPath>
</defs>
</svg>
