<svg width="161" height="161" viewBox="0 0 161 161" fill="none" xmlns="http://www.w3.org/2000/svg">
<g clip-path="url(#clip0_101_116)">
<path d="M141.133 81.7003C141.133 84.5259 140.011 87.2357 138.013 89.2337C136.015 91.2317 133.305 92.3541 130.479 92.3541H100.675C97.8496 92.3541 95.1397 91.2317 93.1418 89.2337C91.1438 87.2357 90.0213 84.5259 90.0213 81.7003L90.0213 30.6246L90.0213 30.622M141.133 81.7003H91.0213C91.0213 84.2607 92.0384 86.7161 93.8489 88.5266C95.6593 90.337 98.1148 91.3541 100.675 91.3541H130.479C133.04 91.3541 135.495 90.337 137.306 88.5266C139.116 86.7161 140.133 84.2607 140.133 81.7003V30.5964C140.133 28.0361 139.116 25.5806 137.306 23.7702C135.495 21.9597 133.04 20.9426 130.479 20.9426H100.675C99.4052 20.9426 98.1478 21.1932 96.9749 21.6799C95.8019 22.1667 94.7366 22.88 93.8398 23.7792C92.943 24.6783 92.2325 25.7456 91.7488 26.9198C91.2652 28.094 91.018 29.3521 91.0213 30.622H90.0213M141.133 81.7003V30.5964C141.133 27.7709 140.011 25.061 138.013 23.0631C136.015 21.0651 133.305 19.9426 130.479 19.9426H100.675C99.2737 19.9426 97.886 20.2191 96.5916 20.7563C95.2972 21.2935 94.1214 22.0807 93.1318 23.073C92.1421 24.0653 91.3579 25.2431 90.8242 26.5389C90.2908 27.834 90.018 29.2214 90.0213 30.622M141.133 81.7003L90.0213 30.622M1.0508 20.1254L1.0508 20.1241C1.04761 17.6085 1.54074 15.117 2.50194 12.7923C3.46315 10.4676 4.87355 8.35532 6.65234 6.57652L6.02381 5.94798L6.65235 6.57652C10.239 2.98991 15.1034 0.974977 20.1757 0.974976H139.925V1.02099L140.92 1.02604C145.975 1.0517 150.815 3.07796 154.38 6.66179C157.946 10.2456 159.948 15.0955 159.948 20.1509V140.875C159.948 145.93 157.946 150.78 154.38 154.364C150.815 157.947 145.977 159.973 140.923 159.999C140.922 159.999 140.921 159.999 140.92 159.999L20.1757 159.999C15.1034 159.999 10.239 157.984 6.65234 154.398C3.06573 150.811 1.0508 145.947 1.0508 140.875L1.0508 20.1254ZM71.0791 121.961H71.0792V121.95V30.5964C71.0792 27.7709 69.9568 25.061 67.9588 23.0631C65.9608 21.0651 63.251 19.9426 60.4254 19.9426H30.7005C29.2952 19.9355 27.9024 20.2065 26.6022 20.74C25.3013 21.2739 24.1189 22.06 23.1232 23.053C22.1276 24.046 21.3384 25.2263 20.8011 26.5259C20.2641 27.8249 19.9894 29.2175 19.9929 30.6232L19.9929 121.95L19.993 121.961C20.0227 124.776 21.166 127.466 23.173 129.441C25.1792 131.416 27.8854 132.516 30.7002 132.502C30.7012 132.502 30.7022 132.502 30.7032 132.502L60.4253 132.502C63.2315 132.502 65.9244 131.395 67.9191 129.421C69.9139 127.448 71.0495 124.767 71.0791 121.961Z" stroke="white" stroke-width="2"/>
</g>
<defs>
<clipPath id="clip0_101_116">
<rect width="161" height="161" fill="white"/>
</clipPath>
</defs>
</svg>
