<svg width="160" height="167" viewBox="0 0 160 167" fill="none" xmlns="http://www.w3.org/2000/svg">
<path d="M32.0251 51.5239H32.0248V50.5239C32.0248 48.3588 32.3496 46.5434 33.3652 45.223C34.414 43.8596 36.033 43.2293 38.1196 43.0539L38.1323 43.0528L38.1451 43.0521L143.351 36.9088C145.368 36.7298 147.024 37.2808 148.133 38.6525C149.194 39.9647 149.61 41.8568 149.61 44.0504V139.803C149.61 141.904 149.461 144.108 148.409 145.829C147.295 147.65 145.316 148.721 142.188 148.894L32.0251 51.5239ZM32.0251 51.5239V146.923C32.0251 149.661 32.7109 151.807 34.4262 153.168C36.0951 154.493 38.5099 154.884 41.496 154.72L41.4989 154.72L142.185 148.894L32.0251 51.5239ZM17.4099 14.9115L17.3969 14.9124L17.384 14.9137C15.6804 15.0826 14.3191 15.6147 13.6579 16.6053C13.3065 17.1317 13.1927 17.7385 13.3168 18.3389C13.4363 18.9171 13.7613 19.4273 14.1801 19.8488L14.2216 19.8906L14.2678 19.9272L26.8985 29.9519C29.549 32.1048 31.4909 33.1952 34.085 33.5979C36.3605 33.9511 39.1181 33.7644 43.2421 33.4851C43.6239 33.4592 44.0173 33.4326 44.4231 33.4055C44.4241 33.4054 44.4252 33.4054 44.4262 33.4053L136.011 27.9061C136.582 27.901 137.31 27.7597 137.698 27.1114C138.076 26.4783 137.852 25.8118 137.698 25.4779C137.518 25.0879 137.243 24.7276 136.985 24.4517C136.761 24.2126 136.478 23.9592 136.19 23.7964L121.042 12.8452C119.562 11.6969 117.77 10.4142 115.369 9.51362C112.955 8.60799 109.974 8.10647 106.118 8.44144C106.115 8.44165 106.113 8.44185 106.111 8.44205L17.4099 14.9115ZM129.394 60.8548L129.352 60.8596L129.31 60.8679L124.459 61.8345L123.654 61.9948V62.8152V133.381C119.716 135.434 116.19 136.541 113.321 136.541C110.844 136.541 109.452 136.157 108.222 135.304C106.92 134.401 105.731 132.935 103.774 130.49L72.069 80.7178L70.2256 77.8238V81.255V129.455V130.255L71.0055 130.431L80.1453 132.493C80.0339 132.935 79.8247 133.499 79.4339 134.06C78.637 135.205 76.9433 136.541 73.1657 136.541H73.1367L73.1078 136.543L51.5976 137.791C51.5939 137.726 51.5921 137.657 51.5928 137.583C51.5967 137.197 51.6687 136.759 51.8159 136.334C52.1183 135.462 52.663 134.827 53.368 134.624C53.3692 134.624 53.3704 134.624 53.3715 134.623L59.1922 133.01L59.9251 132.807V132.046V68.3162V67.3931L59.0049 67.3194L51.7071 66.7346C51.6356 65.6776 51.8838 64.4943 52.4932 63.4976C53.2225 62.3048 54.4759 61.3622 56.4057 61.2229C56.4064 61.2228 56.4071 61.2228 56.4078 61.2227L79.7794 59.6473L112.484 109.624L114.321 112.431V109.077V64.4326V63.5408L113.435 63.4391L105.806 62.5636C105.719 60.0672 107.625 58.2521 110.158 57.9928L131.594 56.745C131.721 57.7625 131.646 58.6796 131.372 59.3757C131.053 60.1863 130.462 60.7349 129.394 60.8548ZM102.385 1.37673L102.385 1.37681L102.397 1.37578C108.068 0.889419 111.487 0.826831 114.354 1.47656C117.186 2.11836 119.561 3.4752 123.094 6.04134L123.1 6.04592L123.106 6.05041L152.547 26.7424C152.549 26.7443 152.552 26.7461 152.554 26.748C152.796 26.9249 153.028 27.0944 153.251 27.2574C155.324 28.772 156.616 29.7162 157.443 30.6741C158.265 31.6259 158.618 32.5884 158.618 34.346V147.895C158.618 151.36 157.981 153.894 156.438 155.646C154.904 157.388 152.298 158.553 147.895 158.866C147.894 158.866 147.893 158.867 147.891 158.867L40.7522 165.336C40.7502 165.337 40.7482 165.337 40.7461 165.337C37.3811 165.497 35.0363 165.326 33.1249 164.629C31.2481 163.944 29.6899 162.713 27.9843 160.545C27.9832 160.543 27.9821 160.542 27.981 160.54L6.30287 132.414C6.30155 132.412 6.30023 132.411 6.29892 132.409C2.48482 127.323 1 123.657 1 119.423V18.4932C1 15.7171 1.62014 13.2952 3.0149 11.5088C4.3886 9.74941 6.61563 8.47604 10.114 8.17186C10.1161 8.17168 10.1182 8.1715 10.1203 8.17132L102.385 1.37673Z" stroke="white" stroke-width="2"/>
</svg>
