<svg width="155" height="166" viewBox="0 0 155 166" fill="none" xmlns="http://www.w3.org/2000/svg">
<g clip-path="url(#clip0_101_120)">
<mask id="path-1-inside-1_101_120" fill="white">
<path fill-rule="evenodd" clip-rule="evenodd" d="M105.559 4.7889C95.637 1.26995 85.0488 -0.311467 74.5293 0.0505921C62.0462 0.471966 49.6618 3.7025 38.591 9.49413C21.5933 18.3165 7.76803 33.1383 0.30156 50.7817C-0.341751 52.4216 0.066393 54.4186 1.31419 55.6682C2.37248 56.798 4.02487 57.3219 5.5427 57.0291C7.11656 56.7707 8.46562 55.6164 9.05268 54.1441C11.7656 47.8081 15.3642 41.8526 19.7227 36.5101C30.002 23.8301 44.5765 14.7047 60.4938 11.0412C71.6419 8.44345 83.3768 8.44345 94.5225 11.0491C103.166 13.0578 111.439 16.6454 118.815 21.572C130.748 29.4985 140.314 40.9494 145.919 54.1324C146.656 56.0801 148.794 57.3698 150.862 57.0677C152.853 56.8704 154.585 55.2384 154.912 53.2643C155.18 52.0882 154.795 50.9019 154.295 49.8466C151.477 43.5037 147.88 37.5088 143.586 32.0549C133.825 19.6232 120.485 10.0258 105.559 4.7889ZM9.99718 71.6066C8.52762 71.5023 7.49734 72.5893 6.61572 73.5931C6.62994 73.888 6.63885 74.1839 6.64778 74.4802C6.67658 75.4363 6.70553 76.3972 6.91303 77.3433C11.3347 93.3344 15.7464 109.332 20.1581 125.329C23.5723 137.709 26.9865 150.09 30.4055 162.467C30.7629 164.332 32.2955 165.869 34.2827 165.863C37.5275 165.996 40.7742 165.974 44.0217 165.953C46.3572 165.937 48.6932 165.921 51.0292 165.963C53.8294 166.177 57.5931 165.524 58.2089 162.254C60.191 154.932 62.1755 147.608 64.16 140.285C67.6466 127.418 71.1333 114.551 74.6072 101.687C75.7847 97.3738 76.3765 92.9561 76.9677 88.5429C77.2175 86.6777 77.4673 84.8132 77.7611 82.9578C77.7848 83.1634 77.8085 83.3691 77.8322 83.5748C78.6173 90.3862 79.4073 97.2414 81.2785 103.862C83.1476 110.742 85.0095 117.625 86.8715 124.508C90.3148 137.236 93.7582 149.964 97.2465 162.678C97.6264 164.928 99.9017 166.074 102.054 165.941C104.109 165.931 106.165 165.941 108.221 165.951C112.175 165.971 116.13 165.991 120.079 165.863C122.428 165.826 124.431 164.042 124.849 161.759C128.898 146.925 132.94 132.085 136.981 117.247C140.7 103.59 144.419 89.9345 148.145 76.2829C148.954 74.2487 147.634 71.7265 145.336 71.6602C142.337 71.5089 139.331 71.5411 136.326 71.5734C135.454 71.5827 134.583 71.5921 133.713 71.5969C131.431 71.5288 128.839 72.752 128.431 75.1838C126.783 82.4042 125.167 89.6289 123.551 96.8525C122.457 101.742 121.363 106.632 120.26 111.519C119.523 114.903 118.751 118.282 117.979 121.662C115.28 133.481 112.578 145.312 111.376 157.396C110.839 154.828 110.47 152.237 110.102 149.65L110.043 149.237C109.049 142.247 107.13 135.463 105.212 128.683C104.416 125.868 103.621 123.055 102.891 120.227C101.264 114.319 99.6427 108.408 98.0213 102.497C95.5581 93.5177 93.095 84.5391 90.6135 75.5707C89.9946 72.9563 87.2447 71.465 84.6757 71.5849C83.2913 71.5849 81.9062 71.578 80.5207 71.5711C77.1115 71.5541 73.7003 71.5371 70.2937 71.6228C67.9523 71.6228 65.7491 73.2762 65.3195 75.602C61.0219 91.4957 56.7306 107.391 52.4387 123.288C51.223 127.791 50.0073 132.294 48.7915 136.797C47.1331 142.76 46.1801 148.884 45.229 154.995C45.1056 155.788 44.9822 156.581 44.8572 157.374C44.475 155.035 44.2392 152.682 44.0035 150.33C43.752 147.821 43.5006 145.312 43.0715 142.822C42.4893 138.943 41.5425 135.138 40.5958 131.334C40.2324 129.874 39.869 128.413 39.5263 126.949C37.7183 119.613 35.9208 112.273 34.1233 104.933C31.7325 95.1713 29.3418 85.4092 26.9263 75.655C26.6072 73.6377 25.103 71.7319 22.9193 71.6692C19.2787 71.502 15.6272 71.5436 11.9814 71.5852C11.3198 71.5927 10.6583 71.6003 9.99718 71.6066Z"/>
</mask>
<path d="M74.5293 0.0505921L74.5967 2.04945L74.5981 2.04941L74.5293 0.0505921ZM105.559 4.7889L104.89 6.67386L104.897 6.67612L105.559 4.7889ZM38.591 9.49413L39.5123 11.2693L39.518 11.2663L38.591 9.49413ZM0.30156 50.7817L-1.5403 50.0023L-1.55062 50.0267L-1.5603 50.0513L0.30156 50.7817ZM1.31419 55.6682L2.77386 54.301L2.752 54.2776L2.72941 54.255L1.31419 55.6682ZM5.5427 57.0291L5.21864 55.0555L5.19117 55.0601L5.16384 55.0653L5.5427 57.0291ZM9.05268 54.1441L7.21412 53.3569L7.20423 53.38L7.19492 53.4033L9.05268 54.1441ZM19.7227 36.5101L21.2724 37.7744L21.2763 37.7696L19.7227 36.5101ZM60.4938 11.0412L60.9424 12.9902L60.9477 12.989L60.4938 11.0412ZM94.5225 11.0491L94.0672 12.9966L94.0697 12.9972L94.5225 11.0491ZM118.815 21.572L117.705 23.2352L117.709 23.2379L118.815 21.572ZM145.919 54.1324L147.789 53.4243L147.775 53.3868L147.76 53.3499L145.919 54.1324ZM150.862 57.0677L150.665 55.0775L150.619 55.082L150.573 55.0887L150.862 57.0677ZM154.912 53.2643L152.962 52.8206L152.949 52.8784L152.939 52.9369L154.912 53.2643ZM154.295 49.8466L152.468 50.6587L152.477 50.6807L152.488 50.7025L154.295 49.8466ZM143.586 32.0549L142.013 33.2901L142.015 33.2921L143.586 32.0549ZM6.61572 73.5931L5.113 72.2734L4.57908 72.8813L4.61804 73.6894L6.61572 73.5931ZM9.99718 71.6066L9.85567 73.6016L9.93585 73.6072L10.0162 73.6065L9.99718 71.6066ZM6.64778 74.4802L4.64869 74.5405L4.64869 74.5405L6.64778 74.4802ZM6.91303 77.3433L4.95947 77.7718L4.97101 77.8244L4.98537 77.8764L6.91303 77.3433ZM20.1581 125.329L18.2301 125.861L18.2301 125.861L20.1581 125.329ZM30.4055 162.467L32.3697 162.091L32.3546 162.012L32.3333 161.935L30.4055 162.467ZM34.2827 165.863L34.3649 163.864L34.3208 163.863L34.2766 163.863L34.2827 165.863ZM44.0217 165.953L44.0082 163.953L44.0082 163.953L44.0217 165.953ZM51.0292 165.963L51.1811 163.969L51.1232 163.965L51.0652 163.964L51.0292 165.963ZM58.2089 162.254L56.2784 161.732L56.258 161.807L56.2435 161.884L58.2089 162.254ZM64.16 140.285L66.0904 140.808L66.0904 140.808L64.16 140.285ZM74.6072 101.687L72.6778 101.16L72.6763 101.166L74.6072 101.687ZM76.9677 88.5429L78.95 88.8085L78.95 88.8085L76.9677 88.5429ZM77.7611 82.9578L79.7479 82.7285L75.7857 82.645L77.7611 82.9578ZM77.8322 83.5748L75.8454 83.8037L75.8454 83.8038L77.8322 83.5748ZM81.2785 103.862L83.2085 103.337L83.2059 103.327L83.2031 103.318L81.2785 103.862ZM86.8715 124.508L88.8021 123.985L88.8021 123.985L86.8715 124.508ZM97.2465 162.678L99.2186 162.345L99.2019 162.246L99.1752 162.149L97.2465 162.678ZM102.054 165.941L102.044 163.941L101.987 163.941L101.931 163.945L102.054 165.941ZM108.221 165.951L108.211 167.951L108.211 167.951L108.221 165.951ZM120.079 165.863L120.048 163.863L120.031 163.863L120.015 163.864L120.079 165.863ZM124.849 161.759L122.919 161.232L122.897 161.315L122.881 161.399L124.849 161.759ZM136.981 117.247L138.911 117.772L138.911 117.772L136.981 117.247ZM148.145 76.2829L146.287 75.5439L146.245 75.6481L146.216 75.7563L148.145 76.2829ZM145.336 71.6602L145.235 73.6577L145.256 73.6587L145.278 73.6594L145.336 71.6602ZM136.326 71.5734L136.347 73.5732L136.347 73.5732L136.326 71.5734ZM133.713 71.5969L133.653 73.596L133.688 73.5971L133.724 73.5969L133.713 71.5969ZM128.431 75.1838L130.381 75.6291L130.394 75.5722L130.404 75.5146L128.431 75.1838ZM123.551 96.8525L121.599 96.416L121.599 96.416L123.551 96.8525ZM120.26 111.519L118.309 111.078L118.307 111.086L118.305 111.093L120.26 111.519ZM117.979 121.662L116.03 121.216L116.03 121.216L117.979 121.662ZM111.376 157.396L109.418 157.805L113.366 157.594L111.376 157.396ZM110.102 149.65L112.082 149.369L112.082 149.368L110.102 149.65ZM110.043 149.237L108.063 149.519L108.063 149.519L110.043 149.237ZM105.212 128.683L107.137 128.138L107.137 128.138L105.212 128.683ZM102.891 120.227L104.828 119.728L104.824 119.712L104.819 119.696L102.891 120.227ZM98.0213 102.497L96.0926 103.026L96.0926 103.026L98.0213 102.497ZM90.6135 75.5707L88.6672 76.0314L88.6759 76.0679L88.6859 76.104L90.6135 75.5707ZM84.6757 71.5849V73.5849H84.7224L84.769 73.5827L84.6757 71.5849ZM80.5207 71.5711L80.5307 69.5711L80.5306 69.5711L80.5207 71.5711ZM70.2937 71.6228V73.6228H70.3189L70.344 73.6222L70.2937 71.6228ZM65.3195 75.602L67.2502 76.1241L67.2715 76.0454L67.2863 75.9653L65.3195 75.602ZM52.4387 123.288L54.3695 123.81L54.3695 123.81L52.4387 123.288ZM48.7915 136.797L50.7183 137.333L50.7204 137.326L50.7223 137.318L48.7915 136.797ZM45.229 154.995L43.2528 154.687L43.2528 154.687L45.229 154.995ZM44.8572 157.374L42.8834 157.696L46.8328 157.685L44.8572 157.374ZM44.0035 150.33L45.9935 150.131L45.9935 150.131L44.0035 150.33ZM43.0715 142.822L41.0937 143.119L41.0969 143.141L41.1006 143.162L43.0715 142.822ZM40.5958 131.334L38.655 131.817L38.655 131.817L40.5958 131.334ZM39.5263 126.949L41.4736 126.493L41.471 126.482L41.4682 126.471L39.5263 126.949ZM34.1233 104.933L36.0659 104.458L36.0659 104.458L34.1233 104.933ZM26.9263 75.655L24.9509 75.9676L24.9643 76.0524L24.985 76.1358L26.9263 75.655ZM22.9193 71.6692L22.8275 73.6671L22.8447 73.6679L22.8619 73.6684L22.9193 71.6692ZM11.9814 71.5852L12.0042 73.5851L12.0042 73.5851L11.9814 71.5852ZM74.5981 2.04941C84.8737 1.69574 95.2113 3.24104 104.89 6.67385L106.227 2.90394C96.0627 -0.701132 85.2239 -2.31868 74.4605 -1.94822L74.5981 2.04941ZM39.518 11.2663C50.3197 5.61548 62.4099 2.46083 74.5967 2.04945L74.4618 -1.94827C61.6826 -1.5169 49.0039 1.78952 37.6639 7.72198L39.518 11.2663ZM2.14342 51.5612C9.42581 34.3527 22.9222 19.8801 39.5123 11.2693L37.6696 7.71899C20.2644 16.7529 6.11026 31.9238 -1.5403 50.0023L2.14342 51.5612ZM2.72941 54.255C2.04737 53.572 1.80815 52.4177 2.16342 51.5121L-1.5603 50.0513C-2.49165 52.4254 -1.91459 55.2653 -0.10103 57.0814L2.72941 54.255ZM5.16384 55.0653C4.30986 55.2301 3.355 54.9214 2.77386 54.301L-0.145489 57.0354C1.38996 58.6747 3.73989 59.4138 5.92156 58.9929L5.16384 55.0653ZM7.19492 53.4033C6.84864 54.2718 6.05142 54.9188 5.21864 55.0555L5.86676 59.0027C8.18171 58.6226 10.0826 56.961 10.9104 54.8849L7.19492 53.4033ZM18.173 35.2459C13.6957 40.734 10.0001 46.8502 7.21412 53.3569L10.8912 54.9313C13.5311 48.7659 17.0328 42.9712 21.2724 37.7744L18.173 35.2459ZM60.0452 9.09211C43.6909 12.8563 28.7281 22.2255 18.1691 35.2507L21.2763 37.7696C31.2759 25.4347 45.462 16.5532 60.9424 12.9902L60.0452 9.09211ZM94.9777 9.1016C83.5326 6.42594 71.4866 6.42606 60.0399 9.09333L60.9477 12.989C71.7972 10.4608 83.221 10.461 94.0672 12.9966L94.9777 9.1016ZM119.926 19.9088C112.35 14.8488 103.854 11.1645 94.9752 9.10101L94.0697 12.9972C102.477 14.9512 110.528 18.442 117.705 23.2352L119.926 19.9088ZM147.76 53.3499C142 39.8034 132.177 28.0467 119.922 19.906L117.709 23.2379C129.319 30.9502 138.628 42.0955 144.078 54.915L147.76 53.3499ZM150.573 55.0887C149.454 55.2521 148.202 54.5136 147.789 53.4243L144.049 54.8405C145.111 57.6466 148.133 59.4875 151.151 59.0467L150.573 55.0887ZM152.939 52.9369C152.759 54.0255 151.75 54.9699 150.665 55.0775L151.059 59.058C153.957 58.7708 156.411 56.4513 156.885 53.5917L152.939 52.9369ZM152.488 50.7025C152.941 51.6608 153.075 52.326 152.962 52.8206L156.863 53.708C157.285 51.8503 156.649 50.143 156.103 48.9907L152.488 50.7025ZM142.015 33.2921C146.204 38.6132 149.715 44.4649 152.468 50.6587L156.123 49.0344C153.238 42.5425 149.556 36.4044 145.158 30.8178L142.015 33.2921ZM104.897 6.67612C119.46 11.7857 132.485 21.1555 142.013 33.2901L145.159 30.8198C135.165 18.0909 121.51 8.26576 106.221 2.90168L104.897 6.67612ZM8.11845 74.9129C8.56415 74.4054 8.89985 74.0548 9.22923 73.8254C9.51681 73.625 9.6961 73.5902 9.85567 73.6016L10.1387 69.6116C7.54381 69.4275 5.8862 71.393 5.113 72.2734L8.11845 74.9129ZM8.64687 74.42C8.63804 74.1267 8.62863 73.8127 8.6134 73.4968L4.61804 73.6894C4.63124 73.9632 4.63967 74.2411 4.64869 74.5405L8.64687 74.42ZM8.8666 76.9149C8.70558 76.1807 8.67659 75.4066 8.64687 74.42L4.64869 74.5405C4.67657 75.466 4.70548 76.6137 4.95947 77.7718L8.8666 76.9149ZM22.0861 124.797C17.6744 108.8 13.2626 92.8021 8.8407 76.8103L4.98537 77.8764C9.40683 93.8666 13.8183 109.863 18.2301 125.861L22.0861 124.797ZM32.3333 161.935C28.9144 149.558 25.5003 137.178 22.0861 124.797L18.2301 125.861C21.6442 138.241 25.0586 150.622 28.4777 163L32.3333 161.935ZM34.2766 163.863C33.4193 163.865 32.5797 163.186 32.3697 162.091L28.4412 162.844C28.9461 165.477 31.1718 167.872 34.2887 167.863L34.2766 163.863ZM44.0082 163.953C40.7528 163.975 37.554 163.996 34.3649 163.864L34.2004 167.861C37.5011 167.997 40.7956 167.974 44.0351 167.953L44.0082 163.953ZM51.0652 163.964C48.7004 163.921 46.3397 163.937 44.0082 163.953L44.0351 167.953C46.3748 167.937 48.686 167.921 50.9932 167.963L51.0652 163.964ZM56.2435 161.884C56.0953 162.671 55.615 163.192 54.6977 163.557C53.7126 163.95 52.4063 164.062 51.1811 163.969L50.8773 167.958C52.4523 168.078 54.4279 167.971 56.1787 167.273C57.9973 166.548 59.7067 165.107 60.1744 162.624L56.2435 161.884ZM62.2296 139.761C60.2451 147.085 58.2606 154.409 56.2784 161.732L60.1395 162.777C62.1215 155.454 64.1059 148.131 66.0904 140.808L62.2296 139.761ZM72.6763 101.166C69.2027 114.028 65.7163 126.894 62.2296 139.761L66.0904 140.808C69.577 127.941 73.0639 115.073 76.538 102.209L72.6763 101.166ZM74.9854 88.2774C74.3913 92.7126 73.8143 96.9973 72.6778 101.16L76.5366 102.214C77.7551 97.7504 78.3618 93.1997 78.95 88.8085L74.9854 88.2774ZM75.7857 82.645C75.4875 84.5279 75.2347 86.4161 74.9854 88.2774L78.95 88.8085C79.2004 86.9392 79.447 85.0985 79.7365 83.2706L75.7857 82.645ZM79.8191 83.3458C79.7954 83.1401 79.7717 82.9343 79.7479 82.7285L75.7743 83.187C75.798 83.3925 75.8217 83.598 75.8454 83.8037L79.8191 83.3458ZM83.2031 103.318C81.3831 96.8784 80.6072 90.1845 79.8191 83.3458L75.8454 83.8038C76.6273 90.5879 77.4316 97.6045 79.3539 104.406L83.2031 103.318ZM88.8021 123.985C86.9402 117.103 85.0779 110.219 83.2085 103.337L79.3484 104.386C81.2172 111.265 83.0789 118.147 84.9409 125.03L88.8021 123.985ZM99.1752 162.149C95.688 149.439 92.2456 136.714 88.8021 123.985L84.9409 125.03C88.3841 137.758 91.8284 150.489 95.3178 163.207L99.1752 162.149ZM101.931 163.945C100.366 164.041 99.3645 163.209 99.2186 162.345L95.2744 163.011C95.8883 166.646 99.4375 168.106 102.177 167.937L101.931 163.945ZM108.231 163.951C106.176 163.941 104.11 163.931 102.044 163.941L102.064 167.941C104.107 167.931 106.153 167.941 108.211 167.951L108.231 163.951ZM120.015 163.864C116.108 163.99 112.191 163.971 108.231 163.951L108.211 167.951C112.158 167.971 116.151 167.991 120.144 167.862L120.015 163.864ZM122.881 161.399C122.627 162.788 121.399 163.842 120.048 163.863L120.111 167.863C123.457 167.81 126.235 165.297 126.816 162.119L122.881 161.399ZM135.051 116.721C131.01 131.56 126.969 146.399 122.919 161.232L126.778 162.286C130.828 147.451 134.87 132.611 138.911 117.772L135.051 116.721ZM146.216 75.7563C142.49 89.4085 138.771 103.065 135.051 116.721L138.911 117.772C142.63 104.116 146.349 90.4604 150.074 76.8094L146.216 75.7563ZM145.278 73.6594C145.642 73.6699 145.956 73.8578 146.174 74.2344C146.406 74.6359 146.449 75.1355 146.287 75.5439L150.003 77.0218C151.224 73.9515 149.342 69.7749 145.393 69.661L145.278 73.6594ZM136.347 73.5732C139.363 73.5409 142.308 73.5099 145.235 73.6577L145.437 69.6627C142.367 69.5078 139.299 69.5413 136.304 69.5735L136.347 73.5732ZM133.724 73.5969C134.601 73.592 135.477 73.5826 136.347 73.5732L136.304 69.5735C135.432 69.5828 134.566 69.5921 133.701 69.597L133.724 73.5969ZM130.404 75.5146C130.493 74.9839 130.815 74.5243 131.412 74.1596C132.034 73.7798 132.862 73.5724 133.653 73.596L133.772 69.5978C132.281 69.5533 130.673 69.9235 129.326 70.7462C127.955 71.584 126.778 72.9519 126.459 74.8531L130.404 75.5146ZM125.502 97.2891C127.118 90.0648 128.734 82.8444 130.381 75.6291L126.482 74.7386C124.832 81.964 123.215 89.1931 121.599 96.416L125.502 97.2891ZM122.211 111.959C123.315 107.07 124.409 102.179 125.502 97.2891L121.599 96.416C120.505 101.306 119.412 106.193 118.309 111.078L122.211 111.959ZM119.929 122.107C120.701 118.729 121.475 115.34 122.214 111.944L118.305 111.093C117.571 114.466 116.802 117.835 116.03 121.216L119.929 122.107ZM113.366 157.594C114.554 145.655 117.225 133.947 119.929 122.107L116.03 121.216C113.335 133.015 110.602 144.968 109.386 157.198L113.366 157.594ZM108.122 149.932C108.489 152.508 108.866 155.163 109.418 157.805L113.334 156.987C112.812 154.493 112.452 151.965 112.082 149.369L108.122 149.932ZM108.063 149.519L108.122 149.933L112.082 149.368L112.023 148.955L108.063 149.519ZM103.288 129.227C105.212 136.029 107.091 142.684 108.063 149.519L112.023 148.955C111.007 141.81 109.048 134.897 107.137 128.138L103.288 129.227ZM100.955 120.727C101.691 123.581 102.493 126.417 103.288 129.227L107.137 128.138C106.34 125.32 105.551 122.529 104.828 119.728L100.955 120.727ZM96.0926 103.026C97.714 108.937 99.3357 114.848 100.963 120.758L104.819 119.696C103.193 113.789 101.572 107.879 99.9501 101.968L96.0926 103.026ZM88.6859 76.104C91.1668 85.07 93.6292 94.0464 96.0926 103.026L99.9501 101.968C97.4869 92.9889 95.0233 84.0083 92.541 75.0373L88.6859 76.104ZM84.769 73.5827C86.6795 73.4935 88.3331 74.6198 88.6672 76.0314L92.5597 75.11C91.656 71.2928 87.8099 69.4364 84.5825 69.5871L84.769 73.5827ZM80.5107 73.5711C81.8954 73.578 83.2855 73.5849 84.6757 73.5849V69.5849C83.2971 69.5849 81.917 69.578 80.5307 69.5711L80.5107 73.5711ZM70.344 73.6222C73.7155 73.5374 77.0965 73.5541 80.5107 73.5711L80.5306 69.5711C77.1265 69.5542 73.6852 69.5369 70.2434 69.6235L70.344 73.6222ZM67.2863 75.9653C67.5229 74.6841 68.8155 73.6228 70.2937 73.6228V69.6228C67.089 69.6228 63.9753 71.8683 63.3528 75.2387L67.2863 75.9653ZM54.3695 123.81C58.6615 107.912 62.9527 92.0173 67.2502 76.1241L63.3889 75.08C59.0912 90.9741 54.7997 106.87 50.5078 122.767L54.3695 123.81ZM50.7223 137.318C51.9382 132.815 53.1539 128.312 54.3695 123.81L50.5078 122.767C49.2922 127.27 48.0765 131.773 46.8606 136.276L50.7223 137.318ZM47.2052 155.302C48.1593 149.172 49.0965 143.165 50.7183 137.333L46.8646 136.261C45.1696 142.356 44.2008 148.596 43.2528 154.687L47.2052 155.302ZM46.8328 157.685C46.9581 156.89 47.0818 156.095 47.2052 155.302L43.2528 154.687C43.1293 155.481 43.0062 156.272 42.8816 157.062L46.8328 157.685ZM42.0134 150.529C42.2481 152.872 42.4895 155.287 42.8834 157.696L46.831 157.051C46.4605 154.784 46.2303 152.493 45.9935 150.131L42.0134 150.529ZM41.1006 143.162C41.5156 145.57 41.7608 148.008 42.0134 150.529L45.9935 150.131C45.7432 147.633 45.4856 145.054 45.0425 142.483L41.1006 143.162ZM38.655 131.817C39.6055 135.636 40.5279 139.349 41.0937 143.119L45.0494 142.526C44.4507 138.536 43.4794 134.639 42.5366 130.851L38.655 131.817ZM37.5789 127.405C37.9253 128.885 38.2922 130.359 38.655 131.817L42.5366 130.851C42.1726 129.388 41.8126 127.942 41.4736 126.493L37.5789 127.405ZM32.1807 105.409C33.9781 112.749 35.776 120.09 37.5844 127.428L41.4682 126.471C39.6606 119.136 37.8634 111.798 36.0659 104.458L32.1807 105.409ZM24.985 76.1358C27.3997 85.8871 29.7898 95.6466 32.1807 105.409L36.0659 104.458C33.6752 94.696 31.2839 84.9314 28.8677 75.1743L24.985 76.1358ZM22.8619 73.6684C23.7666 73.6944 24.7263 74.5481 24.9509 75.9676L28.9018 75.3425C28.488 72.7274 26.4395 69.7694 22.9767 69.6701L22.8619 73.6684ZM12.0042 73.5851C15.6597 73.5434 19.2537 73.5029 22.8275 73.6671L23.0111 69.6713C19.3036 69.501 15.5948 69.5438 11.9586 69.5853L12.0042 73.5851ZM10.0162 73.6065C10.6796 73.6002 11.3429 73.5926 12.0042 73.5851L11.9586 69.5853C11.2967 69.5929 10.6371 69.6004 9.97814 69.6067L10.0162 73.6065Z" fill="white" mask="url(#path-1-inside-1_101_120)"/>
</g>
<defs>
<clipPath id="clip0_101_120">
<rect width="155" height="166" fill="white"/>
</clipPath>
</defs>
</svg>
